<svg width="36" height="36" viewBox="0 0 36 36" fill="none" xmlns="http://www.w3.org/2000/svg">
<mask id="mask0_4_3748" style="mask-type:luminance" maskUnits="userSpaceOnUse" x="3" y="20" width="23" height="12">
<path fill-rule="evenodd" clip-rule="evenodd" d="M3 20.9355H25.7757V31.5849H3V20.9355Z" fill="white"/>
</mask>
<g mask="url(#mask0_4_3748)">
<path fill-rule="evenodd" clip-rule="evenodd" d="M14.3878 23.1855C10.2193 23.1855 5.24976 23.721 5.24976 26.2785C5.24976 28.3065 8.32476 29.3355 14.3878 29.3355C20.4508 29.3355 23.5258 28.296 23.5258 26.2485C23.5258 24.216 20.4508 23.1855 14.3878 23.1855ZM14.3878 31.5855C11.2738 31.5855 2.99976 31.5855 2.99976 26.2785C2.99976 20.9355 11.5708 20.9355 14.3878 20.9355C19.2763 20.9355 25.7758 21.486 25.7758 26.2485C25.7758 31.5855 17.2048 31.5855 14.3878 31.5855Z" fill="black"/>
</g>
<path fill-rule="evenodd" clip-rule="evenodd" d="M14.3877 5.25C11.3802 5.25 8.93372 7.6965 8.93372 10.7025C8.93372 13.7085 11.3802 16.155 14.3877 16.155H14.4342C15.8802 16.149 17.2422 15.5805 18.2637 14.55C19.2867 13.5225 19.8462 12.156 19.8402 10.707C19.8402 7.6965 17.3937 5.25 14.3877 5.25ZM14.3877 18.405C10.1397 18.405 6.68372 14.949 6.68372 10.7025C6.68372 6.456 10.1397 3 14.3877 3C18.6342 3 22.0902 6.456 22.0902 10.7025C22.0992 12.7485 21.3057 14.6805 19.8597 16.1355C18.4167 17.592 16.4892 18.3975 14.4387 18.405H14.3877Z" fill="black"/>
<path fill-rule="evenodd" clip-rule="evenodd" d="M24.7236 16.6977C24.1716 16.6977 23.6901 16.2912 23.6106 15.7287C23.5251 15.1137 23.9526 14.5437 24.5676 14.4582C26.4396 14.1957 27.8526 12.5712 27.8556 10.6782C27.8556 8.79721 26.5086 7.21021 24.6561 6.90721C24.0426 6.80521 23.6271 6.22771 23.7276 5.61421C23.8281 5.00071 24.4086 4.58821 25.0191 4.68571C27.9666 5.16871 30.1056 7.69021 30.1056 10.6797C30.0996 13.6872 27.8541 16.2702 24.8811 16.6872C24.8286 16.6947 24.7761 16.6977 24.7236 16.6977Z" fill="black"/>
<mask id="mask1_4_3748" style="mask-type:luminance" maskUnits="userSpaceOnUse" x="26" y="20" width="7" height="8">
<path fill-rule="evenodd" clip-rule="evenodd" d="M26.7678 20.2251H32.9685V27.6914H26.7678V20.2251Z" fill="white"/>
</mask>
<g mask="url(#mask1_4_3748)">
<path fill-rule="evenodd" clip-rule="evenodd" d="M29.8432 27.6914C29.3887 27.6914 28.9612 27.4139 28.7917 26.9654C28.5712 26.3849 28.8637 25.7339 29.4442 25.5149C30.7192 25.0319 30.7192 24.4424 30.7192 24.1904C30.7192 23.3399 29.7127 22.7579 27.7282 22.4624C27.1132 22.3694 26.6887 21.7964 26.7802 21.1829C26.8732 20.5679 27.4567 20.1554 28.0597 20.2349C32.1187 20.8424 32.9692 22.7219 32.9692 24.1904C32.9692 25.2839 32.4967 26.7644 30.2422 27.6179C30.1117 27.6674 29.9767 27.6914 29.8432 27.6914Z" fill="black"/>
</g>
</svg>
