<svg width="36" height="36" viewBox="0 0 36 36" fill="none" xmlns="http://www.w3.org/2000/svg">
<path fill-rule="evenodd" clip-rule="evenodd" d="M26.8302 18.2198C26.2782 18.2198 25.7967 17.8133 25.7172 17.2508C25.6317 16.6343 26.0592 16.0658 26.6757 15.9803C28.2357 15.7613 29.4132 14.4083 29.4162 12.8303C29.4162 11.2658 28.2942 9.94276 26.7477 9.68926C26.1357 9.58876 25.7202 9.00976 25.8207 8.39626C25.9227 7.78276 26.4972 7.37176 27.1137 7.46926C29.7507 7.90276 31.6662 10.1588 31.6662 12.8333C31.6602 15.5258 29.6487 17.8358 26.9862 18.2093C26.9337 18.2168 26.8812 18.2198 26.8302 18.2198Z" fill="black"/>
<mask id="mask0_4_3750" style="mask-type:luminance" maskUnits="userSpaceOnUse" x="28" y="21" width="7" height="7">
<path fill-rule="evenodd" clip-rule="evenodd" d="M28.4672 21.0024H34.1581V27.7968H28.4672V21.0024Z" fill="white"/>
</mask>
<g mask="url(#mask0_4_3750)">
<path fill-rule="evenodd" clip-rule="evenodd" d="M31.2921 27.7968C30.8391 27.7968 30.4116 27.5208 30.2406 27.0723C30.0186 26.4918 30.3111 25.8408 30.8916 25.6203C31.9086 25.2333 31.9086 24.8058 31.9086 24.6003C31.9086 23.9433 31.0731 23.4843 29.4261 23.2383C28.8126 23.1453 28.3881 22.5738 28.4796 21.9573C28.5711 21.3423 29.1411 20.9328 29.7606 21.0123C33.3951 21.5568 34.1586 23.2638 34.1586 24.6003C34.1586 25.4163 33.8376 26.9058 31.6926 27.7233C31.5606 27.7728 31.4256 27.7968 31.2921 27.7968Z" fill="black"/>
</g>
<path fill-rule="evenodd" clip-rule="evenodd" d="M17.83 23.871C14.266 23.871 10.0165 24.309 10.0165 26.394C10.0165 28.4955 14.266 28.9365 17.83 28.9365C21.394 28.9365 25.642 28.5 25.642 26.4195C25.642 24.3135 21.394 23.871 17.83 23.871ZM17.83 31.1865C15.3415 31.1865 7.76648 31.1865 7.76648 26.394C7.76648 21.621 15.3415 21.621 17.83 21.621C20.3185 21.621 27.892 21.621 27.892 26.4195C27.892 31.1865 20.5825 31.1865 17.83 31.1865Z" fill="black"/>
<path fill-rule="evenodd" clip-rule="evenodd" d="M17.83 8.25C15.292 8.25 13.228 10.3155 13.228 12.8535C13.2235 14.0835 13.6945 15.234 14.557 16.1025C15.4195 16.971 16.5685 17.4525 17.7925 17.457L17.83 18.582V17.457C20.368 17.457 22.4335 15.393 22.4335 12.8535C22.4335 10.3155 20.368 8.25 17.83 8.25ZM17.83 19.707H17.7895C15.9595 19.701 14.245 18.984 12.961 17.688C11.674 16.3935 10.9705 14.6745 10.978 12.849C10.978 9.075 14.0515 6 17.83 6C21.61 6 24.6835 9.075 24.6835 12.8535C24.6835 16.632 21.61 19.707 17.83 19.707Z" fill="black"/>
<path fill-rule="evenodd" clip-rule="evenodd" d="M8.82852 18.2197C8.77752 18.2197 8.72502 18.2167 8.67252 18.2092C6.01002 17.8357 4.00002 15.5257 3.99402 12.8362C3.99402 10.1587 5.90952 7.90274 8.54652 7.46924C9.17802 7.37024 9.73752 7.78574 9.83952 8.39624C9.94002 9.00974 9.52452 9.58874 8.91252 9.68924C7.36602 9.94274 6.24402 11.2657 6.24402 12.8332C6.24702 14.4082 7.42452 15.7627 8.98302 15.9802C9.59952 16.0657 10.027 16.6342 9.94152 17.2507C9.86202 17.8132 9.38052 18.2197 8.82852 18.2197Z" fill="black"/>
<path fill-rule="evenodd" clip-rule="evenodd" d="M4.36812 27.7968C4.23462 27.7968 4.09962 27.7728 3.96762 27.7233C1.82112 26.9043 1.50012 25.4148 1.50012 24.6003C1.50012 23.2653 2.26362 21.5568 5.89962 21.0123C6.51912 20.9343 7.08612 21.3423 7.17912 21.9573C7.27062 22.5738 6.84612 23.1453 6.23262 23.2383C4.58562 23.4843 3.75012 23.9433 3.75012 24.6003C3.75012 24.8058 3.75012 25.2318 4.76862 25.6203C5.34912 25.8408 5.64162 26.4918 5.41962 27.0723C5.24862 27.5208 4.82112 27.7968 4.36812 27.7968Z" fill="black"/>
</svg>
