<svg width="36" height="36" viewBox="0 0 36 36" fill="none" xmlns="http://www.w3.org/2000/svg">
<path fill-rule="evenodd" clip-rule="evenodd" d="M10.8244 24.0044C10.5844 24.0044 10.3429 23.9279 10.1389 23.7719C9.64693 23.3924 9.55393 22.6859 9.93343 22.1939L14.4229 16.3589C14.6059 16.1204 14.8774 15.9659 15.1744 15.9284C15.4774 15.8894 15.7744 15.9734 16.0099 16.1609L20.2399 19.4834L23.9404 14.7089C24.3214 14.2154 25.0264 14.1239 25.5184 14.5079C26.0104 14.8889 26.1004 15.5954 25.7194 16.0859L21.3244 21.7559C21.1414 21.9929 20.8714 22.1474 20.5744 22.1834C20.2744 22.2239 19.9774 22.1369 19.7404 21.9524L15.5134 18.6314L11.7169 23.5649C11.4949 23.8529 11.1619 24.0044 10.8244 24.0044Z" fill="black"/>
<mask id="mask0_4_3783" style="mask-type:luminance" maskUnits="userSpaceOnUse" x="25" y="3" width="9" height="9">
<path fill-rule="evenodd" clip-rule="evenodd" d="M25.943 3.00015H33.959V11.0175H25.943V3.00015Z" fill="white"/>
</mask>
<g mask="url(#mask0_4_3783)">
<path fill-rule="evenodd" clip-rule="evenodd" d="M29.951 5.25C28.982 5.25 28.193 6.0375 28.193 7.008C28.193 7.977 28.982 8.7675 29.951 8.7675C30.92 8.7675 31.709 7.977 31.709 7.008C31.709 6.0375 30.92 5.25 29.951 5.25ZM29.951 11.0175C27.7415 11.0175 25.943 9.219 25.943 7.008C25.943 4.797 27.7415 3 29.951 3C32.162 3 33.959 4.797 33.959 7.008C33.959 9.219 32.162 11.0175 29.951 11.0175Z" fill="black"/>
</g>
<mask id="mask1_4_3783" style="mask-type:luminance" maskUnits="userSpaceOnUse" x="3" y="4" width="30" height="31">
<path fill-rule="evenodd" clip-rule="evenodd" d="M3 4.26315H32.7929V34.0547H3V4.26315Z" fill="white"/>
</mask>
<g mask="url(#mask1_4_3783)">
<path fill-rule="evenodd" clip-rule="evenodd" d="M24.3494 34.0547H11.4434C6.39288 34.0547 2.99988 30.5072 2.99988 25.2272V13.1042C2.99988 7.81665 6.39288 4.26315 11.4434 4.26315H22.3454C22.9664 4.26315 23.4704 4.76715 23.4704 5.38815C23.4704 6.00915 22.9664 6.51315 22.3454 6.51315H11.4434C7.68138 6.51315 5.24988 9.09915 5.24988 13.1042V25.2272C5.24988 29.2847 7.62288 31.8047 11.4434 31.8047H24.3494C28.1114 31.8047 30.5429 29.2232 30.5429 25.2272V14.6687C30.5429 14.0477 31.0469 13.5437 31.6679 13.5437C32.2889 13.5437 32.7929 14.0477 32.7929 14.6687V25.2272C32.7929 30.5072 29.3999 34.0547 24.3494 34.0547Z" fill="black"/>
</g>
</svg>
