<svg width="36" height="36" viewBox="0 0 36 36" fill="none" xmlns="http://www.w3.org/2000/svg">
<mask id="mask0_4_3752" style="mask-type:luminance" maskUnits="userSpaceOnUse" x="3" y="21" width="24" height="12">
<path fill-rule="evenodd" clip-rule="evenodd" d="M3 21.684H26.631V32.6923H3V21.684Z" fill="white"/>
</mask>
<g mask="url(#mask0_4_3752)">
<path fill-rule="evenodd" clip-rule="evenodd" d="M14.8155 23.934C8.469 23.934 5.25 25.0245 5.25 27.1725C5.25 29.3415 8.469 30.4425 14.8155 30.4425C21.162 30.4425 24.381 29.352 24.381 27.2055C24.381 25.0335 21.162 23.934 14.8155 23.934ZM14.8155 32.6925C11.8935 32.6925 3 32.6925 3 27.1725C3 22.2525 9.7425 21.684 14.8155 21.684C17.7375 21.684 26.631 21.684 26.631 27.2055C26.631 32.124 19.8885 32.6925 14.8155 32.6925Z" fill="black"/>
</g>
<path fill-rule="evenodd" clip-rule="evenodd" d="M14.8155 5.25C11.6595 5.25 9.09002 7.8195 9.09002 10.977C9.08402 12.5055 9.67202 13.938 10.7445 15.0195C11.8185 16.0995 13.2495 16.698 14.7735 16.704L14.8155 17.829V16.704C17.973 16.704 20.5425 14.1345 20.5425 10.977C20.5425 7.8195 17.973 5.25 14.8155 5.25ZM14.8155 18.954H14.769C12.6405 18.9465 10.6455 18.111 9.15002 16.605C7.65302 15.0975 6.83252 13.0965 6.84002 10.9725C6.84002 6.579 10.4175 3 14.8155 3C19.215 3 22.7925 6.579 22.7925 10.977C22.7925 15.375 19.215 18.954 14.8155 18.954Z" fill="black"/>
<path fill-rule="evenodd" clip-rule="evenodd" d="M28.8062 20.1446C28.1852 20.1446 27.6812 19.6406 27.6812 19.0196V13.0031C27.6812 12.3821 28.1852 11.8781 28.8062 11.8781C29.4272 11.8781 29.9312 12.3821 29.9312 13.0031V19.0196C29.9312 19.6406 29.4272 20.1446 28.8062 20.1446Z" fill="black"/>
<path fill-rule="evenodd" clip-rule="evenodd" d="M31.875 17.1357H25.74C25.119 17.1357 24.615 16.6317 24.615 16.0107C24.615 15.3897 25.119 14.8857 25.74 14.8857H31.875C32.496 14.8857 33 15.3897 33 16.0107C33 16.6317 32.496 17.1357 31.875 17.1357Z" fill="black"/>
</svg>
