<svg width="36" height="36" viewBox="0 0 36 36" fill="none" xmlns="http://www.w3.org/2000/svg">
<path fill-rule="evenodd" clip-rule="evenodd" d="M11.874 5.25C7.8495 5.25 5.25 7.7025 5.25 11.4975V24.501C5.25 28.296 7.8495 30.75 11.874 30.75H24.126C28.1505 30.75 30.75 28.296 30.75 24.501V11.4975C30.75 7.7025 28.1505 5.25 24.126 5.25H11.874ZM24.126 33H11.874C6.567 33 3 29.5845 3 24.501V11.4975C3 6.414 6.567 3 11.874 3H24.126C29.433 3 33 6.414 33 11.4975V24.501C33 29.5845 29.433 33 24.126 33Z" fill="black"/>
<path fill-rule="evenodd" clip-rule="evenodd" d="M24.1288 19.125H11.8708C11.2498 19.125 10.7458 18.621 10.7458 18C10.7458 17.379 11.2498 16.875 11.8708 16.875H24.1288C24.7498 16.875 25.2538 17.379 25.2538 18C25.2538 18.621 24.7498 19.125 24.1288 19.125Z" fill="black"/>
<path fill-rule="evenodd" clip-rule="evenodd" d="M18.4834 24.747C18.1954 24.747 17.9059 24.6375 17.6869 24.4155C17.2489 23.9745 17.2504 23.2635 17.6899 22.8255L22.5349 18L17.6899 13.1745C17.2504 12.7365 17.2489 12.0255 17.6869 11.5845C18.1249 11.1435 18.8359 11.1435 19.2769 11.5815L24.9229 17.2035C25.1359 17.4135 25.2544 17.7015 25.2544 18C25.2544 18.2985 25.1359 18.5865 24.9229 18.7965L19.2769 24.4185C19.0579 24.6375 18.7699 24.747 18.4834 24.747Z" fill="black"/>
</svg>
