<svg width="36" height="36" viewBox="0 0 36 36" fill="none" xmlns="http://www.w3.org/2000/svg">
<path fill-rule="evenodd" clip-rule="evenodd" d="M18 5.25C10.9695 5.25 5.25 10.9695 5.25 18C5.25 25.0305 10.9695 30.75 18 30.75C25.0305 30.75 30.75 25.0305 30.75 18C30.75 10.9695 25.0305 5.25 18 5.25ZM18 33C9.729 33 3 26.271 3 18C3 9.729 9.729 3 18 3C26.271 3 33 9.729 33 18C33 26.271 26.271 33 18 33Z" fill="black"/>
<path fill-rule="evenodd" clip-rule="evenodd" d="M23.2076 21.2886C22.9196 21.2886 22.6301 21.1791 22.4111 20.9571L17.9996 16.5276L13.5911 20.9571C13.1531 21.3981 12.4406 21.3981 11.9996 20.9601C11.5601 20.5221 11.5571 19.8111 11.9966 19.3701L17.2031 14.1396C17.6246 13.7151 18.3746 13.7151 18.7976 14.1396L24.0041 19.3701C24.4421 19.8111 24.4406 20.5221 24.0011 20.9601C23.7821 21.1791 23.4941 21.2886 23.2076 21.2886Z" fill="black"/>
</svg>
