<svg width="36" height="36" viewBox="0 0 36 36" fill="none" xmlns="http://www.w3.org/2000/svg">
<path fill-rule="evenodd" clip-rule="evenodd" d="M18 5.25C10.9695 5.25 5.25 10.9695 5.25 18C5.25 25.0305 10.9695 30.75 18 30.75C25.0305 30.75 30.75 25.0305 30.75 18C30.75 10.9695 25.0305 5.25 18 5.25ZM18 33C9.729 33 3 26.271 3 18C3 9.729 9.729 3 18 3C26.271 3 33 9.729 33 18C33 26.271 26.271 33 18 33Z" fill="black"/>
<path fill-rule="evenodd" clip-rule="evenodd" d="M18 22.1908C17.7015 22.1908 17.4135 22.0723 17.2035 21.8593L11.997 16.6303C11.5575 16.1893 11.5605 15.4768 12 15.0388C12.441 14.6008 13.1535 14.6008 13.5915 15.0418L18 19.4728L22.41 15.0418C22.848 14.6008 23.5605 14.6008 24.0015 15.0388C24.441 15.4768 24.4425 16.1893 24.0045 16.6303L18.7965 21.8593C18.5865 22.0723 18.2985 22.1908 18 22.1908Z" fill="black"/>
</svg>
