<svg width="36" height="36" viewBox="0 0 36 36" fill="none" xmlns="http://www.w3.org/2000/svg">
<path d="M17.5886 30C17.0191 30 16.5484 29.5768 16.4739 29.0277L16.4636 28.875L16.4636 6.375C16.4636 5.75368 16.9673 5.25 17.5886 5.25C18.1582 5.25 18.6289 5.67323 18.7034 6.22234L18.7136 6.375L18.7136 28.875C18.7136 29.4963 18.2099 30 17.5886 30Z" fill="black"/>
<path d="M9.34919 16.2435C8.9108 16.6838 8.19849 16.6853 7.75821 16.2469C7.35795 15.8484 7.32029 15.2235 7.64613 14.7823L7.75478 14.6559L16.7908 5.58092C17.1905 5.17947 17.8177 5.14294 18.2588 5.47138L18.3851 5.58085L27.4226 14.6559C27.8611 15.0961 27.8596 15.8084 27.4193 16.2468C27.0191 16.6454 26.394 16.6804 25.9543 16.3527L25.8283 16.2435L17.5875 7.9695L9.34919 16.2435Z" fill="black"/>
</svg>
