<svg width="36" height="36" viewBox="0 0 36 36" fill="none" xmlns="http://www.w3.org/2000/svg">
<path fill-rule="evenodd" clip-rule="evenodd" d="M18 5.25C10.9695 5.25 5.25 10.9695 5.25 18C5.25 25.0305 10.9695 30.75 18 30.75C25.0305 30.75 30.75 25.0305 30.75 18C30.75 10.9695 25.0305 5.25 18 5.25ZM18 33C9.729 33 3 26.271 3 18C3 9.729 9.729 3 18 3C26.271 3 33 9.729 33 18C33 26.271 26.271 33 18 33Z" fill="black"/>
<path fill-rule="evenodd" clip-rule="evenodd" d="M20.1636 24.3311C19.8771 24.3311 19.5891 24.2216 19.3701 24.0026L14.1396 18.7976C13.9281 18.5861 13.8096 18.2996 13.8096 17.9996C13.8096 17.7011 13.9281 17.4146 14.1396 17.2031L19.3701 11.9966C19.8096 11.5586 20.5206 11.5586 20.9601 11.9996C21.3996 12.4406 21.3966 13.1531 20.9571 13.5911L16.5291 17.9996L20.9571 22.4096C21.3966 22.8476 21.3996 23.5586 20.9601 23.9996C20.7411 24.2216 20.4516 24.3311 20.1636 24.3311Z" fill="black"/>
</svg>
