<svg width="36" height="36" viewBox="0 0 36 36" fill="none" xmlns="http://www.w3.org/2000/svg">
<path d="M18.4114 6C18.9809 6 19.4516 6.42323 19.5261 6.97234L19.5364 7.125V29.625C19.5364 30.2463 19.0327 30.75 18.4114 30.75C17.8418 30.75 17.3711 30.3268 17.2966 29.7777L17.2864 29.625V7.125C17.2864 6.50368 17.7901 6 18.4114 6Z" fill="black"/>
<path d="M26.6508 19.7565C27.0892 19.3162 27.8015 19.3147 28.2418 19.7531C28.6421 20.1516 28.6797 20.7765 28.3539 21.2177L28.2452 21.3441L19.2092 30.4191C18.8095 30.8205 18.1823 30.8571 17.7412 30.5286L17.6149 30.4191L8.57737 21.3441C8.13894 20.9039 8.14042 20.1916 8.58067 19.7532C8.98089 19.3546 9.60596 19.3196 10.0457 19.6473L10.1717 19.7565L18.4125 28.0305L26.6508 19.7565Z" fill="black"/>
</svg>
