<svg width="36" height="36" viewBox="0 0 36 36" fill="none" xmlns="http://www.w3.org/2000/svg">
<path fill-rule="evenodd" clip-rule="evenodd" d="M19.0502 20.2506H5.62524C5.00424 20.2506 4.50024 19.7466 4.50024 19.1256C4.50024 18.5046 5.00424 18.0006 5.62524 18.0006H19.0502C19.6712 18.0006 20.1752 18.5046 20.1752 19.1256C20.1752 19.7466 19.6712 20.2506 19.0502 20.2506Z" fill="black"/>
<mask id="mask0_4_3819" style="mask-type:luminance" maskUnits="userSpaceOnUse" x="17" y="10" width="16" height="18">
<path fill-rule="evenodd" clip-rule="evenodd" d="M17.9253 10.5006H32.0808V27.7521H17.9253V10.5006Z" fill="white"/>
</mask>
<g mask="url(#mask0_4_3819)">
<path fill-rule="evenodd" clip-rule="evenodd" d="M20.1753 13.6632V24.5877L28.8453 19.1262L20.1753 13.6632ZM19.0503 27.7527C18.8628 27.7527 18.6768 27.7047 18.5073 27.6117C18.1473 27.4137 17.9253 27.0372 17.9253 26.6277V11.6247C17.9253 11.2137 18.1473 10.8372 18.5073 10.6392C18.8658 10.4427 19.3053 10.4547 19.6488 10.6722L31.5558 18.1737C31.8843 18.3807 32.0808 18.7392 32.0808 19.1262C32.0808 19.5117 31.8843 19.8717 31.5558 20.0772L19.6488 27.5787C19.4673 27.6942 19.2588 27.7527 19.0503 27.7527Z" fill="black"/>
</g>
</svg>
