<svg width="36" height="36" viewBox="0 0 36 36" fill="none" xmlns="http://www.w3.org/2000/svg">
<path fill-rule="evenodd" clip-rule="evenodd" d="M18.4498 20.2506H31.8748C32.4958 20.2506 32.9998 19.7466 32.9998 19.1256C32.9998 18.5046 32.4958 18.0006 31.8748 18.0006H18.4498C17.8288 18.0006 17.3248 18.5046 17.3248 19.1256C17.3248 19.7466 17.8288 20.2506 18.4498 20.2506Z" fill="black"/>
<mask id="mask0_4_3821" style="mask-type:luminance" maskUnits="userSpaceOnUse" x="5" y="10" width="15" height="18">
<path fill-rule="evenodd" clip-rule="evenodd" d="M19.5747 10.5006H5.41921V27.7521H19.5747V10.5006Z" fill="white"/>
</mask>
<g mask="url(#mask0_4_3821)">
<path fill-rule="evenodd" clip-rule="evenodd" d="M17.3247 13.6632V24.5877L8.65471 19.1262L17.3247 13.6632ZM18.4497 27.7527C18.6372 27.7527 18.8232 27.7047 18.9927 27.6117C19.3527 27.4137 19.5747 27.0372 19.5747 26.6277V11.6247C19.5747 11.2137 19.3527 10.8372 18.9927 10.6392C18.6342 10.4427 18.1947 10.4547 17.8512 10.6722L5.94421 18.1737C5.61571 18.3807 5.41921 18.7392 5.41921 19.1262C5.41921 19.5117 5.61571 19.8717 5.94421 20.0772L17.8512 27.5787C18.0327 27.6942 18.2412 27.7527 18.4497 27.7527Z" fill="black"/>
</g>
</svg>
