<svg width="36" height="36" viewBox="0 0 36 36" fill="none" xmlns="http://www.w3.org/2000/svg">
<path d="M30 18.4115C30 18.981 29.5768 19.4517 29.0277 19.5262L28.875 19.5365L6.375 19.5365C5.75368 19.5365 5.25 19.0328 5.25 18.4115C5.25 17.8419 5.67323 17.3712 6.22234 17.2967L6.375 17.2865L28.875 17.2865C29.4963 17.2865 30 17.7901 30 18.4115Z" fill="black"/>
<path d="M16.2435 26.6508C16.6838 27.0892 16.6853 27.8015 16.2469 28.2418C15.8484 28.6421 15.2235 28.6797 14.7823 28.3539L14.6559 28.2453L5.58093 19.2093C5.17947 18.8095 5.14295 18.1824 5.47138 17.7412L5.58086 17.6149L14.6559 8.57741C15.0961 8.13898 15.8084 8.14045 16.2468 8.5807C16.6454 8.98093 16.6804 9.606 16.3527 10.0457L16.2436 10.1717L7.96951 18.4125L16.2435 26.6508Z" fill="black"/>
</svg>
