<svg width="36" height="36" viewBox="0 0 36 36" fill="none" xmlns="http://www.w3.org/2000/svg">
<path d="M6 17.5885C6 17.019 6.42323 16.5483 6.97234 16.4738L7.125 16.4635H29.625C30.2463 16.4635 30.75 16.9672 30.75 17.5885C30.75 18.1581 30.3268 18.6288 29.7777 18.7033L29.625 18.7135H7.125C6.50368 18.7135 6 18.2099 6 17.5885Z" fill="black"/>
<path d="M19.7565 9.34915C19.3162 8.91076 19.3147 8.19845 19.7531 7.75817C20.1516 7.35791 20.7765 7.32026 21.2177 7.64609L21.3441 7.75474L30.4191 16.7907C30.8205 17.1905 30.857 17.8176 30.5286 18.2588L30.4191 18.3851L21.3441 27.4226C20.9039 27.861 20.1916 27.8595 19.7532 27.4193C19.3546 27.0191 19.3196 26.394 19.6473 25.9543L19.7564 25.8283L28.0305 17.5875L19.7565 9.34915Z" fill="black"/>
</svg>
