<svg width="36" height="36" viewBox="0 0 36 36" fill="none" xmlns="http://www.w3.org/2000/svg">
<path fill-rule="evenodd" clip-rule="evenodd" d="M18 5.25C10.9695 5.25 5.25 10.9695 5.25 18C5.25 25.0305 10.9695 30.75 18 30.75C25.0305 30.75 30.75 25.0305 30.75 18C30.75 10.9695 25.0305 5.25 18 5.25ZM18 33C9.729 33 3 26.271 3 18C3 9.729 9.729 3 18 3C26.271 3 33 9.729 33 18C33 26.271 26.271 33 18 33Z" fill="black"/>
<path fill-rule="evenodd" clip-rule="evenodd" d="M15.8379 24.331C15.5499 24.331 15.2604 24.2215 15.0414 23.9995C14.6034 23.5585 14.6049 22.8476 15.0444 22.4096L19.4724 17.9996L15.0444 13.5911C14.6049 13.1531 14.6034 12.4406 15.0414 11.9996C15.4794 11.5571 16.1904 11.5601 16.6314 11.9966L21.8604 17.2031C22.0719 17.4146 22.1904 17.7011 22.1904 17.9996C22.1904 18.2996 22.0719 18.5861 21.8604 18.7976L16.6314 24.0026C16.4124 24.2215 16.1244 24.331 15.8379 24.331Z" fill="black"/>
</svg>
