<svg width="36" height="36" viewBox="0 0 36 36" fill="none" xmlns="http://www.w3.org/2000/svg">
<path fill-rule="evenodd" clip-rule="evenodd" d="M11.499 30.75C7.704 30.75 5.25 28.1505 5.25 24.126V11.874C5.25 7.8495 7.704 5.25 11.499 5.25H24.5025C28.2975 5.25 30.75 7.8495 30.75 11.874V24.126C30.75 28.1505 28.2975 30.75 24.5025 30.75H11.499ZM24.5025 3H11.499C6.4155 3 3 6.567 3 11.874V24.126C3 29.433 6.4155 33 11.499 33H24.5025C29.586 33 33 29.433 33 24.126V11.874C33 6.567 29.586 3 24.5025 3Z" fill="black"/>
<path fill-rule="evenodd" clip-rule="evenodd" d="M18 10.7462C17.379 10.7462 16.875 11.2502 16.875 11.8712V24.1292C16.875 24.7502 17.379 25.2542 18 25.2542C18.621 25.2542 19.125 24.7502 19.125 24.1292V11.8712C19.125 11.2502 18.621 10.7462 18 10.7462Z" fill="black"/>
<path fill-rule="evenodd" clip-rule="evenodd" d="M18 10.7447C17.7015 10.7447 17.4135 10.8632 17.2035 11.0762L11.5815 16.7222C11.142 17.1632 11.145 17.8757 11.5845 18.3137C12.0255 18.7502 12.7365 18.7532 13.1745 18.3107L18 13.4642L22.8255 18.3107C23.265 18.7532 23.976 18.7502 24.4155 18.3137C24.855 17.8757 24.858 17.1632 24.4185 16.7222L18.7965 11.0762C18.5865 10.8632 18.2985 10.7447 18 10.7447Z" fill="black"/>
</svg>
