<svg width="36" height="36" viewBox="0 0 36 36" fill="none" xmlns="http://www.w3.org/2000/svg">
<path fill-rule="evenodd" clip-rule="evenodd" d="M24.126 5.25C28.1505 5.25 30.75 7.7025 30.75 11.4975V24.501C30.75 28.296 28.1505 30.75 24.126 30.75H11.874C7.8495 30.75 5.25 28.296 5.25 24.501V11.4975C5.25 7.7025 7.8495 5.25 11.874 5.25H24.126ZM11.874 33H24.126C29.433 33 33 29.5845 33 24.501V11.4975C33 6.414 29.433 3 24.126 3H11.874C6.567 3 3 6.414 3 11.4975V24.501C3 29.5845 6.567 33 11.874 33Z" fill="black"/>
<path fill-rule="evenodd" clip-rule="evenodd" d="M11.8712 19.125H24.1292C24.7502 19.125 25.2542 18.621 25.2542 18C25.2542 17.379 24.7502 16.875 24.1292 16.875H11.8712C11.2502 16.875 10.7462 17.379 10.7462 18C10.7462 18.621 11.2502 19.125 11.8712 19.125Z" fill="black"/>
<path fill-rule="evenodd" clip-rule="evenodd" d="M17.5166 24.747C17.8046 24.747 18.0941 24.6375 18.3131 24.4155C18.7511 23.9745 18.7496 23.2635 18.3101 22.8255L13.4651 18L18.3101 13.1745C18.7496 12.7365 18.7511 12.0255 18.3131 11.5845C17.8751 11.1435 17.1641 11.1435 16.7231 11.5815L11.0771 17.2035C10.8641 17.4135 10.7456 17.7015 10.7456 18C10.7456 18.2985 10.8641 18.5865 11.0771 18.7965L16.7231 24.4185C16.9421 24.6375 17.2301 24.747 17.5166 24.747Z" fill="black"/>
</svg>
