<svg width="36" height="36" viewBox="0 0 36 36" fill="none" xmlns="http://www.w3.org/2000/svg">
<path fill-rule="evenodd" clip-rule="evenodd" d="M17.6268 20.1753C17.0058 20.1753 16.5018 19.6713 16.5018 19.0503V5.62531C16.5018 5.00431 17.0058 4.50031 17.6268 4.50031C18.2478 4.50031 18.7518 5.00431 18.7518 5.62531V19.0503C18.7518 19.6713 18.2478 20.1753 17.6268 20.1753Z" fill="black"/>
<mask id="mask0_4_3786" style="mask-type:luminance" maskUnits="userSpaceOnUse" x="9" y="17" width="18" height="16">
<path fill-rule="evenodd" clip-rule="evenodd" d="M9.00012 17.9253H26.2531V32.0801H9.00012V17.9253Z" fill="white"/>
</mask>
<g mask="url(#mask0_4_3786)">
<path fill-rule="evenodd" clip-rule="evenodd" d="M12.1645 20.1753L17.6275 28.8438L23.089 20.1753H12.1645ZM17.6275 32.0808C17.2405 32.0808 16.882 31.8828 16.675 31.5543L9.17345 19.6488C8.95445 19.3038 8.94245 18.8658 9.14045 18.5073C9.33845 18.1473 9.71495 17.9253 10.126 17.9253H25.129C25.5385 17.9253 25.915 18.1473 26.113 18.5073C26.3125 18.8658 26.299 19.3038 26.08 19.6488L18.5785 31.5543C18.373 31.8828 18.013 32.0808 17.6275 32.0808Z" fill="black"/>
</g>
</svg>
