<svg width="36" height="36" viewBox="0 0 36 36" fill="none" xmlns="http://www.w3.org/2000/svg">
<path fill-rule="evenodd" clip-rule="evenodd" d="M17.6268 17.3247C17.0058 17.3247 16.5018 17.8287 16.5018 18.4497V31.8747C16.5018 32.4957 17.0058 32.9997 17.6268 32.9997C18.2478 32.9997 18.7518 32.4957 18.7518 31.8747V18.4497C18.7518 17.8287 18.2478 17.3247 17.6268 17.3247Z" fill="black"/>
<mask id="mask0_4_3814" style="mask-type:luminance" maskUnits="userSpaceOnUse" x="9" y="5" width="18" height="15">
<path fill-rule="evenodd" clip-rule="evenodd" d="M9.00012 19.5747H26.2531V5.41995H9.00012V19.5747Z" fill="white"/>
</mask>
<g mask="url(#mask0_4_3814)">
<path fill-rule="evenodd" clip-rule="evenodd" d="M12.1645 17.3247L17.6275 8.6562L23.089 17.3247H12.1645ZM17.6275 5.4192C17.2405 5.4192 16.882 5.6172 16.675 5.9457L9.17345 17.8512C8.95445 18.1962 8.94245 18.6342 9.14045 18.9927C9.33845 19.3527 9.71495 19.5747 10.126 19.5747H25.129C25.5385 19.5747 25.915 19.3527 26.113 18.9927C26.3125 18.6342 26.299 18.1962 26.08 17.8512L18.5785 5.9457C18.373 5.6172 18.013 5.4192 17.6275 5.4192Z" fill="black"/>
</g>
</svg>
