<svg width="36" height="36" viewBox="0 0 36 36" fill="none" xmlns="http://www.w3.org/2000/svg">
<path fill-rule="evenodd" clip-rule="evenodd" d="M11.499 5.25C7.704 5.25 5.25 7.8495 5.25 11.874V24.126C5.25 28.1505 7.704 30.75 11.499 30.75H24.5025C28.2975 30.75 30.75 28.1505 30.75 24.126V11.874C30.75 7.8495 28.2975 5.25 24.5025 5.25H11.499ZM24.5025 33H11.499C6.4155 33 3 29.433 3 24.126V11.874C3 6.567 6.4155 3 11.499 3H24.5025C29.586 3 33 6.567 33 11.874V24.126C33 29.433 29.586 33 24.5025 33Z" fill="black"/>
<path fill-rule="evenodd" clip-rule="evenodd" d="M18 25.2538C17.379 25.2538 16.875 24.7498 16.875 24.1288V11.8708C16.875 11.2498 17.379 10.7458 18 10.7458C18.621 10.7458 19.125 11.2498 19.125 11.8708V24.1288C19.125 24.7498 18.621 25.2538 18 25.2538Z" fill="black"/>
<path fill-rule="evenodd" clip-rule="evenodd" d="M18 25.2554C17.7015 25.2554 17.4135 25.1369 17.2035 24.9239L11.5815 19.2779C11.142 18.8369 11.145 18.1244 11.5845 17.6864C12.0255 17.2499 12.7365 17.2469 13.1745 17.6894L18 22.5359L22.8255 17.6894C23.265 17.2469 23.976 17.2499 24.4155 17.6864C24.855 18.1244 24.858 18.8369 24.4185 19.2779L18.7965 24.9239C18.5865 25.1369 18.2985 25.2554 18 25.2554Z" fill="black"/>
</svg>
