<svg width="36" height="36" viewBox="0 0 36 36" fill="none" xmlns="http://www.w3.org/2000/svg">
<mask id="mask0_4_3768" style="mask-type:luminance" maskUnits="userSpaceOnUse" x="3" y="9" width="30" height="26">
<path fill-rule="evenodd" clip-rule="evenodd" d="M3 9.81015H32.3788V34.0826H3V9.81015Z" fill="white"/>
</mask>
<g mask="url(#mask0_4_3768)">
<path fill-rule="evenodd" clip-rule="evenodd" d="M10.0733 12.0602C9.4118 12.0602 7.2008 12.3272 6.5663 15.7531L5.4083 24.7531C5.0318 27.2777 5.3228 29.1047 6.2753 30.2102C7.2158 31.3022 8.8988 31.8332 11.4188 31.8332H23.9408C25.5128 31.8332 27.6593 31.5197 28.9553 30.0227C29.9843 28.8362 30.3383 27.0691 30.0083 24.7696L28.8398 15.6917C28.3418 13.4552 27.0278 12.0602 25.3418 12.0602H10.0733ZM23.9408 34.0831H11.4188C8.2043 34.0831 5.9648 33.2957 4.5713 31.6772C3.1718 30.0541 2.7038 27.6196 3.1808 24.4426L4.3448 15.4037C5.1098 11.2592 7.9073 9.81015 10.0733 9.81015H25.3418C27.5168 9.81015 30.1613 11.2547 31.0538 15.3062L32.2373 24.4667C32.6618 27.4231 32.1308 29.7946 30.6563 31.4956C29.1893 33.1877 26.8673 34.0831 23.9408 34.0831Z" fill="black"/>
</g>
<path fill-rule="evenodd" clip-rule="evenodd" d="M24.1467 11.7304C23.5257 11.7304 23.0217 11.2264 23.0217 10.6054C23.0217 7.65195 20.6187 5.25045 17.6667 5.25045H17.6442C16.2327 5.25045 14.8572 5.81895 13.8597 6.81045C12.8577 7.80795 12.2832 9.19245 12.2832 10.6054C12.2832 11.2264 11.7792 11.7304 11.1582 11.7304C10.5372 11.7304 10.0332 11.2264 10.0332 10.6054C10.0332 8.59695 10.8492 6.63345 12.2712 5.21595C13.6887 3.80745 15.6432 3.00045 17.6397 3.00045H17.6712C21.8607 3.00045 25.2717 6.41145 25.2717 10.6054C25.2717 11.2264 24.7677 11.7304 24.1467 11.7304Z" fill="black"/>
<path fill-rule="evenodd" clip-rule="evenodd" d="M22.1149 18.4863H22.0459C21.4249 18.4863 20.9209 17.9823 20.9209 17.3613C20.9209 16.7403 21.4249 16.2363 22.0459 16.2363C22.6669 16.2363 23.2054 16.7403 23.2054 17.3613C23.2054 17.9823 22.7359 18.4863 22.1149 18.4863Z" fill="black"/>
<path fill-rule="evenodd" clip-rule="evenodd" d="M13.3683 18.4863H13.3008C12.6798 18.4863 12.1758 17.9823 12.1758 17.3613C12.1758 16.7403 12.6798 16.2363 13.3008 16.2363C13.9218 16.2363 14.4603 16.7403 14.4603 17.3613C14.4603 17.9823 13.9893 18.4863 13.3683 18.4863Z" fill="black"/>
</svg>
