<svg width="36" height="36" viewBox="0 0 36 36" fill="none" xmlns="http://www.w3.org/2000/svg">
<mask id="mask0_4_2875" style="mask-type:luminance" maskUnits="userSpaceOnUse" x="4" y="3" width="27" height="32">
<path fill-rule="evenodd" clip-rule="evenodd" d="M4.5 3H30.0582V34.2701H4.5V3Z" fill="white"/>
</mask>
<g mask="url(#mask0_4_2875)">
<path fill-rule="evenodd" clip-rule="evenodd" d="M12.5128 5.25C8.68926 5.25 6.74976 6.723 6.74976 9.6315V31.7175C6.74976 31.8585 6.83076 31.935 6.89826 31.974C6.96576 32.016 7.07226 32.046 7.19526 31.977L16.7683 26.607C17.1103 26.4165 17.5288 26.415 17.8723 26.6085L27.3628 31.9695C27.4873 32.0415 27.5938 32.0085 27.6613 31.968C27.7288 31.9275 27.8083 31.851 27.8083 31.71V9.906C27.8083 8.7555 27.8083 5.25 22.0513 5.25H12.5128ZM7.04826 34.2705C6.60576 34.2705 6.16326 34.152 5.76126 33.915C4.97076 33.4545 4.49976 32.631 4.49976 31.7175V9.6315C4.49976 5.4165 7.42026 3 12.5128 3H22.0513C27.1393 3 30.0583 5.5185 30.0583 9.906V31.71C30.0583 32.625 29.5873 33.4485 28.7953 33.909C28.0063 34.371 27.0553 34.38 26.2573 33.93L17.3173 28.8795L8.29476 33.9405C7.90476 34.1595 7.47726 34.2705 7.04826 34.2705Z" fill="black"/>
</g>
<path fill-rule="evenodd" clip-rule="evenodd" d="M22.7094 15.3428H11.7324C11.1114 15.3428 10.6074 14.8388 10.6074 14.2178C10.6074 13.5968 11.1114 13.0928 11.7324 13.0928H22.7094C23.3304 13.0928 23.8344 13.5968 23.8344 14.2178C23.8344 14.8388 23.3304 15.3428 22.7094 15.3428Z" fill="black"/>
</svg>
