<svg width="36" height="36" viewBox="0 0 36 36" fill="none" xmlns="http://www.w3.org/2000/svg">
<path fill-rule="evenodd" clip-rule="evenodd" d="M9.49151 12.5211L10.396 23.2791C10.462 24.1071 11.1385 24.7281 11.965 24.7281H11.971H28.3375H28.3405C29.122 24.7281 29.7895 24.1461 29.9005 23.3736L31.3255 13.5351C31.3585 13.3011 31.3 13.0671 31.1575 12.8781C31.0165 12.6876 30.8095 12.5646 30.5755 12.5316C30.262 12.5436 17.2525 12.5256 9.49151 12.5211ZM11.962 26.9781C9.98651 26.9781 8.31401 25.4361 8.15351 23.4636L6.77951 7.12261L4.51901 6.73261C3.90551 6.62461 3.49601 6.04411 3.60101 5.43061C3.70901 4.81711 4.30151 4.41811 4.90151 4.51411L8.02151 5.05411C8.52401 5.14261 8.90651 5.55961 8.95001 6.06961L9.30251 10.2711C30.7165 10.2801 30.7855 10.2906 30.889 10.3026C31.7245 10.4241 32.4595 10.8606 32.9605 11.5326C33.4615 12.2031 33.6715 13.0296 33.5515 13.8576L32.128 23.6946C31.8595 25.5666 30.2335 26.9781 28.3435 26.9781H28.336H11.974H11.962Z" fill="black"/>
<path fill-rule="evenodd" clip-rule="evenodd" d="M25.9313 18.0656H21.7733C21.1508 18.0656 20.6483 17.5616 20.6483 16.9406C20.6483 16.3196 21.1508 15.8156 21.7733 15.8156H25.9313C26.5523 15.8156 27.0563 16.3196 27.0563 16.9406C27.0563 17.5616 26.5523 18.0656 25.9313 18.0656Z" fill="black"/>
<path fill-rule="evenodd" clip-rule="evenodd" d="M11.3168 31.0529C11.7683 31.0529 12.1328 31.4174 12.1328 31.8689C12.1328 32.3204 11.7683 32.6864 11.3168 32.6864C10.8638 32.6864 10.4993 32.3204 10.4993 31.8689C10.4993 31.4174 10.8638 31.0529 11.3168 31.0529Z" fill="black"/>
<mask id="mask0_4_3759" style="mask-type:luminance" maskUnits="userSpaceOnUse" x="10" y="31" width="3" height="2">
<path fill-rule="evenodd" clip-rule="evenodd" d="M10.4984 31.8682C10.4984 32.3212 10.8629 32.6872 11.3174 32.6872C11.7689 32.6872 12.1334 32.3212 12.1334 31.8682C12.1334 31.4167 11.7689 31.0522 11.3174 31.0522C10.8629 31.0522 10.4984 31.4167 10.4984 31.8682Z" fill="white"/>
</mask>
<g mask="url(#mask0_4_3759)">
<path fill-rule="evenodd" clip-rule="evenodd" d="M2.99988 40.1857H19.6334V23.5522H2.99988V40.1857Z" fill="black"/>
</g>
<path fill-rule="evenodd" clip-rule="evenodd" d="M11.3153 31.5612C11.1458 31.5612 11.0078 31.6992 11.0078 31.8687C11.0078 32.2092 11.6243 32.2092 11.6243 31.8687C11.6243 31.6992 11.4848 31.5612 11.3153 31.5612ZM11.3153 33.8112C10.2443 33.8112 9.37427 32.9397 9.37427 31.8687C9.37427 30.7977 10.2443 29.9277 11.3153 29.9277C12.3863 29.9277 13.2578 30.7977 13.2578 31.8687C13.2578 32.9397 12.3863 33.8112 11.3153 33.8112Z" fill="black"/>
<path fill-rule="evenodd" clip-rule="evenodd" d="M28.2372 31.0529C28.6887 31.0529 29.0547 31.4174 29.0547 31.8689C29.0547 32.3204 28.6887 32.6864 28.2372 32.6864C27.7842 32.6864 27.4197 32.3204 27.4197 31.8689C27.4197 31.4174 27.7842 31.0529 28.2372 31.0529Z" fill="black"/>
<mask id="mask1_4_3759" style="mask-type:luminance" maskUnits="userSpaceOnUse" x="27" y="31" width="3" height="2">
<path fill-rule="evenodd" clip-rule="evenodd" d="M27.4199 31.8682C27.4199 32.3212 27.7844 32.6872 28.2374 32.6872C28.6874 32.6872 29.0549 32.3212 29.0549 31.8682C29.0549 31.4167 28.6874 31.0522 28.2374 31.0522C27.7844 31.0522 27.4199 31.4167 27.4199 31.8682Z" fill="white"/>
</mask>
<g mask="url(#mask1_4_3759)">
<path fill-rule="evenodd" clip-rule="evenodd" d="M19.9199 40.1857H36.5549V23.5522H19.9199V40.1857Z" fill="black"/>
</g>
<path fill-rule="evenodd" clip-rule="evenodd" d="M28.2357 31.5612C28.0677 31.5612 27.9297 31.6992 27.9297 31.8687C27.9312 32.2122 28.5462 32.2092 28.5447 31.8687C28.5447 31.6992 28.4052 31.5612 28.2357 31.5612ZM28.2357 33.8112C27.1647 33.8112 26.2947 32.9397 26.2947 31.8687C26.2947 30.7977 27.1647 29.9277 28.2357 29.9277C29.3082 29.9277 30.1797 30.7977 30.1797 31.8687C30.1797 32.9397 29.3082 33.8112 28.2357 33.8112Z" fill="black"/>
</svg>
