<svg width="36" height="36" viewBox="0 0 36 36" fill="none" xmlns="http://www.w3.org/2000/svg">
<path fill-rule="evenodd" clip-rule="evenodd" d="M30.9998 14.8564H4.26379C3.64279 14.8564 3.13879 14.3524 3.13879 13.7314C3.13879 13.1104 3.64279 12.6064 4.26379 12.6064H30.9998C31.6208 12.6064 32.1248 13.1104 32.1248 13.7314C32.1248 14.3524 31.6208 14.8564 30.9998 14.8564Z" fill="black"/>
<path fill-rule="evenodd" clip-rule="evenodd" d="M24.3018 20.7144C23.6808 20.7144 23.1708 20.2104 23.1708 19.5894C23.1708 18.9684 23.6673 18.4644 24.2883 18.4644H24.3018C24.9228 18.4644 25.4268 18.9684 25.4268 19.5894C25.4268 20.2104 24.9228 20.7144 24.3018 20.7144Z" fill="black"/>
<path fill-rule="evenodd" clip-rule="evenodd" d="M17.6455 20.7144C17.0245 20.7144 16.5145 20.2104 16.5145 19.5894C16.5145 18.9684 17.011 18.4644 17.632 18.4644H17.6455C18.2665 18.4644 18.7705 18.9684 18.7705 19.5894C18.7705 20.2104 18.2665 20.7144 17.6455 20.7144Z" fill="black"/>
<path fill-rule="evenodd" clip-rule="evenodd" d="M10.9754 20.7144C10.3544 20.7144 9.8429 20.2104 9.8429 19.5894C9.8429 18.9684 10.3409 18.4644 10.9619 18.4644H10.9754C11.5964 18.4644 12.1004 18.9684 12.1004 19.5894C12.1004 20.2104 11.5964 20.7144 10.9754 20.7144Z" fill="black"/>
<path fill-rule="evenodd" clip-rule="evenodd" d="M24.3018 26.5444C23.6808 26.5444 23.1708 26.0404 23.1708 25.4194C23.1708 24.7984 23.6673 24.2944 24.2883 24.2944H24.3018C24.9228 24.2944 25.4268 24.7984 25.4268 25.4194C25.4268 26.0404 24.9228 26.5444 24.3018 26.5444Z" fill="black"/>
<path fill-rule="evenodd" clip-rule="evenodd" d="M17.6455 26.5444C17.0245 26.5444 16.5145 26.0404 16.5145 25.4194C16.5145 24.7984 17.011 24.2944 17.632 24.2944H17.6455C18.2665 24.2944 18.7705 24.7984 18.7705 25.4194C18.7705 26.0404 18.2665 26.5444 17.6455 26.5444Z" fill="black"/>
<path fill-rule="evenodd" clip-rule="evenodd" d="M10.9754 26.5444C10.3544 26.5444 9.8429 26.0404 9.8429 25.4194C9.8429 24.7984 10.3409 24.2944 10.9619 24.2944H10.9754C11.5964 24.2944 12.1004 24.7984 12.1004 25.4194C12.1004 26.0404 11.5964 26.5444 10.9754 26.5444Z" fill="black"/>
<path fill-rule="evenodd" clip-rule="evenodd" d="M23.6903 8.6865C23.0693 8.6865 22.5653 8.1825 22.5653 7.5615V2.625C22.5653 2.004 23.0693 1.5 23.6903 1.5C24.3113 1.5 24.8153 2.004 24.8153 2.625V7.5615C24.8153 8.1825 24.3113 8.6865 23.6903 8.6865Z" fill="black"/>
<path fill-rule="evenodd" clip-rule="evenodd" d="M11.573 8.6865C10.952 8.6865 10.448 8.1825 10.448 7.5615V2.625C10.448 2.004 10.952 1.5 11.573 1.5C12.194 1.5 12.698 2.004 12.698 2.625V7.5615C12.698 8.1825 12.194 8.6865 11.573 8.6865Z" fill="black"/>
<mask id="mask0_4_3782" style="mask-type:luminance" maskUnits="userSpaceOnUse" x="3" y="3" width="30" height="31">
<path fill-rule="evenodd" clip-rule="evenodd" d="M3 3.86865H32.25V33.75H3V3.86865Z" fill="white"/>
</mask>
<g mask="url(#mask0_4_3782)">
<path fill-rule="evenodd" clip-rule="evenodd" d="M11.2815 6.11865C7.392 6.11865 5.25 8.19315 5.25 11.9597V25.5332C5.25 29.3822 7.392 31.5002 11.2815 31.5002H23.9685C27.858 31.5002 30 29.4212 30 25.6472V11.9597C30.006 10.1072 29.508 8.66715 28.5195 7.67715C27.5025 6.65715 25.935 6.11865 23.982 6.11865H11.2815ZM23.9685 33.7502H11.2815C6.174 33.7502 3 30.6017 3 25.5332V11.9597C3 6.96765 6.174 3.86865 11.2815 3.86865H23.982C26.5455 3.86865 28.665 4.63665 30.1125 6.08715C31.518 7.49865 32.2575 9.52815 32.25 11.9627V25.6472C32.25 30.6452 29.076 33.7502 23.9685 33.7502Z" fill="black"/>
</g>
</svg>
