<svg width="36" height="35" viewBox="0 0 36 35" fill="none" xmlns="http://www.w3.org/2000/svg">
<path d="M31.1768 4.6952C31.6161 4.26806 32.3284 4.26806 32.7678 4.6952C33.1672 5.0835 33.2035 5.69114 32.8767 6.11932L32.7678 6.242L23.7678 14.992C23.3284 15.4191 22.6161 15.4191 22.1768 14.992C21.7774 14.6037 21.7411 13.9961 22.0679 13.5679L22.1768 13.4452L31.1768 4.6952Z" fill="black"/>
<path d="M22.1768 4.6952C22.5762 4.30689 23.2012 4.27159 23.6416 4.5893L23.7678 4.6952L32.7678 13.4452C33.2071 13.8723 33.2071 14.5649 32.7678 14.992C32.3684 15.3803 31.7434 15.4156 31.303 15.0979L31.1768 14.992L22.1768 6.242C21.7375 5.81486 21.7375 5.12234 22.1768 4.6952Z" fill="black"/>
<path fill-rule="evenodd" clip-rule="evenodd" d="M3.70652 5.58462L3.81534 5.47406C6.70647 2.66298 8.58921 1.91788 10.598 3.04096C11.1759 3.36402 11.7176 3.81622 12.4543 4.54361L14.7138 6.82156C15.9618 8.14557 16.2456 9.41556 15.8392 10.9029L15.7832 11.0998L15.7211 11.2956L15.419 12.1572C14.7725 14.0894 15.0424 15.1796 17.3426 17.4154C19.7347 19.7404 20.8513 19.9306 22.9921 19.2033L23.3736 19.0744L23.8349 18.9287L24.0369 18.8742C25.6629 18.4524 27.0365 18.789 28.4932 20.2043L30.3138 21.9141L30.8498 22.4265C31.4439 23.0156 31.8366 23.4824 32.1267 23.9757C33.2746 25.9282 32.5074 27.7575 29.5329 30.6386L29.2499 30.9174C28.8058 31.3335 28.3909 31.6316 27.7814 31.913C26.7582 32.3853 25.5493 32.5634 24.1447 32.3735C20.6835 31.9055 16.2937 29.2504 10.7313 23.8438C10.2785 23.4037 9.84479 22.9721 9.42981 22.5489L8.62465 21.7134C1.07987 13.744 0.41427 8.84842 3.5062 5.77808L3.70652 5.58462ZM10.6331 5.86619C10.1444 5.39779 9.78938 5.11225 9.47641 4.93728C8.78413 4.55024 8.03668 4.71384 6.65338 5.87137L6.21873 6.24889C6.14291 6.31692 6.06537 6.38755 5.98601 6.46084L5.4876 6.9328L5.44269 6.98735L5.1048 7.31738C4.28827 8.12823 3.9015 9.11785 4.23479 10.8198C4.7817 13.6125 7.28507 17.401 12.322 22.2968C17.5704 27.3981 21.5692 29.8167 24.4547 30.2068C26.1368 30.4342 26.9947 30.0382 27.8698 29.1667L28.537 28.512C28.8499 28.1937 29.1173 27.9051 29.343 27.6415L29.651 27.2643C30.438 26.2451 30.5099 25.6337 30.1733 25.0613C30.0452 24.8435 29.859 24.6047 29.5878 24.3128L29.2199 23.9351L29.0022 23.7233L26.7053 21.567C25.9378 20.8788 25.4133 20.7812 24.6169 20.9878L24.387 21.0521L23.4355 21.3661C20.6754 22.2328 18.6841 21.8125 15.7518 18.9624C12.7149 16.0105 12.3587 14.0393 13.3763 11.2011L13.4415 11.0188L13.6221 10.49L13.7108 10.153C13.8681 9.41947 13.6885 8.90805 12.8775 8.11943C12.8441 8.08697 12.8068 8.05039 12.7661 8.01034L10.6331 5.86619Z" fill="black"/>
</svg>
