<svg width="36" height="35" viewBox="0 0 36 35" fill="none" xmlns="http://www.w3.org/2000/svg">
<mask id="mask0_4_3790" style="mask-type:luminance" maskUnits="userSpaceOnUse" x="21" y="2" width="14" height="14">
<path fill-rule="evenodd" clip-rule="evenodd" d="M21.531 2.91708H34.3395V15.3608H21.531V2.91708Z" fill="white"/>
</mask>
<g mask="url(#mask0_4_3790)">
<path fill-rule="evenodd" clip-rule="evenodd" d="M33.2141 15.3608C32.6486 15.3608 32.1626 14.9481 32.0981 14.3895C31.5296 9.46619 27.5966 5.64535 22.5311 5.09848C21.9146 5.0314 21.4691 4.49181 21.5381 3.89098C21.6056 3.2916 22.1561 2.84973 22.7801 2.92556C28.8971 3.58619 33.6476 8.19889 34.3331 14.1445C34.4021 14.7454 33.9581 15.2864 33.3416 15.3535C33.2996 15.3579 33.2561 15.3608 33.2141 15.3608Z" fill="black"/>
</g>
<path fill-rule="evenodd" clip-rule="evenodd" d="M27.9039 15.3765C27.3759 15.3765 26.9064 15.0149 26.8014 14.4928C26.3694 12.3344 24.6579 10.6705 22.4409 10.2519C21.8304 10.1367 21.4329 9.5636 21.5514 8.97006C21.6699 8.37652 22.2699 7.9886 22.8699 8.10527C25.9914 8.69443 28.4019 11.0365 29.0094 14.0728C29.1279 14.6678 28.7304 15.2409 28.1214 15.3561C28.0479 15.3692 27.9759 15.3765 27.9039 15.3765Z" fill="black"/>
<path fill-rule="evenodd" clip-rule="evenodd" d="M4.93308 5.96146L5.0419 5.85089C7.93303 3.03981 9.81577 2.29471 11.8246 3.41779C12.4024 3.74085 12.9442 4.19305 13.6808 4.92044L15.9404 7.19839C17.1884 8.5224 17.4721 9.7924 17.0657 11.2797L17.0098 11.4766L16.9476 11.6724L16.6456 12.534C15.999 14.4663 16.269 15.5565 18.5692 17.7922C20.9612 20.1172 22.0778 20.3075 24.2186 19.5801L24.6001 19.4512L25.0615 19.3055L25.2634 19.2511C26.8895 18.8293 28.263 19.1659 29.7198 20.5812L31.5404 22.2909L32.0763 22.8034C32.6705 23.3925 33.0632 23.8592 33.3533 24.3525C34.5012 26.305 33.734 28.1343 30.7595 31.0154L30.4765 31.2942C30.0324 31.7103 29.6175 32.0084 29.0079 32.2898C27.9847 32.7621 26.7759 32.9402 25.3713 32.7503C21.9101 32.2823 17.5202 29.6272 11.9578 24.2207C11.505 23.7806 11.0714 23.349 10.6564 22.9257L9.85121 22.0903C2.30644 14.1208 1.64083 9.22525 4.73276 6.15491L4.93308 5.96146ZM11.8596 6.24302C11.3709 5.77462 11.0159 5.48908 10.703 5.31411C10.0107 4.92707 9.26324 5.09067 7.87994 6.2482L7.44529 6.62572C7.36948 6.69375 7.29193 6.76439 7.21257 6.83767L6.71416 7.30963L6.66926 7.36418L6.33136 7.69422C5.51484 8.50507 5.12806 9.49468 5.46136 11.1966C6.00827 13.9893 8.51163 17.7779 13.5486 22.6737C18.7969 27.7749 22.7957 30.1935 25.6812 30.5836C27.3633 30.8111 28.2213 30.415 29.0963 29.5435L29.7636 28.8888C30.0765 28.5705 30.3439 28.2819 30.5696 28.0184L30.8776 27.6411C31.6645 26.622 31.7364 26.0106 31.3999 25.4381C31.2718 25.2203 31.0855 24.9815 30.8143 24.6896L30.4465 24.3119L30.2288 24.1001L27.9319 21.9438C27.1644 21.2557 26.6398 21.1581 25.8435 21.3646L25.6135 21.4289L24.6621 21.7429C21.9019 22.6096 19.9107 22.1893 16.9784 19.3392C13.9414 16.3874 13.5853 14.4162 14.6028 11.578L14.6681 11.3956L14.8486 10.8668L14.9373 10.5298C15.0947 9.7963 14.9151 9.28488 14.104 8.49626C14.0706 8.4638 14.0333 8.42722 13.9927 8.38717L11.8596 6.24302Z" fill="black"/>
</svg>
