<svg width="36" height="35" viewBox="0 0 36 35" fill="none" xmlns="http://www.w3.org/2000/svg">
<mask id="mask0_4_3798" style="mask-type:luminance" maskUnits="userSpaceOnUse" x="3" y="2" width="14" height="21">
<path fill-rule="evenodd" clip-rule="evenodd" d="M3 2.91739H16.943V22.0274H3V2.91739Z" fill="white"/>
</mask>
<g mask="url(#mask0_4_3798)">
<path fill-rule="evenodd" clip-rule="evenodd" d="M10.0879 22.0274C9.77741 22.0274 9.46691 21.902 9.24491 21.657C1.23191 12.8311 2.38091 8.26072 4.75691 5.97989C4.78091 5.95072 4.86341 5.87197 4.88891 5.84572C6.99491 3.7676 8.43491 2.91739 9.84041 2.91739H9.88391C11.5504 2.93781 12.7279 4.16135 14.2189 5.71156C14.5849 6.09218 14.9839 6.50489 15.4249 6.94093C17.5699 9.06864 16.9609 10.8011 16.4704 12.1924C16.1164 13.2001 15.8074 14.0722 16.3684 15.3132C16.6189 15.8674 16.3609 16.5134 15.7924 16.7555C15.2194 16.9976 14.5579 16.7468 14.3089 16.1941C13.3954 14.1684 13.9414 12.6168 14.3419 11.4836C14.7754 10.2543 14.9929 9.63739 13.8199 8.4751C13.3654 8.02593 12.9544 7.59864 12.5749 7.20635C11.4064 5.9901 10.5604 5.11218 9.85541 5.10489H9.84341C9.14291 5.10489 8.04641 5.84864 6.49241 7.38135C6.49391 7.37843 6.49691 7.37697 6.49691 7.37697C6.49991 7.37697 6.42941 7.44843 6.33791 7.53593C3.12491 10.6218 7.83641 16.8007 10.9309 20.2103C11.3419 20.6624 11.2984 21.3536 10.8319 21.7547C10.6189 21.937 10.3534 22.0274 10.0879 22.0274Z" fill="black"/>
</g>
<path fill-rule="evenodd" clip-rule="evenodd" d="M26.9442 33.2754C23.5077 33.2754 19.1007 30.7394 13.8387 25.7329C13.3947 25.31 13.3857 24.6173 13.8207 24.1871C14.2572 23.754 14.9697 23.7481 15.4122 24.1696C21.5007 29.9635 25.0587 31.171 27.0417 31.0865C28.4892 31.0573 29.1732 30.3442 29.5017 30.0029C29.5932 29.9081 29.6652 29.8381 29.7192 29.7915C31.2087 28.3098 31.9602 27.219 31.9512 26.5131C31.9407 25.7942 31.0482 24.9513 29.8122 23.7831C29.4207 23.4142 28.9977 23.0146 28.5492 22.5713C27.3987 21.4308 26.8287 21.6292 25.5762 22.0696C24.0342 22.6092 21.9192 23.3529 18.8487 20.8971C18.3672 20.5135 18.2967 19.8238 18.6927 19.3585C19.0857 18.8904 19.7997 18.8233 20.2752 19.2083C22.3617 20.8679 23.4402 20.4888 24.8142 20.0104C26.1552 19.5408 27.9927 18.9021 30.1557 21.0371C30.5907 21.4688 31.0017 21.8567 31.3797 22.2154C32.9442 23.6927 34.1787 24.8594 34.1997 26.4869C34.2192 27.8752 33.3657 29.2942 31.2627 31.3825L31.1189 31.5241L31.1908 31.4533C30.7363 31.9258 29.4852 33.2229 27.0927 33.274C27.0417 33.2754 26.9922 33.2754 26.9442 33.2754Z" fill="black"/>
<path fill-rule="evenodd" clip-rule="evenodd" d="M6.95911 32.6658C6.68311 32.6658 6.40711 32.5681 6.18961 32.3697C5.73661 31.957 5.71411 31.2643 6.13861 30.8239L28.6386 7.49058C29.0616 7.0487 29.7756 7.02683 30.2286 7.44099C30.6816 7.8537 30.7041 8.54641 30.2796 8.98683L7.77961 32.3202C7.55761 32.5506 7.25911 32.6658 6.95911 32.6658Z" fill="black"/>
</svg>
