<svg width="36" height="36" viewBox="0 0 36 36" fill="none" xmlns="http://www.w3.org/2000/svg">
<path fill-rule="evenodd" clip-rule="evenodd" d="M10.791 7.24725C11.3939 6.15146 12.0498 5.41894 13.0231 5.03155C14.8066 4.32238 21.1942 4.32238 22.9763 5.0317C23.949 5.41887 24.6052 6.15126 25.2086 7.24683L25.8869 8.54756C25.9024 8.57333 25.9167 8.59599 25.9295 8.61549L25.9871 8.69425C26.2962 9.03101 26.8134 9.23445 27.1547 9.23445C30.3828 9.23445 33.0002 11.8513 33.0002 15.0784V23.7709C33.0002 27.8873 29.6616 31.2259 25.5452 31.2259H10.4552C6.3379 31.2259 3.00024 27.8877 3.00024 23.7709V15.0784C3.00024 11.8513 5.61771 9.23445 8.84574 9.23445C9.18591 9.23445 9.70386 9.03071 10.0134 8.69425C10.0196 8.68752 10.0277 8.67748 10.0374 8.6642L10.1146 8.54587L10.791 7.24725ZM23.2377 8.33232C22.8628 7.65156 22.5239 7.27333 22.1442 7.12219L21.9652 7.06269C20.4215 6.62637 15.0519 6.6462 13.8548 7.12219C13.4752 7.27325 13.1368 7.65128 12.7623 8.3319L12.185 9.44805L12.0429 9.70519C11.9243 9.90248 11.8056 10.069 11.6702 10.2166C10.9105 11.0424 9.78662 11.4844 8.84574 11.4844L8.5996 11.4927C6.72887 11.6192 5.25024 13.1768 5.25024 15.0784V23.7709C5.25024 26.6452 7.58062 28.9759 10.4552 28.9759H25.5452C28.4189 28.9759 30.7502 26.6446 30.7502 23.7709V15.0784C30.7502 13.0941 29.1402 11.4844 27.1547 11.4844L26.8936 11.4735C26.0108 11.4009 25.0192 10.9672 24.3294 10.2156C24.1957 10.07 24.0777 9.90463 23.9598 9.709C23.9429 9.68094 23.9219 9.64399 23.8977 9.60028L23.7236 9.27366L23.2377 8.33232Z" fill="black"/>
<path d="M26.2567 12.75C27.0851 12.75 27.7567 13.4216 27.7567 14.25C27.7567 15.0193 27.1776 15.6533 26.4316 15.7399L26.2567 15.75C25.4147 15.75 24.7432 15.0784 24.7432 14.25C24.7432 13.4807 25.3222 12.8467 26.0682 12.7601L26.2567 12.75Z" fill="black"/>
<path fill-rule="evenodd" clip-rule="evenodd" d="M12.1063 19.692C12.1063 16.4367 14.7445 13.7985 17.9998 13.7985C21.2551 13.7985 23.8933 16.4367 23.8933 19.692C23.8933 22.9473 21.2551 25.5855 17.9998 25.5855C14.7445 25.5855 12.1063 22.9473 12.1063 19.692ZM21.6433 19.692C21.6433 17.6793 20.0125 16.0485 17.9998 16.0485C15.9871 16.0485 14.3563 17.6793 14.3563 19.692C14.3563 21.7047 15.9871 23.3355 17.9998 23.3355C20.0125 23.3355 21.6433 21.7047 21.6433 19.692Z" fill="black"/>
</svg>
