<svg width="36" height="36" viewBox="0 0 36 36" fill="none" xmlns="http://www.w3.org/2000/svg">
<path fill-rule="evenodd" clip-rule="evenodd" d="M9.375 5.25C5.25 5.25 5.25 5.562 5.25 9.375V9.4125C5.25 11.073 5.25 12.273 5.6565 12.78C6.054 13.272 7.2345 13.5 9.375 13.5C11.5155 13.5 12.696 13.2705 13.0935 12.7785C13.5 12.273 13.5 11.073 13.5 9.411C13.5 5.562 13.5 5.25 9.375 5.25ZM9.375 15.75C6.846 15.75 4.9485 15.4845 3.906 14.19C3 13.0665 3 11.5335 3 9.4125L4.125 9.375H3C3 5.07 3.2715 3 9.375 3C15.4785 3 15.75 5.07 15.75 9.375C15.75 11.532 15.75 13.0665 14.844 14.19C13.8015 15.4845 11.904 15.75 9.375 15.75Z" fill="black"/>
<path fill-rule="evenodd" clip-rule="evenodd" d="M25.875 5.25C21.75 5.25 21.75 5.562 21.75 9.375V9.4125C21.75 11.073 21.75 12.273 22.1565 12.78C22.554 13.272 23.7345 13.5 25.875 13.5C28.0155 13.5 29.196 13.2705 29.5935 12.7785C30 12.273 30 11.073 30 9.411C30 5.562 30 5.25 25.875 5.25ZM25.875 15.75C23.346 15.75 21.4485 15.4845 20.406 14.19C19.5 13.0665 19.5 11.5335 19.5 9.4125L20.625 9.375H19.5C19.5 5.07 19.7715 3 25.875 3C31.9785 3 32.25 5.07 32.25 9.375C32.25 11.532 32.25 13.0665 31.344 14.19C30.3015 15.4845 28.404 15.75 25.875 15.75Z" fill="black"/>
<path fill-rule="evenodd" clip-rule="evenodd" d="M9.375 21.75C5.25 21.75 5.25 22.062 5.25 25.875V25.9125C5.25 27.573 5.25 28.773 5.6565 29.28C6.054 29.772 7.2345 30 9.375 30C11.5155 30 12.696 29.7705 13.0935 29.2785C13.5 28.773 13.5 27.573 13.5 25.911C13.5 22.062 13.5 21.75 9.375 21.75ZM9.375 32.25C6.846 32.25 4.9485 31.9845 3.906 30.69C3 29.5665 3 28.0335 3 25.9125L4.125 25.875H3C3 21.57 3.2715 19.5 9.375 19.5C15.4785 19.5 15.75 21.57 15.75 25.875C15.75 28.032 15.75 29.5665 14.844 30.69C13.8015 31.9845 11.904 32.25 9.375 32.25Z" fill="black"/>
<path fill-rule="evenodd" clip-rule="evenodd" d="M25.875 21.75C21.75 21.75 21.75 22.062 21.75 25.875V25.9125C21.75 27.573 21.75 28.773 22.1565 29.28C22.554 29.772 23.7345 30 25.875 30C28.0155 30 29.196 29.7705 29.5935 29.2785C30 28.773 30 27.573 30 25.911C30 22.062 30 21.75 25.875 21.75ZM25.875 32.25C23.346 32.25 21.4485 31.9845 20.406 30.69C19.5 29.5665 19.5 28.0335 19.5 25.9125L20.625 25.875H19.5C19.5 21.57 19.7715 19.5 25.875 19.5C31.9785 19.5 32.25 21.57 32.25 25.875C32.25 28.032 32.25 29.5665 31.344 30.69C30.3015 31.9845 28.404 32.25 25.875 32.25Z" fill="black"/>
</svg>
