<svg width="36" height="36" viewBox="0 0 36 36" fill="none" xmlns="http://www.w3.org/2000/svg">
<path fill-rule="evenodd" clip-rule="evenodd" d="M10.6816 26.3437C10.0606 26.3437 9.55664 25.8397 9.55664 25.2187V14.9287C9.55664 14.3077 10.0606 13.8037 10.6816 13.8037C11.3026 13.8037 11.8066 14.3077 11.8066 14.9287V25.2187C11.8066 25.8397 11.3026 26.3437 10.6816 26.3437Z" fill="black"/>
<path fill-rule="evenodd" clip-rule="evenodd" d="M17.6821 26.3422C17.0611 26.3422 16.5571 25.8382 16.5571 25.2172V10.0028C16.5571 9.38175 17.0611 8.87775 17.6821 8.87775C18.3031 8.87775 18.8071 9.38175 18.8071 10.0028V25.2172C18.8071 25.8382 18.3031 26.3422 17.6821 26.3422Z" fill="black"/>
<path fill-rule="evenodd" clip-rule="evenodd" d="M24.5676 26.3422C23.9466 26.3422 23.4426 25.8382 23.4426 25.2172V20.3662C23.4426 19.7452 23.9466 19.2412 24.5676 19.2412C25.1886 19.2412 25.6926 19.7452 25.6926 20.3662V25.2172C25.6926 25.8382 25.1886 26.3422 24.5676 26.3422Z" fill="black"/>
<path fill-rule="evenodd" clip-rule="evenodd" d="M10.596 3.75C6.438 3.75 3.75 6.5955 3.75 11.0025V24.2475C3.75 28.6545 6.438 31.5 10.596 31.5H24.654C28.8135 31.5 31.5 28.6545 31.5 24.2475V11.0025C31.5 6.5955 28.8135 3.75 24.654 3.75H10.596ZM24.654 33.75H10.596C5.1555 33.75 1.5 29.931 1.5 24.2475V11.0025C1.5 5.319 5.1555 1.5 10.596 1.5H24.654C30.0945 1.5 33.75 5.319 33.75 11.0025V24.2475C33.75 29.931 30.0945 33.75 24.654 33.75Z" fill="black"/>
</svg>
