<svg width="36" height="36" viewBox="0 0 36 36" fill="none" xmlns="http://www.w3.org/2000/svg">
<mask id="mask0_4_2883" style="mask-type:luminance" maskUnits="userSpaceOnUse" x="1" y="1" width="33" height="33">
<path fill-rule="evenodd" clip-rule="evenodd" d="M1.5 1.50043H33.7395V33.7411H1.5V1.50043Z" fill="white"/>
</mask>
<g mask="url(#mask0_4_2883)">
<path fill-rule="evenodd" clip-rule="evenodd" d="M9.16266 29.5129C10.0327 29.5129 10.8532 29.8429 11.7217 30.1924C17.0422 32.6524 23.3347 31.5334 27.4342 27.4354C32.8432 22.0234 32.8432 13.2199 27.4342 7.81093C24.8152 5.19193 21.3322 3.75043 17.6242 3.75043C13.9147 3.75043 10.4302 5.19343 7.81266 7.81243C3.71166 11.9104 2.59566 18.2029 5.03316 23.4724C5.38416 24.3409 5.72316 25.1869 5.72316 26.0659C5.72316 26.9434 5.42166 27.8269 5.15616 28.6069C4.93716 29.2489 4.60566 30.2179 4.81866 30.4309C5.02716 30.6469 6.00216 30.3064 6.64566 30.0859C7.41816 29.8219 8.29416 29.5189 9.16266 29.5129ZM17.5867 33.7414C15.2947 33.7414 12.9877 33.2569 10.8292 32.2579C10.1932 32.0029 9.59766 31.7629 9.17016 31.7629C8.67816 31.7659 8.01666 31.9939 7.37766 32.2144C6.06666 32.6644 4.43466 33.2254 3.22716 32.0224C2.02416 30.8179 2.57916 29.1904 3.02616 27.8809C3.24666 27.2359 3.47316 26.5699 3.47316 26.0659C3.47316 25.6519 3.27366 25.1239 2.96766 24.3634C0.158156 18.2959 1.45716 10.9834 6.22266 6.22093C9.26466 3.17743 13.3132 1.50043 17.6227 1.50043C21.9322 1.50043 25.9822 3.17593 29.0242 6.21943C35.3122 12.5074 35.3122 22.7374 29.0242 29.0254C25.9417 32.1094 21.7912 33.7414 17.5867 33.7414Z" fill="black"/>
</g>
<path fill-rule="evenodd" clip-rule="evenodd" d="M23.5445 19.7445C22.7165 19.7445 22.0385 19.074 22.0385 18.2445C22.0385 17.415 22.703 16.7445 23.531 16.7445H23.5445C24.3725 16.7445 25.0445 17.415 25.0445 18.2445C25.0445 19.074 24.3725 19.7445 23.5445 19.7445Z" fill="black"/>
<path fill-rule="evenodd" clip-rule="evenodd" d="M17.5313 19.7445C16.7033 19.7445 16.0253 19.074 16.0253 18.2445C16.0253 17.415 16.6883 16.7445 17.5178 16.7445H17.5313C18.3593 16.7445 19.0313 17.415 19.0313 18.2445C19.0313 19.074 18.3593 19.7445 17.5313 19.7445Z" fill="black"/>
<path fill-rule="evenodd" clip-rule="evenodd" d="M11.5175 19.7445C10.6895 19.7445 10.0115 19.074 10.0115 18.2445C10.0115 17.415 10.676 16.7445 11.504 16.7445H11.5175C12.3455 16.7445 13.0175 17.415 13.0175 18.2445C13.0175 19.074 12.3455 19.7445 11.5175 19.7445Z" fill="black"/>
</svg>
