<svg width="36" height="36" viewBox="0 0 36 36" fill="none" xmlns="http://www.w3.org/2000/svg">
<path fill-rule="evenodd" clip-rule="evenodd" d="M14.4038 22.705C14.1158 22.705 13.8278 22.5955 13.6088 22.375C13.1693 21.9355 13.1693 21.2246 13.6088 20.7851L20.7968 13.5971C21.2363 13.1576 21.9473 13.1576 22.3868 13.5971C22.8263 14.0366 22.8263 14.7476 22.3868 15.1871L15.1988 22.375C14.9798 22.5955 14.6918 22.705 14.4038 22.705Z" fill="black"/>
<path fill-rule="evenodd" clip-rule="evenodd" d="M21.5947 22.7094C21.3067 22.7094 21.0187 22.5999 20.7997 22.3794L13.6057 15.1839C13.1662 14.7444 13.1662 14.0334 13.6057 13.5939C14.0467 13.1544 14.7577 13.1544 15.1957 13.5939L22.3897 20.7894C22.8292 21.2289 22.8292 21.9399 22.3897 22.3794C22.1707 22.5999 21.8812 22.7094 21.5947 22.7094Z" fill="black"/>
<path fill-rule="evenodd" clip-rule="evenodd" d="M11.4975 5.25C7.7025 5.25 5.25 7.8495 5.25 11.874V24.126C5.25 28.1505 7.7025 30.75 11.4975 30.75H24.4995C28.296 30.75 30.75 28.1505 30.75 24.126V11.874C30.75 7.8495 28.296 5.25 24.501 5.25H11.4975ZM24.4995 33H11.4975C6.414 33 3 29.433 3 24.126V11.874C3 6.567 6.414 3 11.4975 3H24.501C29.5845 3 33 6.567 33 11.874V24.126C33 29.433 29.5845 33 24.4995 33Z" fill="black"/>
</svg>
