<svg width="36" height="36" viewBox="0 0 36 36" fill="none" xmlns="http://www.w3.org/2000/svg">
<path fill-rule="evenodd" clip-rule="evenodd" d="M18 5.25C10.9695 5.25 5.25 10.9695 5.25 18C5.25 25.0305 10.9695 30.75 18 30.75C25.0305 30.75 30.75 25.0305 30.75 18C30.75 10.9695 25.0305 5.25 18 5.25ZM18 33C9.729 33 3 26.271 3 18C3 9.729 9.729 3 18 3C26.271 3 33 9.729 33 18C33 26.271 26.271 33 18 33Z" fill="black"/>
<path fill-rule="evenodd" clip-rule="evenodd" d="M17.9912 20.0595C17.3702 20.0595 16.8662 19.5555 16.8662 18.9345V12.306C16.8662 11.685 17.3702 11.181 17.9912 11.181C18.6122 11.181 19.1162 11.685 19.1162 12.306V18.9345C19.1162 19.5555 18.6122 20.0595 17.9912 20.0595Z" fill="black"/>
<path fill-rule="evenodd" clip-rule="evenodd" d="M18.0058 25.1938C17.1763 25.1938 16.4983 24.5233 16.4983 23.6938C16.4983 22.8643 17.1628 22.1938 17.9908 22.1938H18.0058C18.8353 22.1938 19.5058 22.8643 19.5058 23.6938C19.5058 24.5233 18.8353 25.1938 18.0058 25.1938Z" fill="black"/>
</svg>
