<svg width="36" height="36" viewBox="0 0 36 36" fill="none" xmlns="http://www.w3.org/2000/svg">
<mask id="mask0_4_3760" style="mask-type:luminance" maskUnits="userSpaceOnUse" x="3" y="4" width="31" height="28">
<path fill-rule="evenodd" clip-rule="evenodd" d="M3 4.5H33.0206V31.7782H3V4.5Z" fill="white"/>
</mask>
<g mask="url(#mask0_4_3760)">
<path fill-rule="evenodd" clip-rule="evenodd" d="M18.019 6.75C17.305 6.75 16.669 7.119 16.312 7.7385L5.51503 26.586C5.16403 27.201 5.16703 27.9345 5.52253 28.548C5.87803 29.1615 6.51403 29.529 7.22353 29.529H28.798C29.506 29.529 30.142 29.1615 30.4975 28.548C30.8545 27.9345 30.8575 27.201 30.5035 26.586L19.726 7.7385C19.3705 7.119 18.7345 6.75 18.019 6.75ZM28.798 31.779H7.22353C5.70253 31.779 4.33903 30.993 3.57553 29.676C2.81203 28.3605 2.80753 26.787 3.56203 25.4685L14.362 6.6195C15.121 5.292 16.4875 4.5 18.019 4.5H18.0205C19.5505 4.5 20.92 5.2935 21.679 6.6225L32.458 25.4685C33.2125 26.787 33.208 28.3605 32.4445 29.676C31.681 30.993 30.3175 31.779 28.798 31.779Z" fill="black"/>
</g>
<path fill-rule="evenodd" clip-rule="evenodd" d="M18.0059 21.246C17.3849 21.246 16.8809 20.742 16.8809 20.121V15.471C16.8809 14.85 17.3849 14.346 18.0059 14.346C18.6269 14.346 19.1309 14.85 19.1309 15.471V20.121C19.1309 20.742 18.6269 21.246 18.0059 21.246Z" fill="black"/>
<path fill-rule="evenodd" clip-rule="evenodd" d="M18.0088 26.2485C17.1793 26.2485 16.5013 25.578 16.5013 24.7485C16.5013 23.919 17.1658 23.2485 17.9938 23.2485H18.0088C18.8383 23.2485 19.5088 23.919 19.5088 24.7485C19.5088 25.578 18.8383 26.2485 18.0088 26.2485Z" fill="black"/>
</svg>
