<svg width="36" height="36" viewBox="0 0 36 36" fill="none" xmlns="http://www.w3.org/2000/svg">
<path fill-rule="evenodd" clip-rule="evenodd" d="M18.3699 33C16.3374 33 14.3559 32.9775 12.3954 32.937C9.8874 32.8875 8.1519 31.2615 7.8684 28.6935C7.3959 24.4335 6.5874 14.3925 6.5799 14.292C6.5289 13.6725 6.9909 13.1295 7.6104 13.08C8.2209 13.0635 8.7729 13.4925 8.8224 14.1105C8.8299 14.2125 9.6369 24.219 10.1049 28.446C10.2654 29.9055 11.0529 30.6585 12.4419 30.687C16.1919 30.7665 20.0184 30.771 24.1434 30.696C25.6194 30.6675 26.4174 29.9295 26.5824 28.4355C27.0474 24.2445 27.8574 14.2125 27.8664 14.1105C27.9159 13.4925 28.4634 13.0605 29.0769 13.08C29.6964 13.131 30.1584 13.6725 30.1089 14.292C30.0999 14.394 29.2869 24.4605 28.8189 28.683C28.5279 31.3035 26.7969 32.898 24.1839 32.946C22.1844 32.9805 20.2554 33 18.3699 33Z" fill="black"/>
<path fill-rule="evenodd" clip-rule="evenodd" d="M31.062 10.4839H5.625C5.004 10.4839 4.5 9.97995 4.5 9.35895C4.5 8.73795 5.004 8.23395 5.625 8.23395H31.062C31.683 8.23395 32.187 8.73795 32.187 9.35895C32.187 9.97995 31.683 10.4839 31.062 10.4839Z" fill="black"/>
<path fill-rule="evenodd" clip-rule="evenodd" d="M26.1606 10.4839C24.4536 10.4839 22.9716 9.26745 22.6356 7.59345L22.2711 5.76945C22.1946 5.49195 21.8781 5.25045 21.5181 5.25045H15.1686C14.8086 5.25045 14.4921 5.49195 14.4006 5.83845L14.0511 7.59345C13.7166 9.26745 12.2331 10.4839 10.5261 10.4839C9.90512 10.4839 9.40112 9.97995 9.40112 9.35895C9.40112 8.73795 9.90512 8.23395 10.5261 8.23395C11.1651 8.23395 11.7201 7.77795 11.8461 7.15095L12.2106 5.32695C12.5811 3.92895 13.7916 3.00045 15.1686 3.00045H21.5181C22.8951 3.00045 24.1056 3.92895 24.4611 5.25945L24.8421 7.15095C24.9666 7.77795 25.5216 8.23395 26.1606 8.23395C26.7816 8.23395 27.2856 8.73795 27.2856 9.35895C27.2856 9.97995 26.7816 10.4839 26.1606 10.4839Z" fill="black"/>
</svg>
