<svg width="36" height="36" viewBox="0 0 36 36" fill="none" xmlns="http://www.w3.org/2000/svg">
<path fill-rule="evenodd" clip-rule="evenodd" d="M16.8171 16.8179L15.2466 21.8384L20.2656 20.2664L21.8376 15.2459L16.8171 16.8179ZM13.5306 24.6779C13.2366 24.6779 12.9486 24.5624 12.7341 24.3494C12.4386 24.0524 12.3306 23.6159 12.4566 23.2184L14.8461 15.5849C14.9556 15.2309 15.2316 14.9564 15.5826 14.8469L23.2161 12.4574C23.6166 12.3299 24.0516 12.4394 24.3486 12.7349C24.6441 13.0319 24.7521 13.4684 24.6261 13.8659L22.2381 21.4994C22.1286 21.8519 21.8511 22.1279 21.5001 22.2374L13.8666 24.6269C13.7556 24.6614 13.6416 24.6779 13.5306 24.6779Z" fill="black"/>
<mask id="mask0_4_3779" style="mask-type:luminance" maskUnits="userSpaceOnUse" x="3" y="3" width="32" height="32">
<path fill-rule="evenodd" clip-rule="evenodd" d="M3 3H34.0827V34.0826H3V3Z" fill="white"/>
</mask>
<g mask="url(#mask0_4_3779)">
<path fill-rule="evenodd" clip-rule="evenodd" d="M18.5413 5.25C11.2123 5.25 5.24976 11.214 5.24976 18.5415C5.24976 25.8705 11.2123 31.833 18.5413 31.833C25.8703 31.833 31.8328 25.8705 31.8328 18.5415C31.8328 11.214 25.8703 5.25 18.5413 5.25ZM18.5413 34.083C9.97176 34.083 2.99976 27.111 2.99976 18.5415C2.99976 9.972 9.97176 3 18.5413 3C27.1108 3 34.0828 9.972 34.0828 18.5415C34.0828 27.111 27.1108 34.083 18.5413 34.083Z" fill="black"/>
</g>
</svg>
