<svg width="36" height="36" viewBox="0 0 36 36" fill="none" xmlns="http://www.w3.org/2000/svg">
<mask id="mask0_4_3766" style="mask-type:luminance" maskUnits="userSpaceOnUse" x="3" y="3" width="31" height="31">
<path fill-rule="evenodd" clip-rule="evenodd" d="M3.00024 3.00031H33.0044V33.0018H3.00024V3.00031Z" fill="white"/>
</mask>
<g mask="url(#mask0_4_3766)">
<path fill-rule="evenodd" clip-rule="evenodd" d="M16.4173 30.1133C17.3023 30.9773 18.7273 30.9668 19.6063 30.0833L20.6893 29.0033C21.5293 28.1648 22.6903 27.6863 23.8738 27.6863H25.4188C26.6698 27.6863 27.6868 26.6693 27.6868 25.4198V23.8763C27.6868 22.6748 28.1518 21.5453 29.0008 20.6948L30.0808 19.6133C30.5203 19.1723 30.7558 18.6008 30.7543 17.9948C30.7528 17.3903 30.5143 16.8218 30.0838 16.3928L29.0023 15.3098C28.1518 14.4533 27.6868 13.3253 27.6868 12.1238V10.5833C27.6868 9.33226 26.6698 8.31526 25.4188 8.31526H23.8768C22.6753 8.31526 21.5458 7.84876 20.6953 7.00426L19.6123 5.91976C18.7108 5.02726 17.2723 5.03176 16.3918 5.91826L15.3133 6.99976C14.4523 7.85026 13.3228 8.31526 12.1258 8.31526H10.5823C9.33283 8.31676 8.31583 9.33376 8.31583 10.5833V12.1208C8.31583 13.3223 7.84933 14.4518 7.00333 15.3038L5.93833 16.3703C5.92783 16.3823 5.91733 16.3913 5.90683 16.4018C5.02633 17.2883 5.03083 18.7268 5.91733 19.6073L7.00033 20.6903C7.84933 21.5423 8.31583 22.6718 8.31583 23.8733V25.4198C8.31583 26.6693 9.33133 27.6863 10.5823 27.6863H12.1228C13.3258 27.6878 14.4553 28.1543 15.3058 29.0018L16.3873 30.0803C16.3963 30.0908 16.4068 30.1013 16.4173 30.1133ZM17.9983 33.0023C16.8478 33.0023 15.6973 32.5673 14.8168 31.6943C14.8048 31.6823 14.7928 31.6703 14.7808 31.6568L13.7158 30.5933C13.2913 30.1718 12.7243 29.9378 12.1213 29.9363H10.5823C8.09083 29.9363 6.06583 27.9098 6.06583 25.4198V23.8733C6.06583 23.2703 5.83033 22.7048 5.40733 22.2788L4.32883 21.2018C2.57683 19.4588 2.55583 16.6208 4.27633 14.8508C4.28983 14.8373 4.30333 14.8238 4.31683 14.8103L5.40883 13.7153C5.83033 13.2908 6.06583 12.7223 6.06583 12.1208V10.5833C6.06583 8.09326 8.09083 6.06676 10.5808 6.06526H12.1258C12.7273 6.06526 13.2943 5.82976 13.7248 5.40526L14.7973 4.32976C16.5508 2.56426 19.4173 2.55526 21.1858 4.31326L22.2823 5.40976C22.7068 5.83126 23.2738 6.06526 23.8768 6.06526H25.4188C27.9103 6.06526 29.9368 8.09176 29.9368 10.5833V12.1238C29.9368 12.7253 30.1708 13.2938 30.5953 13.7213L31.6723 14.7998C32.5258 15.6473 32.9998 16.7798 33.0043 17.9873C33.0088 19.1948 32.5423 20.3303 31.6918 21.1868L30.5923 22.2833C30.1708 22.7078 29.9368 23.2733 29.9368 23.8763V25.4198C29.9368 27.9098 27.9103 29.9363 25.4203 29.9363H23.8738C23.2798 29.9363 22.6993 30.1763 22.2778 30.5948L21.2008 31.6718C20.3203 32.5583 19.1593 33.0023 17.9983 33.0023Z" fill="black"/>
</g>
<path fill-rule="evenodd" clip-rule="evenodd" d="M14.1454 22.9822C13.8574 22.9822 13.5694 22.8727 13.3504 22.6522C12.9109 22.2127 12.9109 21.5017 13.3504 21.0622L21.0604 13.3507C21.4999 12.9112 22.2124 12.9112 22.6519 13.3507C23.0914 13.7902 23.0914 14.5027 22.6519 14.9422L14.9404 22.6522C14.7214 22.8727 14.4334 22.9822 14.1454 22.9822Z" fill="black"/>
<path fill-rule="evenodd" clip-rule="evenodd" d="M21.7552 23.2488C20.9257 23.2488 20.2477 22.5783 20.2477 21.7488C20.2477 20.9193 20.9122 20.2488 21.7417 20.2488H21.7552C22.5847 20.2488 23.2552 20.9193 23.2552 21.7488C23.2552 22.5783 22.5847 23.2488 21.7552 23.2488Z" fill="black"/>
<path fill-rule="evenodd" clip-rule="evenodd" d="M14.2552 15.7488C13.4257 15.7488 12.7477 15.0783 12.7477 14.2488C12.7477 13.4193 13.4122 12.7488 14.2417 12.7488H14.2552C15.0847 12.7488 15.7552 13.4193 15.7552 14.2488C15.7552 15.0783 15.0847 15.7488 14.2552 15.7488Z" fill="black"/>
</svg>
