<svg width="36" height="36" viewBox="0 0 36 36" fill="none" xmlns="http://www.w3.org/2000/svg">
<path fill-rule="evenodd" clip-rule="evenodd" d="M23.5737 25.4605H12.7437C12.1227 25.4605 11.6187 24.9565 11.6187 24.3355C11.6187 23.7145 12.1227 23.2105 12.7437 23.2105H23.5737C24.1947 23.2105 24.6987 23.7145 24.6987 24.3355C24.6987 24.9565 24.1947 25.4605 23.5737 25.4605Z" fill="black"/>
<path fill-rule="evenodd" clip-rule="evenodd" d="M23.5737 19.1808H12.7437C12.1227 19.1808 11.6187 18.6768 11.6187 18.0558C11.6187 17.4348 12.1227 16.9308 12.7437 16.9308H23.5737C24.1947 16.9308 24.6987 17.4348 24.6987 18.0558C24.6987 18.6768 24.1947 19.1808 23.5737 19.1808Z" fill="black"/>
<path fill-rule="evenodd" clip-rule="evenodd" d="M16.8758 12.9156H12.7433C12.1223 12.9156 11.6183 12.4116 11.6183 11.7906C11.6183 11.1696 12.1223 10.6656 12.7433 10.6656H16.8758C17.4968 10.6656 18.0008 11.1696 18.0008 11.7906C18.0008 12.4116 17.4968 12.9156 16.8758 12.9156Z" fill="black"/>
<mask id="mask0_4_3764" style="mask-type:luminance" maskUnits="userSpaceOnUse" x="4" y="3" width="28" height="30">
<path fill-rule="evenodd" clip-rule="evenodd" d="M4.5 3.0003H31.747V32.865H4.5V3.0003Z" fill="white"/>
</mask>
<g mask="url(#mask0_4_3764)">
<path fill-rule="evenodd" clip-rule="evenodd" d="M23.863 5.25L12.3295 5.256C8.83751 5.277 6.74951 7.437 6.74951 11.0355V24.8295C6.74951 28.452 8.85701 30.615 12.3835 30.615L23.917 30.6105C27.409 30.5895 29.497 28.4265 29.497 24.8295V11.0355C29.497 7.413 27.391 5.25 23.863 5.25ZM12.385 32.865C7.66901 32.865 4.49951 29.6355 4.49951 24.8295V11.0355C4.49951 6.186 7.57001 3.0345 12.322 3.006L23.8615 3H23.863C28.579 3 31.747 6.2295 31.747 11.0355V24.8295C31.747 29.6775 28.6765 32.8305 23.9245 32.8605L12.385 32.865Z" fill="black"/>
</g>
</svg>
