<svg width="36" height="36" viewBox="0 0 36 36" fill="none" xmlns="http://www.w3.org/2000/svg">
<path fill-rule="evenodd" clip-rule="evenodd" d="M18.0015 24.8117C17.3805 24.8117 16.8765 24.3077 16.8765 23.6867V5.62515C16.8765 5.00415 17.3805 4.50015 18.0015 4.50015C18.6225 4.50015 19.1265 5.00415 19.1265 5.62515V23.6867C19.1265 24.3077 18.6225 24.8117 18.0015 24.8117Z" fill="black"/>
<path fill-rule="evenodd" clip-rule="evenodd" d="M18.0015 24.8117C17.703 24.8117 17.415 24.6932 17.205 24.4802L12.831 20.0897C12.393 19.6487 12.3945 18.9362 12.834 18.4982C13.275 18.0602 13.986 18.0602 14.424 18.5012L18.0015 22.0937L21.579 18.5012C22.017 18.0602 22.728 18.0602 23.169 18.4982C23.6085 18.9362 23.61 19.6487 23.172 20.0897L18.798 24.4802C18.588 24.6932 18.3 24.8117 18.0015 24.8117Z" fill="black"/>
<mask id="mask0_4_2932" style="mask-type:luminance" maskUnits="userSpaceOnUse" x="3" y="11" width="30" height="22">
<path fill-rule="evenodd" clip-rule="evenodd" d="M3.00024 11.5989H32.9999V32.2149H3.00024V11.5989Z" fill="white"/>
</mask>
<g mask="url(#mask0_4_2932)">
<path fill-rule="evenodd" clip-rule="evenodd" d="M26.3627 32.2149H9.65274C5.98524 32.2149 3.00024 29.2314 3.00024 25.5624V18.2349C3.00024 14.5749 5.97774 11.5989 9.63925 11.5989H11.0507C11.6717 11.5989 12.1757 12.1029 12.1757 12.7239C12.1757 13.3449 11.6717 13.8489 11.0507 13.8489H9.63925C7.21824 13.8489 5.25024 15.8154 5.25024 18.2349V25.5624C5.25024 27.9909 7.22424 29.9649 9.65274 29.9649H26.3627C28.7807 29.9649 30.7502 27.9954 30.7502 25.5774V18.2514C30.7502 15.8229 28.7747 13.8489 26.3492 13.8489H24.9512C24.3302 13.8489 23.8262 13.3449 23.8262 12.7239C23.8262 12.1029 24.3302 11.5989 24.9512 11.5989H26.3492C30.0167 11.5989 33.0002 14.5839 33.0002 18.2514V25.5774C33.0002 29.2374 30.0212 32.2149 26.3627 32.2149Z" fill="black"/>
</g>
</svg>
