<svg width="36" height="36" viewBox="0 0 36 36" fill="none" xmlns="http://www.w3.org/2000/svg">
<path fill-rule="evenodd" clip-rule="evenodd" d="M24.8656 33.553H11.6296C6.46812 33.553 3.00012 29.9305 3.00012 24.5395V12.0685C3.00012 6.67754 6.46812 3.05504 11.6296 3.05504H17.2381C17.8591 3.05504 18.3631 3.55904 18.3631 4.18004C18.3631 4.80104 17.8591 5.30504 17.2381 5.30504H11.6296C7.75362 5.30504 5.25012 7.96004 5.25012 12.0685V24.5395C5.25012 28.648 7.75362 31.303 11.6296 31.303H24.8656C28.7416 31.303 31.2466 28.648 31.2466 24.5395V18.4975C31.2466 17.8765 31.7506 17.3725 32.3716 17.3725C32.9926 17.3725 33.4966 17.8765 33.4966 18.4975V24.5395C33.4966 29.9305 30.0271 33.553 24.8656 33.553Z" fill="black"/>
<path fill-rule="evenodd" clip-rule="evenodd" d="M13.3015 23.1424H17.767C18.337 23.1424 18.871 22.9219 19.2745 22.5184L30.538 11.2549C31 10.7929 31.255 10.1779 31.255 9.52394C31.255 8.86844 31 8.25194 30.538 7.78994L28.7125 5.96444C27.757 5.01194 26.203 5.01194 25.246 5.96444L14.0365 17.1739C13.648 17.5624 13.4275 18.0784 13.414 18.6259L13.3015 23.1424ZM17.767 25.3924H12.148C11.845 25.3924 11.554 25.2694 11.3425 25.0519C11.131 24.8359 11.0155 24.5434 11.023 24.2389L11.164 18.5704C11.1925 17.4424 11.647 16.3819 12.445 15.5824H12.4465L23.656 4.37294C25.489 2.54294 28.4696 2.54294 30.3026 4.37294L32.1281 6.19844C33.0176 7.08644 33.5065 8.26694 33.5051 9.52394C33.5051 10.7809 33.0161 11.9599 32.1281 12.8464L20.8645 24.1099C20.038 24.9364 18.937 25.3924 17.767 25.3924Z" fill="black"/>
<path fill-rule="evenodd" clip-rule="evenodd" d="M29.5964 14.8749C29.3084 14.8749 29.0204 14.7654 28.8014 14.5449L21.9524 7.69589C21.5129 7.25639 21.5129 6.54389 21.9524 6.10439C22.3919 5.66489 23.1029 5.66489 23.5424 6.10439L30.3914 12.9549C30.8309 13.3944 30.8309 14.1054 30.3914 14.5449C30.1724 14.7654 29.8844 14.8749 29.5964 14.8749Z" fill="black"/>
</svg>
