<svg width="36" height="35" viewBox="0 0 36 35" fill="none" xmlns="http://www.w3.org/2000/svg">
<path fill-rule="evenodd" clip-rule="evenodd" d="M31.1262 31.9954H20.2467C19.6257 31.9954 19.1217 31.5054 19.1217 30.9016C19.1217 30.2979 19.6257 29.8079 20.2467 29.8079H31.1262C31.7472 29.8079 32.2512 30.2979 32.2512 30.9016C32.2512 31.5054 31.7472 31.9954 31.1262 31.9954Z" fill="black"/>
<mask id="mask0_4_3807" style="mask-type:luminance" maskUnits="userSpaceOnUse" x="3" y="4" width="26" height="28">
<path fill-rule="evenodd" clip-rule="evenodd" d="M3.00049 4.37523H28.7714V31.9954H3.00049V4.37523Z" fill="white"/>
</mask>
<g mask="url(#mask0_4_3807)">
<path fill-rule="evenodd" clip-rule="evenodd" d="M19.6659 7.31617L5.5434 24.488C5.2869 24.8001 5.1924 25.2026 5.2869 25.5891L6.3084 29.7964L10.8669 29.741C11.3004 29.7366 11.7009 29.5485 11.9664 29.2276C16.7919 23.3578 25.9914 12.1666 26.2524 11.8385C26.4984 11.4505 26.5944 10.9022 26.4654 10.3743C26.3334 9.83325 25.9869 9.37387 25.4874 9.08075C25.3809 9.00929 22.8534 7.10179 22.7754 7.042C21.8244 6.30117 20.4369 6.4295 19.6659 7.31617ZM5.4204 31.9955C4.8999 31.9955 4.4469 31.6485 4.3254 31.1541L3.0969 26.0922C2.8434 25.0437 3.0954 23.9616 3.7869 23.1216L17.9169 5.9395C17.9229 5.93367 17.9274 5.92637 17.9334 5.92054C19.4829 4.1195 22.2849 3.85408 24.1749 5.32846C24.2499 5.38533 26.7594 7.28117 26.7594 7.28117C27.6714 7.80908 28.3839 8.75262 28.6539 9.86971C28.9224 10.9751 28.7274 12.1155 28.1019 13.0795C28.0554 13.151 28.0149 13.2122 13.7229 30.5955C13.0344 31.4297 12.0024 31.9153 10.8939 31.9285L5.4354 31.9955H5.4204Z" fill="black"/>
</g>
<path fill-rule="evenodd" clip-rule="evenodd" d="M24.3351 17.0403C24.0951 17.0403 23.8551 16.966 23.6496 16.8143L15.4716 10.7068C14.9796 10.3393 14.8866 9.65387 15.2646 9.17262C15.6441 8.69429 16.3491 8.60533 16.8426 8.97283L25.0221 15.0789C25.5141 15.4464 25.6071 16.1332 25.2276 16.613C25.0071 16.893 24.6726 17.0403 24.3351 17.0403Z" fill="black"/>
</svg>
