<svg width="36" height="36" viewBox="0 0 36 36" fill="none" xmlns="http://www.w3.org/2000/svg">
<path fill-rule="evenodd" clip-rule="evenodd" d="M15.1202 27.8892H5.6687C5.0477 27.8892 4.5437 27.3852 4.5437 26.7642C4.5437 26.1432 5.0477 25.6392 5.6687 25.6392H15.1202C15.7412 25.6392 16.2452 26.1432 16.2452 26.7642C16.2452 27.3852 15.7412 27.8892 15.1202 27.8892Z" fill="black"/>
<path fill-rule="evenodd" clip-rule="evenodd" d="M28.7863 13.3506H19.3363C18.7153 13.3506 18.2113 12.8466 18.2113 12.2256C18.2113 11.6046 18.7153 11.1006 19.3363 11.1006H28.7863C29.4073 11.1006 29.9113 11.6046 29.9113 12.2256C29.9113 12.8466 29.4073 13.3506 28.7863 13.3506Z" fill="black"/>
<mask id="mask0_4_3789" style="mask-type:luminance" maskUnits="userSpaceOnUse" x="4" y="7" width="10" height="10">
<path fill-rule="evenodd" clip-rule="evenodd" d="M4.5 7.5006H13.8387V16.788H4.5V7.5006Z" fill="white"/>
</mask>
<g mask="url(#mask0_4_3789)">
<path fill-rule="evenodd" clip-rule="evenodd" d="M9.16926 9.75C7.83576 9.75 6.74976 10.824 6.74976 12.1455C6.74976 13.4655 7.83576 14.538 9.16926 14.538C10.5043 14.538 11.5888 13.4655 11.5888 12.1455C11.5888 10.824 10.5043 9.75 9.16926 9.75ZM9.16926 16.788C6.59526 16.788 4.49976 14.706 4.49976 12.1455C4.49976 9.585 6.59526 7.5 9.16926 7.5C11.7448 7.5 13.8388 9.585 13.8388 12.1455C13.8388 14.706 11.7448 16.788 9.16926 16.788Z" fill="black"/>
</g>
<path fill-rule="evenodd" clip-rule="evenodd" d="M26.0815 24.312C24.7465 24.312 23.6605 25.386 23.6605 26.706C23.6605 28.0275 24.7465 29.1 26.0815 29.1C27.415 29.1 28.4995 28.0275 28.4995 26.706C28.4995 25.386 27.415 24.312 26.0815 24.312ZM26.0815 31.35C23.506 31.35 21.4105 29.2665 21.4105 26.706C21.4105 24.1455 23.506 22.062 26.0815 22.062C28.6555 22.062 30.7495 24.1455 30.7495 26.706C30.7495 29.2665 28.6555 31.35 26.0815 31.35Z" fill="black"/>
</svg>
