<svg width="36" height="36" viewBox="0 0 36 36" fill="none" xmlns="http://www.w3.org/2000/svg">
<mask id="mask0_4_3794" style="mask-type:luminance" maskUnits="userSpaceOnUse" x="3" y="3" width="30" height="30">
<path fill-rule="evenodd" clip-rule="evenodd" d="M3.00061 3H32.25V32.251H3.00061V3Z" fill="white"/>
</mask>
<g mask="url(#mask0_4_3794)">
<path fill-rule="evenodd" clip-rule="evenodd" d="M13.1601 17.3981C13.1871 17.4221 13.2126 17.4446 13.2381 17.4716C14.8566 19.1306 15.7491 21.3281 15.7491 23.6606V29.6366L19.1031 27.8096C19.3671 27.6656 19.5306 27.3836 19.5306 27.0731V23.6426C19.5306 21.3191 20.4141 19.1291 22.0176 17.4791L29.2731 9.76156C29.7426 9.26206 30.0006 8.60656 30.0006 7.91506V6.51106C30.0006 5.81506 29.4516 5.24956 28.7796 5.24956H6.47311C5.79961 5.24956 5.25061 5.81506 5.25061 6.51106V7.91506C5.25061 8.60656 5.50861 9.26206 5.97811 9.76006L13.1601 17.3981ZM15.2196 32.2511C14.9166 32.2511 14.6166 32.1701 14.3436 32.0081C13.8156 31.6931 13.4991 31.1366 13.4991 30.5186V23.6606C13.4991 21.9581 12.8646 20.3546 11.7081 19.1261C11.6736 19.0976 11.6391 19.0661 11.6091 19.0331L4.34011 11.3036C3.47611 10.3856 3.00061 9.18106 3.00061 7.91506V6.51106C3.00061 4.57456 4.55911 2.99956 6.47311 2.99956H28.7796C30.6921 2.99956 32.2506 4.57456 32.2506 6.51106V7.91506C32.2506 9.17956 31.7751 10.3826 30.9141 11.3021L23.6436 19.0331C22.4391 20.2751 21.7806 21.9086 21.7806 23.6426V27.0731C21.7806 28.2071 21.1671 29.2451 20.1801 29.7851L16.0386 32.0411C15.7806 32.1806 15.5001 32.2511 15.2196 32.2511Z" fill="black"/>
</g>
</svg>
