<svg width="36" height="36" viewBox="0 0 36 36" fill="none" xmlns="http://www.w3.org/2000/svg">
<mask id="mask0_4_2869" style="mask-type:luminance" maskUnits="userSpaceOnUse" x="3" y="3" width="32" height="32">
<path fill-rule="evenodd" clip-rule="evenodd" d="M3 3H34.0449V34.0033H3V3Z" fill="white"/>
</mask>
<g mask="url(#mask0_4_2869)">
<path fill-rule="evenodd" clip-rule="evenodd" d="M11.4639 5.25C7.10789 5.25 5.24939 7.464 5.24939 12.6495V24.348C5.24939 29.124 7.88639 31.7535 12.6744 31.7535H24.3474C29.1234 31.7535 31.7529 29.124 31.7529 24.348V24.3435L31.7949 16.896C31.7949 11.7975 30.0459 9.81 25.5534 9.81H21.3084C19.8849 9.8085 18.5259 9.129 17.6709 7.992L16.3014 6.171C15.8709 5.5935 15.1824 5.2515 14.4624 5.25H11.4639ZM24.3474 34.0035H12.6744C6.70739 34.0035 2.99939 30.303 2.99939 24.348V12.6495C2.99939 6.246 5.84789 3 11.4639 3H14.4639C15.8904 3.0015 17.2494 3.6825 18.1014 4.821L19.4679 6.639C19.9014 7.215 20.5899 7.5585 21.3099 7.56H25.5534C31.3464 7.56 34.0449 10.5285 34.0449 16.902L34.0029 24.3525C34.0014 30.3045 30.3024 34.0035 24.3474 34.0035Z" fill="black"/>
</g>
<path fill-rule="evenodd" clip-rule="evenodd" d="M25.0737 23.5692H11.9712C11.3502 23.5692 10.8462 23.0652 10.8462 22.4442C10.8462 21.8232 11.3502 21.3192 11.9712 21.3192H25.0737C25.6947 21.3192 26.1987 21.8232 26.1987 22.4442C26.1987 23.0652 25.6947 23.5692 25.0737 23.5692Z" fill="black"/>
</svg>
