<svg width="36" height="36" viewBox="0 0 36 36" fill="none" xmlns="http://www.w3.org/2000/svg">
<path fill-rule="evenodd" clip-rule="evenodd" d="M12.8971 24.8394C12.2761 24.8394 11.7721 24.3354 11.7721 23.7144V18.0969C11.7721 17.4759 12.2761 16.9719 12.8971 16.9719C13.5181 16.9719 14.0221 17.4759 14.0221 18.0969V23.7144C14.0221 24.3354 13.5181 24.8394 12.8971 24.8394Z" fill="black"/>
<path fill-rule="evenodd" clip-rule="evenodd" d="M15.7631 22.0297H10.0316C9.41062 22.0297 8.90662 21.5257 8.90662 20.9047C8.90662 20.2837 9.41062 19.7797 10.0316 19.7797H15.7631C16.3841 19.7797 16.8881 20.2837 16.8881 20.9047C16.8881 21.5257 16.3841 22.0297 15.7631 22.0297Z" fill="black"/>
<path fill-rule="evenodd" clip-rule="evenodd" d="M22.6743 19.3931H22.5138C21.8928 19.3931 21.3888 18.8891 21.3888 18.2681C21.3888 17.6471 21.8928 17.1431 22.5138 17.1431H22.6743C23.2953 17.1431 23.7993 17.6471 23.7993 18.2681C23.7993 18.8891 23.2953 19.3931 22.6743 19.3931Z" fill="black"/>
<path fill-rule="evenodd" clip-rule="evenodd" d="M25.3945 24.7543H25.234C24.613 24.7543 24.109 24.2503 24.109 23.6293C24.109 23.0083 24.613 22.5043 25.234 22.5043H25.3945C26.0155 22.5043 26.5195 23.0083 26.5195 23.6293C26.5195 24.2503 26.0155 24.7543 25.3945 24.7543Z" fill="black"/>
<mask id="mask0_4_3773" style="mask-type:luminance" maskUnits="userSpaceOnUse" x="10" y="1" width="10" height="9">
<path fill-rule="evenodd" clip-rule="evenodd" d="M10.6077 1.5H19.6677V9.88185H10.6077V1.5Z" fill="white"/>
</mask>
<g mask="url(#mask0_4_3773)">
<path fill-rule="evenodd" clip-rule="evenodd" d="M18.5427 9.88185C17.9217 9.88185 17.4177 9.37785 17.4177 8.75685V7.74435C17.4132 6.65835 16.4922 5.76585 15.3657 5.76135H13.7847C12.0342 5.76135 10.6077 4.35435 10.6077 2.62485C10.6077 2.00385 11.1117 1.49985 11.7327 1.49985C12.3552 1.49985 12.8577 2.00385 12.8577 2.62485C12.8577 3.11385 13.2732 3.51135 13.7847 3.51135H15.3702C17.7297 3.51885 19.6572 5.41485 19.6677 7.73835V8.75685C19.6677 9.37785 19.1637 9.88185 18.5427 9.88185Z" fill="black"/>
</g>
<mask id="mask1_4_3773" style="mask-type:luminance" maskUnits="userSpaceOnUse" x="1" y="8" width="33" height="26">
<path fill-rule="evenodd" clip-rule="evenodd" d="M1.50024 8.05988H33.7499V33.75H1.50024V8.05988Z" fill="white"/>
</mask>
<g mask="url(#mask1_4_3773)">
<path fill-rule="evenodd" clip-rule="evenodd" d="M17.5517 10.3095C15.3377 10.3095 13.1507 10.329 11.0027 10.365C6.79224 10.365 3.75024 13.332 3.75024 17.418V24.393C3.75024 28.4775 6.79224 31.4445 10.9847 31.4445C15.4052 31.518 19.8617 31.518 24.2477 31.4445H24.2672C28.4582 31.4445 31.5002 28.4775 31.5002 24.393V17.418C31.5002 13.332 28.4582 10.365 24.2672 10.365C22.0112 10.329 19.7687 10.3095 17.5517 10.3095ZM17.6312 33.75C15.4067 33.75 13.1792 33.7305 10.9652 33.6945C5.48874 33.6945 1.50024 29.781 1.50024 24.393V17.418C1.50024 12.0285 5.48874 8.115 10.9847 8.115C15.2882 8.0415 19.7702 8.0415 24.2852 8.115C29.7617 8.115 33.7502 12.0285 33.7502 17.418V24.393C33.7502 29.778 29.7677 33.69 24.2762 33.6945C22.0742 33.7305 19.8542 33.75 17.6312 33.75Z" fill="black"/>
</g>
</svg>
