<svg width="36" height="36" viewBox="0 0 36 36" fill="none" xmlns="http://www.w3.org/2000/svg">
<path fill-rule="evenodd" clip-rule="evenodd" d="M13.4736 9.45525C13.4256 9.45525 13.3776 9.46125 13.3296 9.47325C8.87461 10.5698 5.25061 15.3968 5.25061 20.2328C5.25061 26.3168 10.2006 31.2668 16.2861 31.2668C21.7716 31.2668 26.3556 27.3593 27.1866 21.9743C27.1926 21.9293 27.2136 21.7988 27.0906 21.6533C26.9736 21.5168 26.7876 21.4358 26.5926 21.4358C24.4761 21.4358 22.8606 21.4838 21.5991 21.5198C18.5451 21.6113 17.2821 21.6458 16.0341 20.7203C14.1531 19.3268 13.9941 16.9328 13.9941 9.89175C13.9941 9.76575 13.9401 9.66075 13.8321 9.57675C13.7316 9.49725 13.6041 9.45525 13.4736 9.45525ZM16.2861 33.5168C8.96011 33.5168 3.00061 27.5573 3.00061 20.2328C3.00061 14.4248 7.39261 8.61675 12.7911 7.28775C13.6341 7.08225 14.5401 7.27425 15.2211 7.80525C15.8706 8.31525 16.2441 9.07575 16.2441 9.89175C16.2441 16.4693 16.4661 18.2393 17.3736 18.9128C17.9691 19.3523 18.7851 19.3478 21.5346 19.2713C22.8126 19.2338 24.4491 19.1858 26.5926 19.1858C27.4476 19.1858 28.2531 19.5518 28.7991 20.1893C29.3061 20.7818 29.5281 21.5558 29.4111 22.3178C28.4091 28.8053 22.8891 33.5168 16.2861 33.5168Z" fill="black"/>
<mask id="mask0_4_2873" style="mask-type:luminance" maskUnits="userSpaceOnUse" x="18" y="1" width="17" height="16">
<path fill-rule="evenodd" clip-rule="evenodd" d="M18.7111 1.50073H34.3395V16.9347H18.7111V1.50073Z" fill="white"/>
</mask>
<g mask="url(#mask0_4_2873)">
<path fill-rule="evenodd" clip-rule="evenodd" d="M21.0162 3.75267C20.8512 7.53117 21.0957 12.4122 21.2097 14.3457C21.2157 14.4612 21.2997 14.5452 21.4137 14.5512C22.9557 14.6397 28.2687 14.8857 32.0892 14.3232C32.0982 12.2172 30.6567 9.36117 28.4862 7.19217C26.2602 4.96917 23.6262 3.75267 21.0492 3.75267H21.0162ZM25.9722 16.9347C24.0072 16.9347 22.2777 16.8552 21.2832 16.7982C20.0322 16.7247 19.0362 15.7272 18.9642 14.4762C18.8472 12.4932 18.5937 7.45467 18.7737 3.55767C18.8232 2.42517 19.7382 1.52367 20.8572 1.50417C24.0627 1.41117 27.3702 2.89917 30.0762 5.60067C32.7132 8.23617 34.3872 11.6997 34.3392 14.4252C34.3212 15.4887 33.5487 16.3767 32.5047 16.5342C30.4677 16.8417 28.0827 16.9347 25.9722 16.9347Z" fill="black"/>
</g>
</svg>
