<svg width="36" height="36" viewBox="0 0 36 36" fill="none" xmlns="http://www.w3.org/2000/svg">
<mask id="mask0_4_2885" style="mask-type:luminance" maskUnits="userSpaceOnUse" x="3" y="4" width="31" height="30">
<path fill-rule="evenodd" clip-rule="evenodd" d="M3 4.49988H33.7088V33.7514H3V4.49988Z" fill="white"/>
</mask>
<g mask="url(#mask0_4_2885)">
<path fill-rule="evenodd" clip-rule="evenodd" d="M5.73557 18.1846C7.83857 24.7276 16.1471 30.0181 18.3551 31.3276C20.5706 30.0046 28.9391 24.6556 30.9746 18.1906C32.3111 14.0116 31.0706 8.71805 26.1416 7.12955C23.7536 6.36305 20.9681 6.82955 19.0451 8.31755C18.6431 8.62655 18.0851 8.63256 17.6801 8.32656C15.6431 6.79505 12.9821 6.34655 10.5566 7.12955C5.63507 8.71656 4.39907 14.0101 5.73557 18.1846ZM18.3566 33.7516C18.1706 33.7516 17.9861 33.7066 17.8181 33.6151C17.3486 33.3586 6.28907 27.2626 3.59357 18.8716C3.59207 18.8716 3.59207 18.8701 3.59207 18.8701C1.90007 13.5871 3.78407 6.94806 9.86657 4.98756C12.7226 4.06356 15.8351 4.47006 18.3521 6.05856C20.7911 4.51656 24.0311 4.09056 26.8301 4.98756C32.9186 6.95106 34.8086 13.5886 33.1181 18.8701C30.5096 27.1651 19.3691 33.3526 18.8966 33.6121C18.7286 33.7051 18.5426 33.7516 18.3566 33.7516Z" fill="black"/>
</g>
<path fill-rule="evenodd" clip-rule="evenodd" d="M27.2305 15.9374C26.65 15.9374 26.158 15.4919 26.11 14.9039C26.011 13.6709 25.186 12.6299 24.0115 12.2504C23.419 12.0584 23.095 11.4239 23.2855 10.8344C23.479 10.2434 24.1075 9.92241 24.7015 10.1084C26.746 10.7699 28.1785 12.5804 28.354 14.7209C28.4035 15.3404 27.943 15.8834 27.3235 15.9329C27.292 15.9359 27.262 15.9374 27.2305 15.9374Z" fill="black"/>
</svg>
