<svg width="36" height="36" viewBox="0 0 36 36" fill="none" xmlns="http://www.w3.org/2000/svg">
<path fill-rule="evenodd" clip-rule="evenodd" d="M14.6412 23.4258C14.3532 23.4258 14.0652 23.3163 13.8462 23.0958C12.7392 21.9903 12.1287 20.5203 12.1287 18.9573C12.1287 15.7173 14.7627 13.0818 17.9997 13.0818C19.5567 13.0818 21.0687 13.7103 22.1472 14.8068C22.5822 15.2508 22.5777 15.9618 22.1337 16.3968C21.6912 16.8348 20.9802 16.8273 20.5437 16.3863C19.8852 15.7158 18.9582 15.3318 17.9997 15.3318C16.0032 15.3318 14.3787 16.9578 14.3787 18.9573C14.3787 19.9188 14.7552 20.8248 15.4362 21.5058C15.8757 21.9453 15.8757 22.6563 15.4377 23.0958C15.2172 23.3163 14.9292 23.4258 14.6412 23.4258Z" fill="black"/>
<path fill-rule="evenodd" clip-rule="evenodd" d="M18.8511 24.7368C18.3186 24.7368 17.8446 24.3558 17.7456 23.8128C17.6346 23.2023 18.0396 22.6158 18.6516 22.5048C20.1216 22.2378 21.2856 21.0708 21.5496 19.5993C21.6606 18.9888 22.2456 18.5868 22.8561 18.6918C23.4681 18.8013 23.8746 19.3863 23.7651 19.9983C23.3346 22.3878 21.4416 24.2838 19.0536 24.7188C18.9861 24.7308 18.9171 24.7368 18.8511 24.7368Z" fill="black"/>
<mask id="mask0_4_3811" style="mask-type:luminance" maskUnits="userSpaceOnUse" x="3" y="6" width="25" height="23">
<path fill-rule="evenodd" clip-rule="evenodd" d="M3 6.93671H27.1294V28.0839H3V6.93671Z" fill="white"/>
</mask>
<g mask="url(#mask0_4_3811)">
<path fill-rule="evenodd" clip-rule="evenodd" d="M9.98163 28.0839C9.73863 28.0839 9.49413 28.0044 9.28713 27.8439C6.75063 25.8519 4.60713 22.9314 3.09213 19.4004C2.96913 19.1154 2.96913 18.7944 3.09213 18.5109C4.62363 14.9649 6.78063 12.0294 9.33063 10.0239C14.5296 5.9094 21.4506 5.8959 26.7021 10.0539C27.1896 10.4394 27.2721 11.1474 26.8866 11.6349C26.4996 12.1194 25.7946 12.2049 25.3056 11.8179C20.8566 8.2959 15.1251 8.3079 10.7241 11.7909C8.57013 13.4859 6.72063 15.9549 5.35563 18.9579C6.70713 21.9429 8.54013 24.3969 10.6776 26.0739C11.1666 26.4579 11.2506 27.1659 10.8666 27.6534C10.6446 27.9354 10.3146 28.0839 9.98163 28.0839Z" fill="black"/>
</g>
<mask id="mask1_4_3811" style="mask-type:luminance" maskUnits="userSpaceOnUse" x="13" y="13" width="20" height="19">
<path fill-rule="evenodd" clip-rule="evenodd" d="M13.0762 13.1118H33V31.0341H13.0762V13.1118Z" fill="white"/>
</mask>
<g mask="url(#mask1_4_3811)">
<path fill-rule="evenodd" clip-rule="evenodd" d="M18.0001 31.0341C16.5946 31.0341 15.1966 30.8061 13.8466 30.3576C13.2571 30.1611 12.9376 29.5236 13.1341 28.9341C13.3306 28.3431 13.9651 28.0296 14.5576 28.2216C15.6781 28.5951 16.8361 28.7841 18.0001 28.7841C23.1421 28.7841 27.8416 25.1211 30.6451 18.9546C29.9611 17.4561 29.1646 16.0986 28.2736 14.9136C27.9001 14.4171 27.9991 13.7106 28.4956 13.3371C28.9906 12.9636 29.6971 13.0656 30.0706 13.5606C31.1566 15.0021 32.1106 16.6686 32.9071 18.5076C33.0316 18.7926 33.0316 19.1166 32.9071 19.4001C29.7631 26.6856 24.1906 31.0341 18.0001 31.0341Z" fill="black"/>
</g>
<mask id="mask2_4_3811" style="mask-type:luminance" maskUnits="userSpaceOnUse" x="5" y="6" width="26" height="26">
<path fill-rule="evenodd" clip-rule="evenodd" d="M5.04529 6.0006H30.9555V31.9101H5.04529V6.0006Z" fill="white"/>
</mask>
<g mask="url(#mask2_4_3811)">
<path fill-rule="evenodd" clip-rule="evenodd" d="M6.16991 31.9101C5.88191 31.9101 5.59391 31.8006 5.37491 31.5801C4.93541 31.1406 4.93541 30.4296 5.37491 29.9901L29.0359 6.32909C29.4754 5.88959 30.1864 5.88959 30.6259 6.32909C31.0654 6.76859 31.0654 7.48109 30.6259 7.92059L6.96491 31.5801C6.74591 31.8006 6.45791 31.9101 6.16991 31.9101Z" fill="black"/>
</g>
</svg>
