<svg width="36" height="36" viewBox="0 0 36 36" fill="none" xmlns="http://www.w3.org/2000/svg">
<mask id="mask0_4_2879" style="mask-type:luminance" maskUnits="userSpaceOnUse" x="3" y="1" width="31" height="33">
<path fill-rule="evenodd" clip-rule="evenodd" d="M3 1.50031H33.7497V33.7578H3V1.50031Z" fill="white"/>
</mask>
<g mask="url(#mask0_4_2879)">
<path fill-rule="evenodd" clip-rule="evenodd" d="M20.5753 22.9369C22.3813 22.9369 23.8513 24.3964 23.8513 26.1904V30.8044C23.8513 31.1899 24.1603 31.4989 24.5563 31.5079H27.4153C29.6683 31.5079 31.4998 29.6989 31.4998 27.4759V14.3899C31.4893 13.6249 31.1248 12.9049 30.4993 12.4264L20.6098 4.53944C19.2823 3.48794 17.4253 3.48794 16.0933 4.54244L6.27126 12.4234C5.62176 12.9169 5.25726 13.6369 5.24976 14.4154V27.4759C5.24976 29.6989 7.08126 31.5079 9.33426 31.5079H12.2203C12.6268 31.5079 12.9568 31.1854 12.9568 30.7894C12.9568 30.7024 12.9673 30.6154 12.9853 30.5329V26.1904C12.9853 24.4069 14.4463 22.9489 16.2388 22.9369H20.5753ZM27.4153 33.7579H24.5293C22.8763 33.7189 21.6013 32.4214 21.6013 30.8044V26.1904C21.6013 25.6369 21.1408 25.1869 20.5753 25.1869H16.2463C15.6928 25.1899 15.2353 25.6414 15.2353 26.1904V30.7894C15.2353 30.9019 15.2203 31.0099 15.1888 31.1119C15.0268 32.5969 13.7578 33.7579 12.2203 33.7579H9.33426C5.84076 33.7579 2.99976 30.9394 2.99976 27.4759V14.4049C3.01476 12.9139 3.70176 11.5489 4.88826 10.6504L14.6908 2.78294C16.8493 1.07294 19.8568 1.07294 22.0108 2.77994L31.8838 10.6549C33.0433 11.5384 33.7303 12.9004 33.7498 14.3734V27.4759C33.7498 30.9394 30.9088 33.7579 27.4153 33.7579Z" fill="black"/>
</g>
</svg>
