<svg width="36" height="36" viewBox="0 0 36 36" fill="none" xmlns="http://www.w3.org/2000/svg">
<mask id="mask0_4_3793" style="mask-type:luminance" maskUnits="userSpaceOnUse" x="3" y="3" width="30" height="30">
<path fill-rule="evenodd" clip-rule="evenodd" d="M3.00061 3.00031H32.94V32.925H3.00061V3.00031Z" fill="white"/>
</mask>
<g mask="url(#mask0_4_3793)">
<path fill-rule="evenodd" clip-rule="evenodd" d="M11.4756 5.25C7.69411 5.25 5.25061 7.8405 5.25061 11.8485V24.0765C5.25061 28.086 7.69411 30.675 11.4756 30.675H24.4506C28.2411 30.675 30.6906 28.086 30.6906 24.0765V11.8485C30.6906 7.8405 28.2411 5.25 24.4506 5.25H11.4756ZM24.4506 32.925H11.4756C6.40561 32.925 3.00061 29.3685 3.00061 24.0765V11.8485C3.00061 6.5565 6.40561 3 11.4756 3H24.4506C29.5281 3 32.9406 6.5565 32.9406 11.8485V24.0765C32.9406 29.3685 29.5281 32.925 24.4506 32.925Z" fill="black"/>
</g>
<path fill-rule="evenodd" clip-rule="evenodd" d="M7.92213 25.7706C7.64313 25.7706 7.36563 25.6686 7.14813 25.4616C6.69663 25.0356 6.67863 24.3216 7.10613 23.8731L9.39813 21.4536C10.6116 20.1651 12.6591 20.1021 13.9536 21.3171L15.3906 22.7751C15.7911 23.1801 16.4421 23.1876 16.8441 22.7916C16.9956 22.6131 20.2626 18.6456 20.2626 18.6456C20.8836 17.8926 21.7596 17.4276 22.7331 17.3316C23.7081 17.2461 24.6546 17.5296 25.4091 18.1491C25.4736 18.2016 25.5321 18.2526 28.8261 21.6351C29.2596 22.0791 29.2521 22.7916 28.8066 23.2251C28.3626 23.6616 27.6486 23.6481 27.2151 23.2041C27.2151 23.2041 24.1416 20.0496 23.9226 19.8366C23.6901 19.6461 23.3166 19.5351 22.9491 19.5711C22.5756 19.6086 22.2396 19.7871 22.0011 20.0766C18.5151 24.3051 18.4731 24.3456 18.4161 24.4011C17.1291 25.6641 15.0516 25.6431 13.7871 24.3531C13.7871 24.3531 12.3921 22.9371 12.3681 22.9086C12.0216 22.5876 11.4036 22.6086 11.0331 23.0001L8.73813 25.4196C8.51613 25.6536 8.21913 25.7706 7.92213 25.7706Z" fill="black"/>
<path fill-rule="evenodd" clip-rule="evenodd" d="M12.8364 12.1934C12.0069 12.1934 11.3319 12.8684 11.3319 13.6994C11.3319 14.5304 12.0069 15.2069 12.8379 15.2069C13.6689 15.2069 14.3454 14.5304 14.3454 13.6994C14.3454 12.8699 13.6689 12.1949 12.8364 12.1934ZM12.8379 17.4569C10.7664 17.4569 9.08191 15.7709 9.08191 13.6994C9.08191 11.6279 10.7664 9.94336 12.8379 9.94336C14.9109 9.94486 16.5954 11.6309 16.5954 13.6994C16.5954 15.7709 14.9094 17.4569 12.8379 17.4569Z" fill="black"/>
</svg>
