<svg width="36" height="36" viewBox="0 0 36 36" fill="none" xmlns="http://www.w3.org/2000/svg">
<mask id="mask0_4_3792" style="mask-type:luminance" maskUnits="userSpaceOnUse" x="3" y="3" width="30" height="30">
<path fill-rule="evenodd" clip-rule="evenodd" d="M3.00061 3.00015H32.9301V32.931H3.00061V3.00015Z" fill="white"/>
</mask>
<g mask="url(#mask0_4_3792)">
<path fill-rule="evenodd" clip-rule="evenodd" d="M11.4771 5.25C7.69561 5.25 5.25061 7.8435 5.25061 11.856V24.075C5.25061 28.089 7.69561 30.681 11.4771 30.681H24.4461C28.2336 30.681 30.6801 28.089 30.6801 24.075V11.856C30.6831 9.8115 30.0591 8.1045 28.8771 6.921C27.7851 5.8275 26.2566 5.25 24.4536 5.25H11.4771ZM24.4461 32.931H11.4771C6.40711 32.931 3.00061 29.3715 3.00061 24.075V11.856C3.00061 6.5595 6.40711 3 11.4771 3H24.4536C26.8656 3 28.9461 3.8055 30.4686 5.331C32.0601 6.924 32.9331 9.2415 32.9301 11.8575V24.075C32.9301 29.3715 29.5206 32.931 24.4461 32.931Z" fill="black"/>
</g>
<path fill-rule="evenodd" clip-rule="evenodd" d="M13.2846 11.5343C12.3786 11.5343 11.6421 12.2708 11.6421 13.1783C11.6421 14.0843 12.3786 14.8208 13.2861 14.8208C14.1921 14.8208 14.9301 14.0843 14.9301 13.1798C14.9286 12.2723 14.1906 11.5358 13.2846 11.5343ZM13.2861 17.0708C11.1381 17.0708 9.39209 15.3248 9.39209 13.1783C9.39209 11.0303 11.1381 9.28426 13.2861 9.28426C15.4326 9.28576 17.1786 11.0318 17.1801 13.1768V13.1783C17.1801 15.3248 15.4341 17.0708 13.2861 17.0708Z" fill="black"/>
<path fill-rule="evenodd" clip-rule="evenodd" d="M5.62352 30.167C5.43752 30.167 5.24852 30.1205 5.07452 30.023C4.53152 29.7185 4.34102 29.033 4.64402 28.4915C4.73402 28.3295 6.88652 24.524 9.25502 22.574C11.133 21.029 13.155 21.878 14.784 22.5635C15.7425 22.967 16.6485 23.348 17.5185 23.348C18.3165 23.348 19.317 21.938 20.202 20.6945C21.4305 18.9605 22.8255 16.9985 24.8685 16.9985C28.1235 16.9985 30.933 19.9025 32.4435 21.4625L32.6175 21.6425C33.0495 22.088 33.039 22.8005 32.5935 23.234C32.151 23.6675 31.4385 23.657 31.0035 23.21L30.8265 23.027C29.5485 21.7055 27.1695 19.2485 24.8685 19.2485C23.9865 19.2485 22.9515 20.708 22.035 21.9965C20.778 23.7665 19.4775 25.598 17.5185 25.598C16.194 25.598 14.9805 25.088 13.911 24.6365C12.21 23.9195 11.439 23.69 10.6845 24.311C8.63852 25.997 6.62552 29.558 6.60602 29.5925C6.40052 29.96 6.01802 30.167 5.62352 30.167Z" fill="black"/>
</svg>
