<svg width="36" height="36" viewBox="0 0 36 36" fill="none" xmlns="http://www.w3.org/2000/svg">
<mask id="mask0_4_3770" style="mask-type:luminance" maskUnits="userSpaceOnUse" x="3" y="3" width="30" height="30">
<path fill-rule="evenodd" clip-rule="evenodd" d="M3 3H32.9999V33H3V3Z" fill="white"/>
</mask>
<g mask="url(#mask0_4_3770)">
<path fill-rule="evenodd" clip-rule="evenodd" d="M11.496 5.25C7.7025 5.25 5.25 7.8495 5.25 11.874V24.126C5.25 28.1505 7.7025 30.75 11.496 30.75H24.498C28.296 30.75 30.75 28.1505 30.75 24.126V11.874C30.75 7.8495 28.296 5.25 24.501 5.25H11.496ZM24.498 33H11.496C6.414 33 3 29.433 3 24.126V11.874C3 6.567 6.414 3 11.496 3H24.501C29.5845 3 33 6.567 33 11.874V24.126C33 29.433 29.5845 33 24.498 33Z" fill="black"/>
</g>
<path fill-rule="evenodd" clip-rule="evenodd" d="M17.991 25.125C17.37 25.125 16.866 24.621 16.866 24V18C16.866 17.379 17.37 16.875 17.991 16.875C18.612 16.875 19.116 17.379 19.116 18V24C19.116 24.621 18.612 25.125 17.991 25.125Z" fill="black"/>
<path fill-rule="evenodd" clip-rule="evenodd" d="M17.9983 13.8062C17.1688 13.8062 16.4908 13.1357 16.4908 12.3062C16.4908 11.4767 17.1553 10.8062 17.9833 10.8062H17.9983C18.8278 10.8062 19.4983 11.4767 19.4983 12.3062C19.4983 13.1357 18.8278 13.8062 17.9983 13.8062Z" fill="black"/>
</svg>
