<svg width="36" height="36" viewBox="0 0 36 36" fill="none" xmlns="http://www.w3.org/2000/svg">
<path fill-rule="evenodd" clip-rule="evenodd" d="M18.3757 12.75C16.9282 12.75 15.7507 13.9275 15.7507 15.3765C15.7507 16.824 16.9282 18 18.3757 18C19.8232 18 21.0007 16.824 21.0007 15.3765C21.0007 13.9275 19.8232 12.75 18.3757 12.75ZM18.3757 20.25C15.6877 20.25 13.5007 18.0645 13.5007 15.3765C13.5007 12.687 15.6877 10.5 18.3757 10.5C21.0637 10.5 23.2507 12.687 23.2507 15.3765C23.2507 18.0645 21.0637 20.25 18.3757 20.25Z" fill="black"/>
<mask id="mask0_4_3761" style="mask-type:luminance" maskUnits="userSpaceOnUse" x="6" y="3" width="25" height="30">
<path fill-rule="evenodd" clip-rule="evenodd" d="M6 3H30.7493V32.25H6V3Z" fill="white"/>
</mask>
<g mask="url(#mask0_4_3761)">
<path fill-rule="evenodd" clip-rule="evenodd" d="M18.3743 5.25C12.7913 5.25 8.24927 9.8355 8.24927 15.4695C8.24927 22.638 16.6853 29.622 18.3743 29.994C20.0633 29.6205 28.4993 22.6365 28.4993 15.4695C28.4993 9.8355 23.9573 5.25 18.3743 5.25ZM18.3743 32.25C15.6833 32.25 5.99927 23.922 5.99927 15.4695C5.99927 8.5935 11.5508 3 18.3743 3C25.1978 3 30.7493 8.5935 30.7493 15.4695C30.7493 23.922 21.0653 32.25 18.3743 32.25Z" fill="black"/>
</g>
</svg>
