<svg width="36" height="35" viewBox="0 0 36 35" fill="none" xmlns="http://www.w3.org/2000/svg">
<path fill-rule="evenodd" clip-rule="evenodd" d="M25.3844 14.875C24.7634 14.875 24.2594 14.385 24.2594 13.7812V10.6502C24.2594 7.59354 21.7019 5.10708 18.5579 5.10708H18.5339C17.0144 5.10708 15.5909 5.67583 14.5154 6.71271C13.4324 7.75396 12.8339 9.14375 12.8279 10.6254V13.7812C12.8279 14.385 12.3239 14.875 11.7029 14.875C11.0819 14.875 10.5779 14.385 10.5779 13.7812V10.6502C10.5869 8.55021 11.4224 6.61208 12.9299 5.15958C14.4389 3.70563 16.4309 2.86417 18.5624 2.91958C22.9424 2.91958 26.5094 6.3875 26.5094 10.6502V13.7812C26.5094 14.385 26.0054 14.875 25.3844 14.875Z" fill="black"/>
<path fill-rule="evenodd" clip-rule="evenodd" d="M12.813 14.7712C10.296 14.7712 8.25 16.7603 8.25 19.2074V25.4622C8.25 27.9093 10.296 29.8985 12.813 29.8985H24.2745C26.79 29.8985 28.8375 27.9093 28.8375 25.4622V19.2074C28.8375 16.7603 26.79 14.7712 24.2745 14.7712H12.813ZM24.2745 32.086H12.813C9.0555 32.086 6 29.1153 6 25.4622V19.2074C6 15.5543 9.0555 12.5837 12.813 12.5837H24.2745C28.032 12.5837 31.0875 15.5543 31.0875 19.2074V25.4622C31.0875 29.1153 28.032 32.086 24.2745 32.086Z" fill="black"/>
<path fill-rule="evenodd" clip-rule="evenodd" d="M18.5435 25.0478C17.9225 25.0478 17.4185 24.5578 17.4185 23.954V20.715C17.4185 20.1113 17.9225 19.6213 18.5435 19.6213C19.1645 19.6213 19.6685 20.1113 19.6685 20.715V23.954C19.6685 24.5578 19.1645 25.0478 18.5435 25.0478Z" fill="black"/>
</svg>
