<svg width="36" height="36" viewBox="0 0 36 36" fill="none" xmlns="http://www.w3.org/2000/svg">
<path fill-rule="evenodd" clip-rule="evenodd" d="M23.6865 19.125H5.625C5.004 19.125 4.5 18.621 4.5 18C4.5 17.379 5.004 16.875 5.625 16.875H23.6865C24.3075 16.875 24.8115 17.379 24.8115 18C24.8115 18.621 24.3075 19.125 23.6865 19.125Z" fill="black"/>
<path fill-rule="evenodd" clip-rule="evenodd" d="M19.2949 23.4975C19.0069 23.4975 18.7174 23.388 18.4984 23.166C18.0589 22.725 18.0619 22.014 18.5014 21.576L22.0924 18L18.5014 14.4225C18.0619 13.9845 18.0589 13.2735 18.4984 12.8325C18.9379 12.3915 19.6489 12.3915 20.0884 12.8295L24.4819 17.2035C24.6949 17.4135 24.8134 17.7015 24.8134 18C24.8134 18.2985 24.6949 18.5865 24.4819 18.7965L20.0884 23.169C19.8694 23.388 19.5814 23.4975 19.2949 23.4975Z" fill="black"/>
<path fill-rule="evenodd" clip-rule="evenodd" d="M25.563 33H18.2355C14.577 33 11.5995 30.0225 11.5995 26.3625V24.9495C11.5995 24.3285 12.1035 23.8245 12.7245 23.8245C13.3455 23.8245 13.8495 24.3285 13.8495 24.9495V26.3625C13.8495 28.7805 15.8175 30.75 18.2355 30.75H25.563C27.9915 30.75 29.967 28.776 29.967 26.346V9.6375C29.967 7.2195 27.9975 5.25 25.5795 5.25H18.252C15.825 5.25 13.8495 7.224 13.8495 9.651V11.0505C13.8495 11.6715 13.3455 12.1755 12.7245 12.1755C12.1035 12.1755 11.5995 11.6715 11.5995 11.0505V9.651C11.5995 5.9835 14.5845 3 18.252 3H25.5795C29.238 3 32.217 5.9775 32.217 9.6375V26.346C32.217 30.015 29.2305 33 25.563 33Z" fill="black"/>
</svg>
