<svg width="36" height="36" viewBox="0 0 36 36" fill="none" xmlns="http://www.w3.org/2000/svg">
<path fill-rule="evenodd" clip-rule="evenodd" d="M16.979 33H9.64999C5.98399 33 3.00049 30.0165 3.00049 26.3475V9.654C3.00049 5.985 5.98399 3 9.64999 3H16.9625C20.6315 3 23.6165 5.985 23.6165 9.654V11.052C23.6165 11.673 23.1125 12.177 22.4915 12.177C21.8705 12.177 21.3665 11.673 21.3665 11.052V9.654C21.3665 7.224 19.391 5.25 16.9625 5.25H9.64999C7.22449 5.25 5.25049 7.224 5.25049 9.654V26.3475C5.25049 28.776 7.22449 30.75 9.64999 30.75H16.979C19.397 30.75 21.3665 28.782 21.3665 26.364V24.9495C21.3665 24.3285 21.8705 23.8245 22.4915 23.8245C23.1125 23.8245 23.6165 24.3285 23.6165 24.9495V26.364C23.6165 30.024 20.6375 33 16.979 33Z" fill="black"/>
<mask id="mask0_4_3746" style="mask-type:luminance" maskUnits="userSpaceOnUse" x="13" y="16" width="21" height="4">
<path fill-rule="evenodd" clip-rule="evenodd" d="M13.4941 16.875H33.8055V19.125H13.4941V16.875Z" fill="white"/>
</mask>
<g mask="url(#mask0_4_3746)">
<path fill-rule="evenodd" clip-rule="evenodd" d="M32.6806 19.125H14.6191C13.9981 19.125 13.4941 18.621 13.4941 18C13.4941 17.379 13.9981 16.875 14.6191 16.875H32.6806C33.3016 16.875 33.8056 17.379 33.8056 18C33.8056 18.621 33.3016 19.125 32.6806 19.125Z" fill="black"/>
</g>
<mask id="mask1_4_3746" style="mask-type:luminance" maskUnits="userSpaceOnUse" x="27" y="12" width="7" height="12">
<path fill-rule="evenodd" clip-rule="evenodd" d="M27.1646 12.5029H33.8056V23.499H27.1646V12.5029Z" fill="white"/>
</mask>
<g mask="url(#mask1_4_3746)">
<path fill-rule="evenodd" clip-rule="evenodd" d="M28.2892 23.499C28.0012 23.499 27.7117 23.3895 27.4927 23.1675C27.0547 22.7265 27.0562 22.0155 27.4957 21.5775L31.0867 18L27.4957 14.424C27.0562 13.986 27.0532 13.275 27.4927 12.834C27.9307 12.393 28.6417 12.393 29.0827 12.831L33.4747 17.2035C33.6877 17.4135 33.8062 17.7015 33.8062 18C33.8062 18.2985 33.6877 18.5865 33.4747 18.7965L29.0827 23.1705C28.8637 23.3895 28.5757 23.499 28.2892 23.499Z" fill="black"/>
</g>
</svg>
