<svg width="36" height="36" viewBox="0 0 36 36" fill="none" xmlns="http://www.w3.org/2000/svg">
<path fill-rule="evenodd" clip-rule="evenodd" d="M17.6653 20.1972C16.6618 20.1972 15.6613 19.8657 14.8243 19.2027L8.09685 13.7787C7.61235 13.3887 7.53735 12.6792 7.92585 12.1962C8.31735 11.7147 9.02535 11.6382 9.50835 12.0267L16.2298 17.4447C17.0743 18.1137 18.2638 18.1137 19.1143 17.4387L25.7683 12.0297C26.2513 11.6352 26.9593 11.7102 27.3523 12.1932C27.7438 12.6747 27.6703 13.3827 27.1888 13.7757L20.5228 19.1937C19.6798 19.8627 18.6718 20.1972 17.6653 20.1972Z" fill="black"/>
<mask id="mask0_4_3781" style="mask-type:luminance" maskUnits="userSpaceOnUse" x="1" y="3" width="33" height="30">
<path fill-rule="evenodd" clip-rule="evenodd" d="M1.5 3H33.7499V32.25H1.5V3Z" fill="white"/>
</mask>
<g mask="url(#mask0_4_3781)">
<path fill-rule="evenodd" clip-rule="evenodd" d="M10.2584 30H24.9884C24.9914 29.997 25.0034 30 25.0124 30C26.7239 30 28.2419 29.388 29.4059 28.2255C30.7574 26.88 31.4999 24.9465 31.4999 22.782V12.48C31.4999 8.2905 28.7609 5.25 24.9884 5.25H10.2614C6.48888 5.25 3.74988 8.2905 3.74988 12.48V22.782C3.74988 24.9465 4.49388 26.88 5.84388 28.2255C7.00788 29.388 8.52738 30 10.2374 30H10.2584ZM10.2329 32.25C7.91838 32.25 5.85138 31.41 4.25538 29.82C2.47788 28.047 1.49988 25.548 1.49988 22.782V12.48C1.49988 7.0755 5.26638 3 10.2614 3H24.9884C29.9834 3 33.7499 7.0755 33.7499 12.48V22.782C33.7499 25.548 32.7719 28.047 30.9944 29.82C29.3999 31.4085 27.3314 32.25 25.0124 32.25H24.9884H10.2614H10.2329Z" fill="black"/>
</g>
</svg>
