<svg width="36" height="36" viewBox="0 0 36 36" fill="none" xmlns="http://www.w3.org/2000/svg">
<path fill-rule="evenodd" clip-rule="evenodd" d="M18 5.25C10.9695 5.25 5.25 10.9695 5.25 18C5.25 25.0305 10.9695 30.75 18 30.75C25.0305 30.75 30.75 25.0305 30.75 18C30.75 10.9695 25.0305 5.25 18 5.25ZM18 33C9.729 33 3 26.271 3 18C3 9.729 9.729 3 18 3C26.271 3 33 9.729 33 18C33 26.271 26.271 33 18 33Z" fill="black"/>
<path fill-rule="evenodd" clip-rule="evenodd" d="M23.9223 19.5206C23.0928 19.5206 22.4148 18.8501 22.4148 18.0206C22.4148 17.1911 23.0793 16.5206 23.9073 16.5206H23.9223C24.7518 16.5206 25.4223 17.1911 25.4223 18.0206C25.4223 18.8501 24.7518 19.5206 23.9223 19.5206Z" fill="black"/>
<path fill-rule="evenodd" clip-rule="evenodd" d="M17.9077 19.5206C17.0782 19.5206 16.4017 18.8501 16.4017 18.0206C16.4017 17.1911 17.0647 16.5206 17.8942 16.5206H17.9077C18.7372 16.5206 19.4077 17.1911 19.4077 18.0206C19.4077 18.8501 18.7372 19.5206 17.9077 19.5206Z" fill="black"/>
<path fill-rule="evenodd" clip-rule="evenodd" d="M11.8946 19.5206C11.0651 19.5206 10.3871 18.8501 10.3871 18.0206C10.3871 17.1911 11.0516 16.5206 11.8811 16.5206H11.8946C12.7241 16.5206 13.3946 17.1911 13.3946 18.0206C13.3946 18.8501 12.7241 19.5206 11.8946 19.5206Z" fill="black"/>
</svg>
