<svg width="36" height="36" viewBox="0 0 36 36" fill="none" xmlns="http://www.w3.org/2000/svg">
<path fill-rule="evenodd" clip-rule="evenodd" d="M11.4975 5.25C7.7025 5.25 5.25 7.8495 5.25 11.874V24.126C5.25 28.1505 7.7025 30.75 11.4975 30.75H24.4995C28.296 30.75 30.75 28.1505 30.75 24.126V11.874C30.75 7.8495 28.296 5.25 24.501 5.25H11.4975ZM24.4995 33H11.4975C6.414 33 3 29.433 3 24.126V11.874C3 6.567 6.414 3 11.4975 3H24.501C29.5845 3 33 6.567 33 11.874V24.126C33 29.433 29.5845 33 24.4995 33Z" fill="black"/>
<path fill-rule="evenodd" clip-rule="evenodd" d="M23.9223 19.5205C23.0928 19.5205 22.4148 18.85 22.4148 18.0205C22.4148 17.191 23.0793 16.5205 23.9073 16.5205H23.9223C24.7518 16.5205 25.4223 17.191 25.4223 18.0205C25.4223 18.85 24.7518 19.5205 23.9223 19.5205Z" fill="black"/>
<path fill-rule="evenodd" clip-rule="evenodd" d="M17.9077 19.5205C17.0782 19.5205 16.4017 18.85 16.4017 18.0205C16.4017 17.191 17.0647 16.5205 17.8942 16.5205H17.9077C18.7372 16.5205 19.4077 17.191 19.4077 18.0205C19.4077 18.85 18.7372 19.5205 17.9077 19.5205Z" fill="black"/>
<path fill-rule="evenodd" clip-rule="evenodd" d="M11.8946 19.5205C11.0651 19.5205 10.3871 18.85 10.3871 18.0205C10.3871 17.191 11.0516 16.5205 11.8811 16.5205H11.8946C12.7241 16.5205 13.3946 17.191 13.3946 18.0205C13.3946 18.85 12.7241 19.5205 11.8946 19.5205Z" fill="black"/>
</svg>
