<svg width="36" height="36" viewBox="0 0 36 36" fill="none" xmlns="http://www.w3.org/2000/svg">
<path fill-rule="evenodd" clip-rule="evenodd" d="M11.3579 5.26755C8.87236 5.26755 6.80986 7.28055 6.75136 9.76305V26.0095C6.70786 28.48 8.66836 30.508 11.1194 30.55L11.3414 30.5485H23.3594C25.8224 30.5215 27.8309 28.486 27.8279 26.011V12.5125L20.8754 5.26755H11.3774H11.3579ZM11.0984 32.8C7.38886 32.7355 4.43836 29.68 4.50136 25.99V9.73605C4.58686 6.01455 7.65886 3.01755 11.3534 3.01755H11.3819H21.3539C21.6599 3.01755 21.9524 3.14205 22.1654 3.36255L29.7644 11.281C29.9654 11.4895 30.0779 11.77 30.0779 12.0595V26.0095C30.0839 29.713 27.0749 32.7595 23.3714 32.7985L11.0984 32.8Z" fill="black"/>
<path fill-rule="evenodd" clip-rule="evenodd" d="M28.9449 13.4766H24.8139C22.0674 13.4691 19.8354 11.2311 19.8354 8.4891V4.1256C19.8354 3.5046 20.3394 3.0006 20.9604 3.0006C21.5814 3.0006 22.0854 3.5046 22.0854 4.1256V8.4891C22.0854 9.9951 23.3109 11.2221 24.8169 11.2266H28.9449C29.5659 11.2266 30.0699 11.7306 30.0699 12.3516C30.0699 12.9726 29.5659 13.4766 28.9449 13.4766Z" fill="black"/>
<path fill-rule="evenodd" clip-rule="evenodd" d="M20.689 21.7456H13.3405C12.7195 21.7456 12.2155 21.2416 12.2155 20.6206C12.2155 19.9996 12.7195 19.4956 13.3405 19.4956H20.689C21.31 19.4956 21.814 19.9996 21.814 20.6206C21.814 21.2416 21.31 21.7456 20.689 21.7456Z" fill="black"/>
</svg>
