<svg width="36" height="36" viewBox="0 0 36 36" fill="none" xmlns="http://www.w3.org/2000/svg">
<mask id="mask0_4_2899" style="mask-type:luminance" maskUnits="userSpaceOnUse" x="4" y="3" width="27" height="30">
<path fill-rule="evenodd" clip-rule="evenodd" d="M4.50037 3.01755H30.0786V32.7978H4.50037V3.01755Z" fill="white"/>
</mask>
<g mask="url(#mask0_4_2899)">
<path fill-rule="evenodd" clip-rule="evenodd" d="M11.36 5.26755C8.87447 5.26755 6.81047 7.28055 6.75197 9.76305V25.8415C6.69797 28.393 8.70797 30.493 11.2355 30.5485H23.36C25.8635 30.4585 27.845 28.393 27.8285 25.849V12.5095L20.8775 5.26755H11.378H11.36ZM11.378 32.7985H11.189C7.42097 32.7175 4.42097 29.5855 4.50197 25.8175V9.73605C4.59047 6.01455 7.66247 3.01755 11.3555 3.01755H11.3825H21.356C21.662 3.01755 21.9545 3.14205 22.1675 3.36255L29.7665 11.278C29.966 11.4865 30.0785 11.767 30.0785 12.0565V25.8415C30.1025 29.605 27.1685 32.6635 23.399 32.7985H11.378Z" fill="black"/>
</g>
<path fill-rule="evenodd" clip-rule="evenodd" d="M28.9469 13.4764H24.8159C22.0694 13.4689 19.8389 11.2309 19.8389 8.48894V4.12544C19.8389 3.50444 20.3429 3.00044 20.9639 3.00044C21.5849 3.00044 22.0889 3.50444 22.0889 4.12544V8.48894C22.0889 9.99494 23.3129 11.2219 24.8189 11.2264H28.9469C29.5679 11.2264 30.0719 11.7304 30.0719 12.3514C30.0719 12.9724 29.5679 13.4764 28.9469 13.4764Z" fill="black"/>
<path fill-rule="evenodd" clip-rule="evenodd" d="M16.7141 25.0503C16.0931 25.0503 15.5891 24.5463 15.5891 23.9253V14.8638C15.5891 14.2428 16.0931 13.7388 16.7141 13.7388C17.3351 13.7388 17.8391 14.2428 17.8391 14.8638V23.9253C17.8391 24.5463 17.3351 25.0503 16.7141 25.0503Z" fill="black"/>
<path fill-rule="evenodd" clip-rule="evenodd" d="M16.7126 25.0488C16.4141 25.0488 16.1261 24.9303 15.9161 24.7173L12.3986 21.1863C11.9606 20.7453 11.9621 20.0328 12.4016 19.5948C12.8426 19.1568 13.5551 19.1568 13.9931 19.5978L16.7126 22.3308L19.4321 19.5978C19.8701 19.1568 20.5826 19.1568 21.0236 19.5948C21.4631 20.0328 21.4646 20.7453 21.0266 21.1863L17.5091 24.7173C17.2991 24.9303 17.0111 25.0488 16.7126 25.0488Z" fill="black"/>
</svg>
