<svg width="36" height="36" viewBox="0 0 36 36" fill="none" xmlns="http://www.w3.org/2000/svg">
<mask id="mask0_4_2911" style="mask-type:luminance" maskUnits="userSpaceOnUse" x="4" y="3" width="27" height="30">
<path fill-rule="evenodd" clip-rule="evenodd" d="M4.5 3.01755H30.0773V32.8H4.5V3.01755Z" fill="white"/>
</mask>
<g mask="url(#mask0_4_2911)">
<path fill-rule="evenodd" clip-rule="evenodd" d="M11.2178 5.26755C8.75327 5.26755 6.74927 7.27305 6.74927 9.73605V26.0095C6.75677 27.226 7.23977 28.372 8.10827 29.2315C8.97527 30.088 10.1708 30.58 11.3498 30.55C11.3603 30.55 11.5253 30.5485 11.5343 30.5485H23.3588C25.8218 30.5215 27.8318 28.486 27.8273 26.011V12.5125L20.8748 5.26755H11.2178ZM11.3138 32.8C9.51377 32.8 7.81127 32.1025 6.52577 30.8305C5.22977 29.5495 4.50977 27.8395 4.49927 26.0155V9.73605C4.49927 6.03255 7.51277 3.01755 11.2178 3.01755H21.3548C21.6608 3.01755 21.9533 3.14205 22.1663 3.36255L29.7638 11.281C29.9648 11.4895 30.0773 11.77 30.0773 12.0595V26.0095C30.0848 29.713 27.0758 32.7595 23.3708 32.7985L11.3573 32.8H11.3138Z" fill="black"/>
</g>
<path fill-rule="evenodd" clip-rule="evenodd" d="M28.9453 13.4766H24.8113C22.0663 13.4691 19.8358 11.2311 19.8358 8.4891V4.1256C19.8358 3.5046 20.3398 3.0006 20.9608 3.0006C21.5818 3.0006 22.0858 3.5046 22.0858 4.1256V8.4891C22.0858 9.9951 23.3098 11.2221 24.8143 11.2266H28.9453C29.5663 11.2266 30.0703 11.7306 30.0703 12.3516C30.0703 12.9726 29.5663 13.4766 28.9453 13.4766Z" fill="black"/>
<path fill-rule="evenodd" clip-rule="evenodd" d="M19.6128 23.0978C19.3248 23.0978 19.0368 22.9883 18.8178 22.7678L13.6188 17.5687C13.1793 17.1292 13.1793 16.4182 13.6188 15.9787C14.0583 15.5392 14.7693 15.5392 15.2088 15.9787L20.4078 21.1778C20.8473 21.6172 20.8473 22.3282 20.4078 22.7678C20.1888 22.9883 19.9008 23.0978 19.6128 23.0978Z" fill="black"/>
<path fill-rule="evenodd" clip-rule="evenodd" d="M14.4156 23.0978C14.1276 23.0978 13.8396 22.9883 13.6206 22.7678C13.1811 22.3282 13.1811 21.6172 13.6206 21.1778L18.8196 15.9787C19.2591 15.5392 19.9701 15.5392 20.4096 15.9787C20.8491 16.4182 20.8491 17.1292 20.4096 17.5687L15.2106 22.7678C14.9916 22.9883 14.7036 23.0978 14.4156 23.0978Z" fill="black"/>
</svg>
