<svg width="36" height="36" viewBox="0 0 36 36" fill="none" xmlns="http://www.w3.org/2000/svg">
<mask id="mask0_4_2887" style="mask-type:luminance" maskUnits="userSpaceOnUse" x="4" y="3" width="27" height="30">
<path fill-rule="evenodd" clip-rule="evenodd" d="M4.50049 3.01755H30.0795V32.7978H4.50049V3.01755Z" fill="white"/>
</mask>
<g mask="url(#mask0_4_2887)">
<path fill-rule="evenodd" clip-rule="evenodd" d="M11.3601 5.26755C8.87464 5.26755 6.81064 7.28055 6.75214 9.76305V25.8055C6.69664 28.375 8.72164 30.4915 11.2656 30.5485H23.3616C25.8651 30.445 27.8481 28.3645 27.8301 25.8145V12.5095L20.8776 5.26755H11.3781H11.3601ZM11.3781 32.7985H11.2146C7.43164 32.713 4.41964 29.566 4.50214 25.7815V9.73605C4.58914 6.01455 7.66264 3.01755 11.3571 3.01755H11.3826H21.3576C21.6636 3.01755 21.9561 3.14205 22.1691 3.36255L29.7666 11.278C29.9676 11.4865 30.0801 11.767 30.0801 12.0565V25.8055C30.1071 29.569 27.1761 32.644 23.4066 32.797L11.3781 32.7985Z" fill="black"/>
</g>
<path fill-rule="evenodd" clip-rule="evenodd" d="M28.9478 13.4764H24.8153C22.0703 13.4689 19.8383 11.2309 19.8383 8.48894V4.12544C19.8383 3.50444 20.3423 3.00044 20.9633 3.00044C21.5843 3.00044 22.0883 3.50444 22.0883 4.12544V8.48894C22.0883 9.99494 23.3138 11.2219 24.8183 11.2264H28.9478C29.5688 11.2264 30.0728 11.7304 30.0728 12.3514C30.0728 12.9724 29.5688 13.4764 28.9478 13.4764Z" fill="black"/>
<path fill-rule="evenodd" clip-rule="evenodd" d="M20.6831 24.1626H12.5831C11.9621 24.1626 11.4581 23.6586 11.4581 23.0376C11.4581 22.4166 11.9621 21.9126 12.5831 21.9126H20.6831C21.3041 21.9126 21.8081 22.4166 21.8081 23.0376C21.8081 23.6586 21.3041 24.1626 20.6831 24.1626Z" fill="black"/>
<path fill-rule="evenodd" clip-rule="evenodd" d="M17.6158 18.5346H12.5818C11.9608 18.5346 11.4568 18.0306 11.4568 17.4096C11.4568 16.7886 11.9608 16.2846 12.5818 16.2846H17.6158C18.2368 16.2846 18.7408 16.7886 18.7408 17.4096C18.7408 18.0306 18.2368 18.5346 17.6158 18.5346Z" fill="black"/>
</svg>
