<svg width="36" height="35" viewBox="0 0 36 35" fill="none" xmlns="http://www.w3.org/2000/svg">
<mask id="mask0_4_2917" style="mask-type:luminance" maskUnits="userSpaceOnUse" x="4" y="2" width="27" height="30">
<path fill-rule="evenodd" clip-rule="evenodd" d="M4.50037 2.93373H30.0786V31.8868H4.50037V2.93373Z" fill="white"/>
</mask>
<g mask="url(#mask0_4_2917)">
<path fill-rule="evenodd" clip-rule="evenodd" d="M11.36 5.12123C8.87447 5.12123 6.81047 7.07831 6.75197 9.49186V25.1237C6.69797 27.6044 8.70797 29.646 11.2355 29.7H23.36C25.8635 29.6125 27.845 27.6044 27.8285 25.131V12.1621L20.8775 5.12123H11.378H11.36ZM11.378 31.8875H11.189C7.42097 31.8087 4.42097 28.7637 4.50197 25.1004V9.46561C4.59047 5.84748 7.66247 2.93373 11.3555 2.93373H11.3825H21.356C21.662 2.93373 21.9545 3.05477 22.1675 3.26915L29.7665 10.9648C29.966 11.1675 30.0785 11.4402 30.0785 11.7216V25.1237C30.1025 28.7827 27.1685 31.7562 23.399 31.8875H11.378Z" fill="black"/>
</g>
<path fill-rule="evenodd" clip-rule="evenodd" d="M28.9469 13.1021H24.8159C22.0694 13.0948 19.8389 10.919 19.8389 8.25314V4.01085C19.8389 3.4071 20.3429 2.9171 20.9639 2.9171C21.5849 2.9171 22.0889 3.4071 22.0889 4.01085V8.25314C22.0889 9.71731 23.3129 10.9102 24.8189 10.9146H28.9469C29.5679 10.9146 30.0719 11.4046 30.0719 12.0083C30.0719 12.6121 29.5679 13.1021 28.9469 13.1021Z" fill="black"/>
<path fill-rule="evenodd" clip-rule="evenodd" d="M16.7125 24.3545C16.0915 24.3545 15.5875 23.8645 15.5875 23.2607V14.4509C15.5875 13.8472 16.0915 13.3572 16.7125 13.3572C17.3335 13.3572 17.8375 13.8472 17.8375 14.4509V23.2607C17.8375 23.8645 17.3335 24.3545 16.7125 24.3545Z" fill="black"/>
<path fill-rule="evenodd" clip-rule="evenodd" d="M13.1956 18.9796C12.9091 18.9796 12.6211 18.8732 12.4021 18.6602C11.9626 18.2344 11.9596 17.5432 12.3991 17.1144L15.9151 13.6786C16.3381 13.2659 17.0881 13.2659 17.5096 13.6786L21.0286 17.1144C21.4666 17.5432 21.4651 18.2344 21.0256 18.6602C20.5846 19.0861 19.8721 19.0861 19.4341 18.6573L16.7131 16.0002L13.9921 18.6573C13.7731 18.8732 13.4836 18.9796 13.1956 18.9796Z" fill="black"/>
</svg>
