<svg width="36" height="36" viewBox="0 0 36 36" fill="none" xmlns="http://www.w3.org/2000/svg">
<path fill-rule="evenodd" clip-rule="evenodd" d="M11.3594 5.26755C8.87236 5.26755 6.80986 7.28055 6.75136 9.76305V26.0095C6.70786 28.48 8.66836 30.508 11.1209 30.55L11.3414 30.5485H23.3594C25.8224 30.5215 27.8309 28.486 27.8279 26.011V12.5125L20.8769 5.26755H11.3774H11.3594ZM11.0999 32.8C7.39036 32.7355 4.43836 29.68 4.50136 25.99V9.73605C4.58686 6.01455 7.66036 3.01755 11.3549 3.01755H11.3819H21.3554C21.6614 3.01755 21.9539 3.14205 22.1669 3.36255L29.7659 11.281C29.9654 11.4895 30.0779 11.77 30.0779 12.0595V26.0095C30.0839 29.713 27.0749 32.7595 23.3714 32.7985L11.0999 32.8Z" fill="black"/>
<path fill-rule="evenodd" clip-rule="evenodd" d="M28.9463 13.4766H24.8153C22.0688 13.4691 19.8368 11.2311 19.8368 8.4891V4.1256C19.8368 3.5046 20.3408 3.0006 20.9618 3.0006C21.5828 3.0006 22.0868 3.5046 22.0868 4.1256V8.4891C22.0868 9.9951 23.3123 11.2221 24.8183 11.2266H28.9463C29.5673 11.2266 30.0713 11.7306 30.0713 12.3516C30.0713 12.9726 29.5673 13.4766 28.9463 13.4766Z" fill="black"/>
<path fill-rule="evenodd" clip-rule="evenodd" d="M20.6904 20.4961H13.3419C12.7209 20.4961 12.2169 19.9921 12.2169 19.3711C12.2169 18.7501 12.7209 18.2461 13.3419 18.2461H20.6904C21.3114 18.2461 21.8154 18.7501 21.8154 19.3711C21.8154 19.9921 21.3114 20.4961 20.6904 20.4961Z" fill="black"/>
<path fill-rule="evenodd" clip-rule="evenodd" d="M17.0166 24.1714C16.3956 24.1714 15.8916 23.6674 15.8916 23.0464V15.6964C15.8916 15.0754 16.3956 14.5714 17.0166 14.5714C17.6376 14.5714 18.1416 15.0754 18.1416 15.6964V23.0464C18.1416 23.6674 17.6376 24.1714 17.0166 24.1714Z" fill="black"/>
</svg>
