<svg width="36" height="36" viewBox="0 0 36 36" fill="none" xmlns="http://www.w3.org/2000/svg">
<mask id="mask0_4_2937" style="mask-type:luminance" maskUnits="userSpaceOnUse" x="3" y="3" width="30" height="30">
<path fill-rule="evenodd" clip-rule="evenodd" d="M3 3H32.9999V33H3V3Z" fill="white"/>
</mask>
<g mask="url(#mask0_4_2937)">
<path fill-rule="evenodd" clip-rule="evenodd" d="M11.496 5.25C7.7025 5.25 5.25 7.8495 5.25 11.874V24.126C5.25 28.1505 7.7025 30.75 11.496 30.75H24.498C28.296 30.75 30.75 28.1505 30.75 24.126V11.874C30.75 7.8495 28.296 5.25 24.501 5.25H11.496ZM24.498 33H11.496C6.414 33 3 29.433 3 24.126V11.874C3 6.567 6.414 3 11.496 3H24.501C29.5845 3 33 6.567 33 11.874V24.126C33 29.433 29.5845 33 24.498 33Z" fill="black"/>
</g>
<path fill-rule="evenodd" clip-rule="evenodd" d="M13.2582 16.3476C12.3432 16.3476 11.6022 17.0886 11.6022 18.0006C11.6022 18.9126 12.3432 19.6536 13.2552 19.6536C14.1657 19.6536 14.9082 18.9126 14.9082 18.0006C14.9082 17.0901 14.1672 16.3491 13.2582 16.3476ZM13.2552 21.9036C11.1027 21.9036 9.35217 20.1516 9.35217 18.0006C9.35217 15.8481 11.1027 14.0976 13.2552 14.0976C15.4107 14.0991 17.1582 15.8496 17.1582 18.0006C17.1582 20.1516 15.4077 21.9036 13.2552 21.9036Z" fill="black"/>
<path fill-rule="evenodd" clip-rule="evenodd" d="M25.5146 21.9037C24.8936 21.9037 24.3896 21.3997 24.3896 20.7787V19.1242H16.0376C15.4166 19.1242 14.9126 18.6217 14.9126 17.9992C14.9126 17.3782 15.4166 16.8742 16.0376 16.8742H25.5146C26.1356 16.8742 26.6396 17.3782 26.6396 17.9992V20.7787C26.6396 21.3997 26.1356 21.9037 25.5146 21.9037Z" fill="black"/>
<path fill-rule="evenodd" clip-rule="evenodd" d="M21.2722 21.9037C20.6512 21.9037 20.1472 21.3997 20.1472 20.7787V17.9992C20.1472 17.3782 20.6512 16.8742 21.2722 16.8742C21.8932 16.8742 22.3972 17.3782 22.3972 17.9992V20.7787C22.3972 21.3997 21.8932 21.9037 21.2722 21.9037Z" fill="black"/>
</svg>
