<svg width="36" height="36" viewBox="0 0 36 36" fill="none" xmlns="http://www.w3.org/2000/svg">
<path fill-rule="evenodd" clip-rule="evenodd" d="M18.375 5.25C11.1375 5.25 5.25 11.1375 5.25 18.375C5.25 25.6125 11.1375 31.5 18.375 31.5C25.6125 31.5 31.5 25.6125 31.5 18.375C31.5 11.1375 25.6125 5.25 18.375 5.25ZM18.375 33.75C9.897 33.75 3 26.853 3 18.375C3 9.897 9.897 3 18.375 3C26.853 3 33.75 9.897 33.75 18.375C33.75 26.853 26.853 33.75 18.375 33.75Z" fill="black"/>
<path fill-rule="evenodd" clip-rule="evenodd" d="M16.7008 15.1296C16.4353 16.6311 16.4308 20.2176 16.6963 21.6426C18.0133 21.1776 20.8663 19.3026 21.6343 18.3741C20.8693 17.4726 18.0523 15.6366 16.7008 15.1296ZM16.2418 24.0021C15.8368 24.0021 15.4528 23.8866 15.1393 23.5746C14.8978 23.3361 14.2528 22.6986 14.2498 18.5001C14.2483 14.0421 14.9188 13.3791 15.1393 13.1586C15.9238 12.3816 17.2018 12.9141 17.7463 13.1421C18.5263 13.4676 23.9998 16.2711 23.9998 18.3681C23.9998 20.3331 19.0738 23.0811 17.8153 23.6061C17.3248 23.8101 16.7653 24.0021 16.2418 24.0021Z" fill="black"/>
</svg>
