<svg width="36" height="36" viewBox="0 0 36 36" fill="none" xmlns="http://www.w3.org/2000/svg">
<path fill-rule="evenodd" clip-rule="evenodd" d="M17.625 24.2314C17.004 24.2314 16.5 23.7274 16.5 23.1064V12.1159C16.5 11.4949 17.004 10.9909 17.625 10.9909C18.246 10.9909 18.75 11.4949 18.75 12.1159V23.1064C18.75 23.7274 18.246 24.2314 17.625 24.2314Z" fill="black"/>
<path fill-rule="evenodd" clip-rule="evenodd" d="M23.1247 18.7353H12.1252C11.5027 18.7353 11.0002 18.2313 11.0002 17.6103C11.0002 16.9893 11.5027 16.4853 12.1252 16.4853H23.1247C23.7457 16.4853 24.2497 16.9893 24.2497 17.6103C24.2497 18.2313 23.7457 18.7353 23.1247 18.7353Z" fill="black"/>
<path fill-rule="evenodd" clip-rule="evenodd" d="M10.596 3.75C6.438 3.75 3.75 6.5955 3.75 11.0025V24.2475C3.75 28.6545 6.438 31.5 10.596 31.5H24.654C28.8135 31.5 31.5 28.6545 31.5 24.2475V11.0025C31.5 6.5955 28.8135 3.75 24.654 3.75H10.596ZM24.654 33.75H10.596C5.1555 33.75 1.5 29.931 1.5 24.2475V11.0025C1.5 5.319 5.1555 1.5 10.596 1.5H24.654C30.0945 1.5 33.75 5.319 33.75 11.0025V24.2475C33.75 29.931 30.0945 33.75 24.654 33.75Z" fill="black"/>
</svg>
