<svg width="36" height="36" viewBox="0 0 36 36" fill="none" xmlns="http://www.w3.org/2000/svg">
<path fill-rule="evenodd" clip-rule="evenodd" d="M34.125 20.9323H2.625C2.004 20.9323 1.5 20.4283 1.5 19.8073C1.5 19.1863 2.004 18.6823 2.625 18.6823H34.125C34.746 18.6823 35.25 19.1863 35.25 19.8073C35.25 20.4283 34.746 20.9323 34.125 20.9323Z" fill="black"/>
<path fill-rule="evenodd" clip-rule="evenodd" d="M31.3198 14.6175C30.6988 14.6175 30.1948 14.1135 30.1948 13.4925V11.2215C30.1948 8.757 28.1878 6.75 25.7203 6.75H23.9128C23.2918 6.75 22.7878 6.246 22.7878 5.625C22.7878 5.004 23.2918 4.5 23.9128 4.5H25.7203C29.4283 4.5 32.4448 7.5165 32.4448 11.2215V13.4925C32.4448 14.1135 31.9408 14.6175 31.3198 14.6175Z" fill="black"/>
<path fill-rule="evenodd" clip-rule="evenodd" d="M5.43018 14.6175C4.80918 14.6175 4.30518 14.1135 4.30518 13.4925V11.2215C4.30518 7.5165 7.32168 4.5 11.0297 4.5H12.8837C13.5047 4.5 14.0087 5.004 14.0087 5.625C14.0087 6.246 13.5047 6.75 12.8837 6.75H11.0297C8.56218 6.75 6.55518 8.757 6.55518 11.2215V13.4925C6.55518 14.1135 6.05118 14.6175 5.43018 14.6175Z" fill="black"/>
<path fill-rule="evenodd" clip-rule="evenodd" d="M25.7205 32.6409H23.913C23.292 32.6409 22.788 32.1369 22.788 31.5159C22.788 30.8949 23.292 30.3909 23.913 30.3909H25.7205C28.188 30.3909 30.195 28.3839 30.195 25.9179V19.8054C30.195 19.1844 30.699 18.6804 31.32 18.6804C31.941 18.6804 32.445 19.1844 32.445 19.8054V25.9179C32.445 29.6244 29.4285 32.6409 25.7205 32.6409Z" fill="black"/>
<path fill-rule="evenodd" clip-rule="evenodd" d="M12.8833 32.6409H11.0293C7.32131 32.6409 4.30481 29.6244 4.30481 25.9179V19.8054C4.30481 19.1844 4.80881 18.6804 5.42981 18.6804C6.05081 18.6804 6.55481 19.1844 6.55481 19.8054V25.9179C6.55481 28.3839 8.56181 30.3909 11.0293 30.3909H12.8833C13.5043 30.3909 14.0083 30.8949 14.0083 31.5159C14.0083 32.1369 13.5043 32.6409 12.8833 32.6409Z" fill="black"/>
</svg>
