<svg width="36" height="36" viewBox="0 0 36 36" fill="none" xmlns="http://www.w3.org/2000/svg">
<mask id="mask0_4_2923" style="mask-type:luminance" maskUnits="userSpaceOnUse" x="3" y="4" width="30" height="30">
<path fill-rule="evenodd" clip-rule="evenodd" d="M3 4.50061H32.2485V33.7491H3V4.50061Z" fill="white"/>
</mask>
<g mask="url(#mask0_4_2923)">
<path fill-rule="evenodd" clip-rule="evenodd" d="M16.2073 22.2267L21.6928 31.1262C21.9328 31.5162 22.3078 31.5117 22.4593 31.4907C22.6108 31.4697 22.9753 31.3767 23.1073 30.9342L29.9668 7.76672C30.0868 7.35722 29.8663 7.07822 29.7673 6.97922C29.6713 6.88022 29.3968 6.66872 28.9993 6.78122L5.8153 13.5702C5.3758 13.6992 5.2798 14.0682 5.2588 14.2197C5.2378 14.3742 5.2318 14.7567 5.6203 15.0012L14.6218 20.6307L22.5748 12.5937C23.0113 12.1527 23.7238 12.1482 24.1663 12.5847C24.6088 13.0212 24.6118 13.7352 24.1753 14.1762L16.2073 22.2267ZM22.3423 33.7497C21.2983 33.7497 20.3413 33.2187 19.7773 32.3067L13.9618 22.8702L4.4278 16.9077C3.4003 16.2642 2.8633 15.1182 3.0298 13.9137C3.1948 12.7092 4.0213 11.7522 5.1823 11.4117L28.3663 4.62272C29.4328 4.31072 30.5758 4.60622 31.3618 5.38922C32.1478 6.17972 32.4403 7.33472 32.1223 8.40572L25.2628 31.5717C24.9193 32.7372 23.9593 33.5607 22.7578 33.7212C22.6168 33.7392 22.4803 33.7497 22.3423 33.7497Z" fill="black"/>
</g>
</svg>
