<svg width="36" height="36" viewBox="0 0 36 36" fill="none" xmlns="http://www.w3.org/2000/svg">
<mask id="mask0_4_3757" style="mask-type:luminance" maskUnits="userSpaceOnUse" x="3" y="3" width="29" height="32">
<path fill-rule="evenodd" clip-rule="evenodd" d="M3 3.00075H31.9273V34.0823H3V3.00075Z" fill="white"/>
</mask>
<g mask="url(#mask0_4_3757)">
<path fill-rule="evenodd" clip-rule="evenodd" d="M10.8034 26.1607C11.1469 26.1607 11.4904 26.2043 11.8264 26.2943C12.8404 26.5672 13.7209 27.2453 14.2429 28.1558C14.5819 28.7273 14.7694 29.3947 14.7754 30.0757C14.7754 31.0507 15.5584 31.8323 16.5214 31.8323H18.4009C19.3594 31.8323 20.1424 31.0552 20.1469 30.0967C20.1409 29.0377 20.5549 28.0312 21.3124 27.2738C22.0594 26.5268 23.1034 26.0782 24.1474 26.1082C24.8314 26.1248 25.4899 26.3092 26.0704 26.6392C26.9059 27.1178 27.9724 26.8328 28.4554 26.0077L29.4514 24.3472C29.6734 23.9648 29.7379 23.4847 29.6194 23.0422C29.5024 22.5998 29.2084 22.2157 28.8124 21.9893C27.8854 21.4552 27.2239 20.5942 26.9494 19.5623C26.6779 18.5498 26.8264 17.4442 27.3559 16.5337C27.7009 15.9337 28.2064 15.4282 28.8124 15.0802C29.6254 14.6047 29.9104 13.5412 29.4379 12.7132C29.4184 12.6802 29.4004 12.6458 29.3854 12.6097L28.5064 11.0857C28.0279 10.2532 26.9629 9.96675 26.1274 10.4422C25.2244 10.9762 24.1504 11.1292 23.1184 10.8577C22.0879 10.5907 21.2239 9.93825 20.6854 9.01725C20.3404 8.44125 20.1529 7.77075 20.1469 7.08825C20.1604 6.57525 19.9804 6.11475 19.6534 5.77725C19.3279 5.44125 18.8704 5.25075 18.4009 5.25075H16.5214C16.0564 5.25075 15.6214 5.43225 15.2929 5.75925C14.9659 6.08775 14.7874 6.52425 14.7904 6.98925C14.7589 9.18225 12.9664 10.9477 10.7959 10.9477C10.0999 10.9402 9.42936 10.7527 8.84736 10.4047C8.02986 9.93975 6.96186 10.2262 6.48336 11.0587L5.46786 12.7282C5.00286 13.5352 5.28786 14.6017 6.11586 15.0832C7.34436 15.7942 8.11086 17.1202 8.11086 18.5422C8.11086 19.9643 7.34436 21.2887 6.11286 22.0012C5.28936 22.4782 5.00436 23.5387 5.48136 24.3637L6.42786 25.9957C6.66186 26.4172 7.04436 26.7218 7.48686 26.8463C7.92786 26.9692 8.41386 26.9167 8.81886 26.6917C9.41436 26.3422 10.1074 26.1607 10.8034 26.1607ZM18.4009 34.0823H16.5214C14.3179 34.0823 12.5254 32.2913 12.5254 30.0878C12.5224 29.8163 12.4444 29.5343 12.2989 29.2898C12.0634 28.8787 11.6824 28.5848 11.2429 28.4678C10.8064 28.3508 10.3279 28.4153 9.93486 28.6433C8.99286 29.1683 7.88436 29.2958 6.87036 29.0108C5.85786 28.7243 4.98336 28.0283 4.47036 27.1058L3.53286 25.4903C2.43636 23.5883 3.08886 21.1508 4.98786 20.0528C5.52636 19.7423 5.86086 19.1633 5.86086 18.5423C5.86086 17.9213 5.52636 17.3408 4.98786 17.0303C3.08736 15.9263 2.43636 13.4827 3.53136 11.5807L4.54836 9.91125C5.62986 8.03025 8.07486 7.36725 9.98136 8.46225C10.2409 8.61675 10.5229 8.69475 10.8094 8.69775C11.7439 8.69775 12.5254 7.92675 12.5404 6.97875C12.5344 5.93325 12.9469 4.92975 13.6984 4.17225C14.4529 3.41625 15.4549 3.00075 16.5214 3.00075H18.4009C19.4749 3.00075 20.5189 3.44175 21.2674 4.20825C22.0144 4.97925 22.4269 6.03675 22.3954 7.10925C22.3984 7.35075 22.4779 7.62975 22.6219 7.87425C22.8604 8.27925 23.2369 8.56425 23.6839 8.68125C24.1309 8.79225 24.5989 8.73225 24.9964 8.49675C26.9164 7.40025 29.3599 8.05725 30.4564 9.96225L31.3909 11.5807C31.4149 11.6243 31.4359 11.6663 31.4539 11.7098C32.4469 13.5863 31.7839 15.9488 29.9389 17.0273C29.6704 17.1818 29.4529 17.3978 29.3029 17.6588C29.0704 18.0623 29.0059 18.5423 29.1229 18.9833C29.2429 19.4333 29.5294 19.8068 29.9329 20.0378C30.8434 20.5613 31.5229 21.4433 31.7944 22.4618C32.0659 23.4788 31.9174 24.5828 31.3879 25.4933L30.3919 27.1523C29.2954 29.0363 26.8519 29.6888 24.9514 28.5908C24.6979 28.4453 24.4054 28.3658 24.1144 28.3583H24.1054C23.6719 28.3583 23.2264 28.5428 22.9024 28.8653C22.5739 29.1938 22.3939 29.6318 22.3969 30.0968C22.3864 32.3003 20.5939 34.0823 18.4009 34.0823Z" fill="black"/>
</g>
<path fill-rule="evenodd" clip-rule="evenodd" d="M17.4677 15.7119C15.9077 15.7119 14.6387 16.9824 14.6387 18.5424C14.6387 20.1024 15.9077 21.3699 17.4677 21.3699C19.0277 21.3699 20.2967 20.1024 20.2967 18.5424C20.2967 16.9824 19.0277 15.7119 17.4677 15.7119ZM17.4677 23.6199C14.6672 23.6199 12.3887 21.3429 12.3887 18.5424C12.3887 15.7419 14.6672 13.4619 17.4677 13.4619C20.2682 13.4619 22.5467 15.7419 22.5467 18.5424C22.5467 21.3429 20.2682 23.6199 17.4677 23.6199Z" fill="black"/>
</svg>
