<svg width="36" height="36" viewBox="0 0 36 36" fill="none" xmlns="http://www.w3.org/2000/svg">
<mask id="mask0_4_3803" style="mask-type:luminance" maskUnits="userSpaceOnUse" x="6" y="3" width="26" height="31">
<path fill-rule="evenodd" clip-rule="evenodd" d="M6.00024 3.0006H31.4505V33.534H6.00024V3.0006Z" fill="white"/>
</mask>
<g mask="url(#mask0_4_3803)">
<path fill-rule="evenodd" clip-rule="evenodd" d="M18.7254 5.25C17.4534 5.25 9.42837 8.076 8.50287 8.8485C8.22987 9.123 8.21937 9.6 8.27787 12.7935C8.30487 14.3325 8.34237 16.4235 8.34237 19.3185C8.34237 27.12 16.9254 30.5835 18.7239 31.221C20.5209 30.5805 29.1084 27.0975 29.1084 19.3185C29.1084 16.4205 29.1459 14.328 29.1744 12.789C29.2314 9.5985 29.2209 9.1215 28.9314 8.8335C28.0239 8.076 19.9974 5.25 18.7254 5.25ZM18.7254 33.534C18.6159 33.534 18.5064 33.519 18.3999 33.486C17.8974 33.3345 6.09237 29.6415 6.09237 19.3185C6.09237 16.443 6.05487 14.3625 6.02787 12.8355C5.95887 9.021 5.94387 8.226 6.92937 7.242C8.10687 6.0615 17.0244 3 18.7254 3C20.4249 3 29.3424 6.0615 30.5229 7.242C31.5069 8.226 31.4919 9.021 31.4229 12.831C31.3959 14.358 31.3584 16.4385 31.3584 19.3185C31.3584 29.6415 19.5534 33.3345 19.0509 33.486C18.9444 33.519 18.8349 33.534 18.7254 33.534Z" fill="black"/>
</g>
<path fill-rule="evenodd" clip-rule="evenodd" d="M17.6656 21.7793C17.3671 21.7793 17.0806 21.6608 16.8691 21.4493L14.0311 18.6083C13.5931 18.1688 13.5931 17.4548 14.0326 17.0168C14.4706 16.5773 15.1846 16.5773 15.6241 17.0168L17.6656 19.0613L22.7176 14.0093C23.1571 13.5698 23.8681 13.5698 24.3076 14.0093C24.7471 14.4488 24.7471 15.1613 24.3076 15.6008L18.4606 21.4493C18.2506 21.6608 17.9641 21.7793 17.6656 21.7793Z" fill="black"/>
</svg>
