<svg width="36" height="36" viewBox="0 0 36 36" fill="none" xmlns="http://www.w3.org/2000/svg">
<mask id="mask0_4_3805" style="mask-type:luminance" maskUnits="userSpaceOnUse" x="6" y="3" width="26" height="31">
<path fill-rule="evenodd" clip-rule="evenodd" d="M6.00037 3.0006H31.4505V33.534H6.00037V3.0006Z" fill="white"/>
</mask>
<g mask="url(#mask0_4_3805)">
<path fill-rule="evenodd" clip-rule="evenodd" d="M18.7255 5.25C17.4535 5.25 9.42702 8.076 8.50152 8.8485C8.23002 9.1215 8.21952 9.5985 8.27652 12.789C8.30502 14.328 8.34252 16.4205 8.34252 19.3185C8.34252 27.12 16.9255 30.5835 18.724 31.221C20.521 30.5805 29.1085 27.0975 29.1085 19.3185C29.1085 16.4235 29.146 14.3325 29.173 12.7935C29.2315 9.6 29.221 9.123 28.9315 8.8335C28.0225 8.076 19.9975 5.25 18.7255 5.25ZM18.7255 33.534C18.616 33.534 18.5065 33.519 18.4 33.486C17.8975 33.3345 6.09252 29.6415 6.09252 19.3185C6.09252 16.4385 6.05502 14.358 6.02802 12.831C5.95902 9.021 5.94402 8.226 6.92652 7.242C8.10702 6.0615 17.026 3 18.7255 3C20.425 3 29.344 6.0615 30.523 7.242C31.507 8.226 31.492 9.021 31.423 12.8355C31.396 14.3625 31.3585 16.443 31.3585 19.3185C31.3585 29.6415 19.5535 33.3345 19.051 33.486C18.9445 33.519 18.835 33.534 18.7255 33.534Z" fill="black"/>
</g>
<path fill-rule="evenodd" clip-rule="evenodd" d="M21.5439 21.8628C21.2559 21.8628 20.9679 21.7533 20.7489 21.5328L15.1119 15.8958C14.6724 15.4563 14.6724 14.7453 15.1119 14.3058C15.5514 13.8663 16.2624 13.8663 16.7019 14.3058L22.3389 19.9428C22.7784 20.3823 22.7784 21.0933 22.3389 21.5328C22.1199 21.7533 21.8319 21.8628 21.5439 21.8628Z" fill="black"/>
<path fill-rule="evenodd" clip-rule="evenodd" d="M15.9072 21.8628C15.6192 21.8628 15.3312 21.7533 15.1122 21.5328C14.6727 21.0933 14.6727 20.3823 15.1122 19.9428L20.7492 14.3058C21.1887 13.8663 21.8997 13.8663 22.3392 14.3058C22.7787 14.7453 22.7787 15.4563 22.3392 15.8958L16.7022 21.5328C16.4832 21.7533 16.1952 21.8628 15.9072 21.8628Z" fill="black"/>
</svg>
