<svg width="36" height="36" viewBox="0 0 36 36" fill="none" xmlns="http://www.w3.org/2000/svg">
<path fill-rule="evenodd" clip-rule="evenodd" d="M17.9994 14.462C16.0044 14.462 14.3829 16.085 14.3829 18.08C14.3829 20.0735 16.0044 21.695 17.9994 21.695C19.9944 21.695 21.6174 20.0735 21.6174 18.08C21.6174 16.085 19.9944 14.462 17.9994 14.462ZM17.9994 23.945C14.7639 23.945 12.1329 21.314 12.1329 18.08C12.1329 14.8445 14.7639 12.212 17.9994 12.212C21.2349 12.212 23.8674 14.8445 23.8674 18.08C23.8674 21.314 21.2349 23.945 17.9994 23.945Z" fill="black"/>
<mask id="mask0_4_3797" style="mask-type:luminance" maskUnits="userSpaceOnUse" x="3" y="6" width="30" height="25">
<path fill-rule="evenodd" clip-rule="evenodd" d="M3.00024 6.00031H33V30.1578H3.00024V6.00031Z" fill="white"/>
</mask>
<g mask="url(#mask0_4_3797)">
<path fill-rule="evenodd" clip-rule="evenodd" d="M5.35487 18.0788C8.14487 24.2423 12.8444 27.9068 17.9999 27.9083C23.1554 27.9068 27.8549 24.2423 30.6449 18.0788C27.8549 11.9168 23.1554 8.25226 17.9999 8.25076C12.8459 8.25226 8.14487 11.9168 5.35487 18.0788ZM18.0029 30.1583H17.9969H17.9954C11.7914 30.1538 6.22037 25.8053 3.09137 18.5228C2.96987 18.2393 2.96987 17.9183 3.09137 17.6348C6.22037 10.3538 11.7929 6.00526 17.9954 6.00076C17.9984 5.99926 17.9984 5.99926 17.9999 6.00076C18.0029 5.99926 18.0029 5.99926 18.0044 6.00076C24.2084 6.00526 29.7794 10.3538 32.9084 17.6348C33.0314 17.9183 33.0314 18.2393 32.9084 18.5228C29.7809 25.8053 24.2084 30.1538 18.0044 30.1583H18.0029Z" fill="black"/>
</g>
</svg>
