<svg width="36" height="36" viewBox="0 0 36 36" fill="none" xmlns="http://www.w3.org/2000/svg">
<path fill-rule="evenodd" clip-rule="evenodd" d="M17.6249 6.75C17.4884 6.75 17.1524 6.7875 16.9739 7.1445L14.2349 12.621C13.8014 13.4865 12.9659 14.088 11.9999 14.226L5.86787 15.1095C5.46287 15.168 5.32487 15.468 5.28287 15.594C5.24537 15.7155 5.18537 16.0245 5.46437 16.2915L9.89837 20.5515C10.6049 21.231 10.9259 22.2105 10.7579 23.169L9.71387 29.184C9.64937 29.5605 9.88487 29.7795 9.98987 29.8545C10.1009 29.9385 10.3979 30.105 10.7654 29.913L16.2479 27.0705C17.1119 26.625 18.1409 26.625 19.0019 27.0705L24.4829 29.9115C24.8519 30.102 25.1489 29.9355 25.2614 29.8545C25.3664 29.7795 25.6019 29.5605 25.5374 29.184L24.4904 23.169C24.3224 22.2105 24.6434 21.231 25.3499 20.5515L29.7839 16.2915C30.0644 16.0245 30.0044 15.714 29.9654 15.594C29.9249 15.468 29.7869 15.168 29.3819 15.1095L23.2499 14.226C22.2854 14.088 21.4499 13.4865 21.0164 12.6195L18.2744 7.1445C18.0974 6.7875 17.7614 6.75 17.6249 6.75ZM10.4204 32.25C9.80087 32.25 9.18587 32.055 8.65937 31.671C7.75037 31.005 7.30487 29.9055 7.49837 28.7985L8.54237 22.7835C8.58137 22.56 8.50487 22.3335 8.33987 22.1745L3.90587 17.9145C3.08987 17.133 2.79737 15.978 3.14237 14.9055C3.49037 13.821 4.41137 13.0455 5.54687 12.8835L11.6789 12C11.9159 11.967 12.1199 11.8215 12.2219 11.6145L14.9624 6.1365C15.4679 5.127 16.4879 4.5 17.6249 4.5C18.7619 4.5 19.7819 5.127 20.2874 6.1365L23.0294 11.613C23.1329 11.8215 23.3354 11.967 23.5709 12L29.7029 12.8835C30.8384 13.0455 31.7594 13.821 32.1074 14.9055C32.4524 15.978 32.1584 17.133 31.3424 17.9145L26.9084 22.1745C26.7434 22.3335 26.6684 22.56 26.7074 22.782L27.7529 28.7985C27.9449 29.907 27.4994 31.0065 26.5889 31.671C25.6664 32.3475 24.4649 32.439 23.4464 31.908L17.9669 29.0685C17.7524 28.9575 17.4959 28.9575 17.2814 29.0685L11.8019 31.9095C11.3639 32.1375 10.8914 32.25 10.4204 32.25Z" fill="black"/>
</svg>
