<svg width="36" height="36" viewBox="0 0 36 36" fill="none" xmlns="http://www.w3.org/2000/svg">
<path d="M25.2593 8.69467C25.8288 8.69467 26.2995 9.1179 26.374 9.66702L26.3843 9.81967V30.2463C26.3843 30.8677 25.8806 31.3713 25.2593 31.3713C24.6897 31.3713 24.219 30.9481 24.1445 30.399L24.1343 30.2463V9.81967C24.1343 9.19835 24.638 8.69467 25.2593 8.69467Z" fill="black"/>
<path d="M30.5785 23.3085C31.0168 22.8682 31.7291 22.8665 32.1694 23.3048C32.5698 23.7033 32.6075 24.3282 32.2818 24.7694L32.1731 24.8958L26.0565 31.0408C25.6567 31.4425 25.0293 31.479 24.5881 31.1504L24.4618 31.0408L18.3451 24.8958C17.9068 24.4555 17.9084 23.7432 18.3488 23.3048C18.7491 22.9064 19.3742 22.8715 19.8139 23.1993L19.9398 23.3085L25.2585 28.6515L30.5785 23.3085Z" fill="black"/>
<path d="M10.3666 4.62433C10.9361 4.62433 11.4068 5.04756 11.4813 5.59667L11.4916 5.74933V26.176C11.4916 26.7973 10.9879 27.301 10.3666 27.301C9.79703 27.301 9.32634 26.8778 9.25185 26.3287L9.24158 26.176V5.74933C9.24158 5.12801 9.74526 4.62433 10.3666 4.62433Z" fill="black"/>
<path d="M9.56946 4.95485C9.96924 4.55322 10.5966 4.51671 11.0378 4.84531L11.1641 4.95485L17.2808 11.0998C17.7191 11.5402 17.7175 12.2525 17.2771 12.6908C16.8768 13.0893 16.2517 13.1242 15.812 12.7964L15.6861 12.6872L10.3665 7.3425L5.04745 12.6872C4.64898 13.0875 4.02407 13.1252 3.5829 12.7995L3.45647 12.6908C3.05615 12.2924 3.01839 11.6674 3.34416 11.2263L3.45279 11.0998L9.56946 4.95485Z" fill="black"/>
</svg>
