<svg width="36" height="36" viewBox="0 0 36 36" fill="none" xmlns="http://www.w3.org/2000/svg">
<path fill-rule="evenodd" clip-rule="evenodd" d="M20.3994 12.2563C19.7784 12.2563 19.2744 11.7523 19.2744 11.1313V7.49985C19.2744 6.87885 19.7784 6.37485 20.3994 6.37485C21.0204 6.37485 21.5244 6.87885 21.5244 7.49985V11.1313C21.5244 11.7523 21.0204 12.2563 20.3994 12.2563Z" fill="black"/>
<path fill-rule="evenodd" clip-rule="evenodd" d="M20.3994 31.9263C19.7784 31.9263 19.2744 31.4223 19.2744 30.8013V27.7668C19.2744 27.1443 19.7784 26.6418 20.3994 26.6418C21.0204 26.6418 21.5244 27.1443 21.5244 27.7668V30.8013C21.5244 31.4223 21.0204 31.9263 20.3994 31.9263Z" fill="black"/>
<path fill-rule="evenodd" clip-rule="evenodd" d="M20.3994 23.7378C19.7784 23.7378 19.2744 23.2338 19.2744 22.6128V15.3813C19.2744 14.7603 19.7784 14.2563 20.3994 14.2563C21.0204 14.2563 21.5244 14.7603 21.5244 15.3813V22.6128C21.5244 23.2338 21.0204 23.7378 20.3994 23.7378Z" fill="black"/>
<mask id="mask0_4_3751" style="mask-type:luminance" maskUnits="userSpaceOnUse" x="1" y="6" width="33" height="27">
<path fill-rule="evenodd" clip-rule="evenodd" d="M1.5 6H33.75V32.2495H1.5V6Z" fill="white"/>
</mask>
<g mask="url(#mask0_4_3751)">
<path fill-rule="evenodd" clip-rule="evenodd" d="M3.75 23.3305V26.239C3.75 28.312 5.4645 29.9995 7.572 29.9995H27.678C29.7855 29.9995 31.5 28.312 31.5 26.239V23.3305C29.6235 22.837 28.2345 21.139 28.2345 19.126C28.2345 17.1115 29.622 15.415 31.5 14.9215L31.4985 12.01C31.4985 9.93704 29.784 8.24954 27.6765 8.24954H7.5735C5.466 8.24954 3.7515 9.93704 3.7515 12.01L3.75 15.037C5.6505 15.5035 7.0155 17.1325 7.0155 19.126C7.0155 21.139 5.6265 22.837 3.75 23.3305ZM27.678 32.2495H7.572C4.224 32.2495 1.5 29.5525 1.5 26.239V22.351C1.5 21.73 2.004 21.226 2.625 21.226C3.8055 21.226 4.7655 20.284 4.7655 19.126C4.7655 18.001 3.8445 17.152 2.625 17.152C2.3265 17.152 2.04 17.0335 1.83 16.822C1.6185 16.612 1.5 16.324 1.5 16.027L1.5015 12.01C1.5015 8.69654 4.2255 5.99954 7.5735 5.99954H27.6765C31.0245 5.99954 33.7485 8.69654 33.7485 12.01L33.75 15.901C33.75 16.198 33.6315 16.486 33.42 16.696C33.21 16.9075 32.9235 17.026 32.625 17.026C31.4445 17.026 30.4845 17.968 30.4845 19.126C30.4845 20.284 31.4445 21.226 32.625 21.226C33.246 21.226 33.75 21.73 33.75 22.351V26.239C33.75 29.5525 31.026 32.2495 27.678 32.2495Z" fill="black"/>
</g>
</svg>
