<svg width="36" height="36" viewBox="0 0 36 36" fill="#FFFFFF" xmlns="http://www.w3.org/2000/svg">
    <path fill-rule="evenodd" clip-rule="evenodd"
          d="M11.4975 5.25C7.7025 5.25 5.25 7.8495 5.25 11.874V24.126C5.25 28.1505 7.7025 30.75 11.4975 30.75H24.4995C28.296 30.75 30.75 28.1505 30.75 24.126V11.874C30.75 7.8495 28.296 5.25 24.501 5.25H11.4975ZM24.4995 33H11.4975C6.414 33 3 29.433 3 24.126V11.874C3 6.567 6.414 3 11.4975 3H24.501C29.5845 3 33 6.567 33 11.874V24.126C33 29.433 29.5845 33 24.4995 33Z"
          fill="black"/>
    <path fill-rule="evenodd" clip-rule="evenodd"
          d="M16.2203 22.6845C15.9338 22.6845 15.6443 22.575 15.4253 22.3545L11.8643 18.795C11.4248 18.3555 11.4248 17.6445 11.8643 17.205C12.3038 16.7655 13.0148 16.7655 13.4543 17.205L16.2203 19.968L22.5443 13.6455C22.9838 13.206 23.6948 13.206 24.1343 13.6455C24.5738 14.085 24.5738 14.796 24.1343 15.2355L17.0153 22.3545C16.7963 22.575 16.5083 22.6845 16.2203 22.6845Z"
          fill="black"/>
</svg>
