<svg width="36" height="36" viewBox="0 0 36 36" fill="none" xmlns="http://www.w3.org/2000/svg">
<mask id="mask0_4_3772" style="mask-type:luminance" maskUnits="userSpaceOnUse" x="3" y="4" width="30" height="28">
<path fill-rule="evenodd" clip-rule="evenodd" d="M3 4.50075H33V31.7498H3V4.50075Z" fill="white"/>
</mask>
<g mask="url(#mask0_4_3772)">
<path fill-rule="evenodd" clip-rule="evenodd" d="M5.25 22.4693V25.5368C5.25 26.5958 5.661 27.5903 6.4095 28.3388C7.158 29.0873 8.154 29.4998 9.2115 29.4998H26.7855C28.9695 29.4998 30.7485 27.7238 30.75 25.5398V22.4678C28.821 21.9683 27.3915 20.2118 27.39 18.1283C27.39 16.0448 28.8195 14.2883 30.7485 13.7873L30.75 10.7198C30.7515 8.53275 28.977 6.75225 26.7915 6.75075H9.216C7.0305 6.75075 5.2515 8.52825 5.25 10.7138V13.8893C5.979 14.0633 6.6555 14.4218 7.218 14.9468C8.0715 15.7433 8.5635 16.8233 8.6055 17.9903C8.61 20.1893 7.1805 21.9653 5.25 22.4693ZM26.7855 31.7498H9.213C7.5525 31.7498 5.9925 31.1047 4.818 29.9303C3.645 28.7558 3 27.1958 3 25.5368V21.4868C3 20.8658 3.504 20.3618 4.125 20.3618C5.361 20.3603 6.36 19.3583 6.3585 18.1283C6.3375 17.5013 6.0975 16.9793 5.6835 16.5923C5.271 16.2053 4.737 15.9938 4.164 16.0253C3.8535 16.0283 3.5625 15.9218 3.3435 15.7103C3.1245 15.4988 3 15.2048 3 14.9003V10.7153C3.0015 7.28775 5.79 4.50075 9.216 4.50075H26.784C30.219 4.50225 33.003 7.29525 33 10.7213V14.7698C33 15.3908 32.496 15.8948 31.875 15.8948C30.6435 15.8948 29.64 16.8968 29.64 18.1268C29.6415 19.3598 30.6435 20.3618 31.875 20.3618C32.496 20.3618 33 20.8658 33 21.4868V25.5368C32.9985 28.9628 30.21 31.7498 26.7855 31.7498Z" fill="black"/>
</g>
<path fill-rule="evenodd" clip-rule="evenodd" d="M15.1559 17.0723L15.9194 17.8163C16.3334 18.2228 16.5209 18.8018 16.4219 19.3673L16.2419 20.4143L17.1854 19.9178C17.6939 19.6463 18.3044 19.6478 18.8174 19.9208L19.7549 20.4128L19.5749 19.3643C19.4804 18.7898 19.6694 18.2153 20.0789 17.8163L20.8424 17.0723L19.7849 16.9193C19.2179 16.8368 18.7259 16.4798 18.4724 15.9623L17.9999 15.0068L17.5274 15.9638C17.2739 16.4798 16.7819 16.8368 16.2119 16.9193L15.1559 17.0723ZM20.4269 23.0813C20.1479 23.0813 19.8689 23.0138 19.6109 22.8773L17.9999 22.0328L16.3874 22.8788C15.7934 23.1893 15.0869 23.1398 14.5469 22.7468C14.0054 22.3523 13.7399 21.6983 13.8524 21.0383L14.1599 19.2443L12.8564 17.9738C12.3779 17.5073 12.2069 16.8218 12.4124 16.1858C12.6194 15.5483 13.1594 15.0908 13.8209 14.9948L15.6269 14.7308L16.4324 13.0973C16.7279 12.4973 17.3279 12.1238 17.9999 12.1238C18.6689 12.1238 19.2704 12.4973 19.5659 13.0988L20.3729 14.7308L22.1759 14.9948C22.8389 15.0908 23.3804 15.5483 23.5859 16.1858C23.7914 16.8218 23.6219 17.5073 23.1419 17.9753L21.8369 19.2458L22.1459 21.0383C22.2584 21.6998 21.9914 22.3553 21.4484 22.7483C21.1424 22.9688 20.7854 23.0813 20.4269 23.0813Z" fill="black"/>
</svg>
