<svg width="36" height="36" viewBox="0 0 36 36" fill="none" xmlns="http://www.w3.org/2000/svg">
<path fill-rule="evenodd" clip-rule="evenodd" d="M18 5.25C10.9695 5.25 5.25 10.9695 5.25 18C5.25 25.0305 10.9695 30.75 18 30.75C25.0305 30.75 30.75 25.0305 30.75 18C30.75 10.9695 25.0305 5.25 18 5.25ZM18 33C9.729 33 3 26.271 3 18C3 9.729 9.729 3 18 3C26.271 3 33 9.729 33 18C33 26.271 26.271 33 18 33Z" fill="black"/>
<path fill-rule="evenodd" clip-rule="evenodd" d="M23.1468 23.5386C22.9503 23.5386 22.7523 23.4876 22.5708 23.3811L16.9158 20.0076C16.5768 19.8036 16.3668 19.4361 16.3668 19.0401V11.7681C16.3668 11.1471 16.8708 10.6431 17.4918 10.6431C18.1143 10.6431 18.6168 11.1471 18.6168 11.7681V18.4011L23.7243 21.4461C24.2568 21.7656 24.4323 22.4556 24.1143 22.9896C23.9028 23.3421 23.5293 23.5386 23.1468 23.5386Z" fill="black"/>
</svg>
