<svg width="36" height="36" viewBox="0 0 36 36" fill="none" xmlns="http://www.w3.org/2000/svg">
<path fill-rule="evenodd" clip-rule="evenodd" d="M11.7041 15.2974C11.0831 15.2974 10.5791 14.7934 10.5791 14.1724V10.9519C10.5986 6.54494 14.1626 3.00044 18.5321 3.00044H18.5621C21.9461 3.00044 24.9671 5.14994 26.0756 8.35094C26.2796 8.93744 25.9676 9.57794 25.3796 9.78194C24.7931 9.98744 24.1526 9.67394 23.9486 9.08594C23.1551 6.79244 20.9876 5.25044 18.5576 5.25044H18.5366C15.3986 5.25044 12.8426 7.79144 12.8291 10.9264V14.1724C12.8291 14.7934 12.3251 15.2974 11.7041 15.2974Z" fill="black"/>
<path fill-rule="evenodd" clip-rule="evenodd" d="M12.813 15.1905C10.296 15.1905 8.25 17.238 8.25 19.755V26.187C8.25 28.704 10.296 30.7515 12.813 30.7515H24.276C26.7915 30.7515 28.839 28.704 28.839 26.187V19.755C28.839 17.238 26.7915 15.1905 24.276 15.1905H12.813ZM24.276 33.0015H12.813C9.0555 33.0015 6 29.9445 6 26.187V19.755C6 15.9975 9.0555 12.9405 12.813 12.9405H24.276C28.032 12.9405 31.089 15.9975 31.089 19.755V26.187C31.089 29.9445 28.032 33.0015 24.276 33.0015Z" fill="black"/>
<path fill-rule="evenodd" clip-rule="evenodd" d="M18.5449 25.7622C17.9239 25.7622 17.4199 25.2582 17.4199 24.6372V21.3042C17.4199 20.6832 17.9239 20.1792 18.5449 20.1792C19.1659 20.1792 19.6699 20.6832 19.6699 21.3042V24.6372C19.6699 25.2582 19.1659 25.7622 18.5449 25.7622Z" fill="black"/>
</svg>
