<svg width="36" height="36" viewBox="0 0 36 36" fill="none" xmlns="http://www.w3.org/2000/svg">
<mask id="mask0_4_3801" style="mask-type:luminance" maskUnits="userSpaceOnUse" x="3" y="13" width="30" height="21">
<path fill-rule="evenodd" clip-rule="evenodd" d="M3.00061 13.1912H33V33.8072H3.00061V13.1912Z" fill="white"/>
</mask>
<g mask="url(#mask0_4_3801)">
<path fill-rule="evenodd" clip-rule="evenodd" d="M26.3481 33.8072H9.65311C5.98561 33.8072 3.00061 30.8237 3.00061 27.1547V19.8422C3.00061 16.1747 5.98561 13.1912 9.65311 13.1912H11.0526C11.6736 13.1912 12.1776 13.6952 12.1776 14.3162C12.1776 14.9372 11.6736 15.4412 11.0526 15.4412H9.65311C7.22461 15.4412 5.25061 17.4152 5.25061 19.8422V27.1547C5.25061 29.5832 7.22461 31.5572 9.65311 31.5572H26.3481C28.7751 31.5572 30.7506 29.5832 30.7506 27.1547V19.8287C30.7506 17.4092 28.7826 15.4412 26.3646 15.4412H24.9501C24.3291 15.4412 23.8251 14.9372 23.8251 14.3162C23.8251 13.6952 24.3291 13.1912 24.9501 13.1912H26.3646C30.0231 13.1912 33.0006 16.1687 33.0006 19.8287V27.1547C33.0006 30.8237 30.0156 33.8072 26.3481 33.8072Z" fill="black"/>
</g>
<mask id="mask1_4_3801" style="mask-type:luminance" maskUnits="userSpaceOnUse" x="16" y="3" width="4" height="21">
<path fill-rule="evenodd" clip-rule="evenodd" d="M16.875 3.00015H19.125V23.3115H16.875V3.00015Z" fill="white"/>
</mask>
<g mask="url(#mask1_4_3801)">
<path fill-rule="evenodd" clip-rule="evenodd" d="M18 23.3115C17.379 23.3115 16.875 22.8075 16.875 22.1865V4.125C16.875 3.504 17.379 3 18 3C18.621 3 19.125 3.504 19.125 4.125V22.1865C19.125 22.8075 18.621 23.3115 18 23.3115Z" fill="black"/>
</g>
<path fill-rule="evenodd" clip-rule="evenodd" d="M13.6276 9.64305C13.3411 9.64305 13.0531 9.53355 12.8341 9.31455C12.3946 8.87655 12.3916 8.16555 12.8311 7.72455L17.2036 3.33255C17.6251 2.90805 18.3751 2.90805 18.7966 3.33255L23.1706 7.72455C23.6086 8.16555 23.6071 8.87655 23.1676 9.31455C22.7266 9.75255 22.0156 9.75255 21.5776 9.31155L18.0001 5.72055L14.4241 9.31155C14.2051 9.53355 13.9156 9.64305 13.6276 9.64305Z" fill="black"/>
</svg>
