<svg width="36" height="36" viewBox="0 0 36 36" fill="none" xmlns="http://www.w3.org/2000/svg">
<mask id="mask0_4_3780" style="mask-type:luminance" maskUnits="userSpaceOnUse" x="3" y="7" width="24" height="24">
<path fill-rule="evenodd" clip-rule="evenodd" d="M3.00024 7.50037H26.2507V30.7524H3.00024V7.50037Z" fill="white"/>
</mask>
<g mask="url(#mask0_4_3780)">
<path fill-rule="evenodd" clip-rule="evenodd" d="M10.2709 9.75239C9.6124 9.75239 9.1879 9.75239 9.1144 9.75539C8.0074 9.80189 6.9859 10.2714 6.2494 11.0754C5.5624 11.8269 5.2084 12.7869 5.2549 13.7829C5.2549 18.1224 5.2564 24.6354 5.2669 24.9924C5.4379 27.0699 7.3849 28.6584 9.6139 28.4874C13.7389 28.4934 19.8499 28.5069 20.1364 28.4964C21.2389 28.4514 22.2619 27.9834 22.9984 27.1809C23.6869 26.4324 24.0409 25.4724 23.9974 24.4809C23.9959 24.4644 23.9959 24.4479 23.9959 24.4314C23.9974 20.1414 23.9974 13.6329 23.9869 13.2834C23.8174 11.1954 21.8614 9.58739 19.6204 9.76289C16.5214 9.75839 12.2929 9.75239 10.2709 9.75239ZM9.2194 30.7524C6.0484 30.7539 3.2824 28.3239 3.0214 25.1364C3.0169 25.0749 3.0019 24.8874 3.0064 13.8339C2.9344 12.2874 3.4954 10.7514 4.5904 9.55589C5.7334 8.30789 7.3099 7.58039 9.0304 7.50689C9.2389 7.49189 16.4509 7.50989 19.5394 7.51589C22.9144 7.27889 25.9609 9.78389 26.2324 13.1454C26.2444 13.3089 26.2489 17.0964 26.2459 24.4089C26.3089 25.9929 25.7449 27.5184 24.6559 28.7034C23.5114 29.9499 21.9334 30.6744 20.2144 30.7449C20.0044 30.7599 12.7894 30.7404 9.6964 30.7344C9.5374 30.7464 9.3784 30.7524 9.2194 30.7524Z" fill="black"/>
</g>
<path fill-rule="evenodd" clip-rule="evenodd" d="M31.2277 27.5239C30.5512 27.5239 29.8837 27.2914 29.3332 26.8399L24.4117 22.7959C23.9317 22.4014 23.8627 21.6919 24.2572 21.2119C24.6502 20.7334 25.3597 20.6614 25.8397 21.0574L30.7597 25.1014C31.0912 25.3714 31.4242 25.2604 31.5532 25.1974C31.6822 25.1374 31.9807 24.9499 31.9807 24.5239L31.9987 13.5004C32.0002 13.0744 31.7002 12.8869 31.5712 12.8254C31.4437 12.7654 31.1062 12.6529 30.7777 12.9229L25.8382 16.9654C25.3552 17.3599 24.6487 17.2894 24.2557 16.8064C23.8612 16.3264 23.9332 15.6184 24.4132 15.2254L29.3527 11.1814C30.2587 10.4389 31.4782 10.2934 32.5357 10.7929C33.5932 11.2954 34.2502 12.3334 34.2487 13.5034L34.2307 24.5269C34.2292 25.6969 33.5707 26.7349 32.5147 27.2329C32.1007 27.4294 31.6627 27.5239 31.2277 27.5239Z" fill="black"/>
</svg>
