<svg width="36" height="36" viewBox="0 0 36 36" fill="none" xmlns="http://www.w3.org/2000/svg">
<path fill-rule="evenodd" clip-rule="evenodd" d="M17.625 33.75C17.004 33.75 16.5 33.246 16.5 32.625V27.8835C16.5 27.2625 17.004 26.7585 17.625 26.7585C18.246 26.7585 18.75 27.2625 18.75 27.8835V32.625C18.75 33.246 18.246 33.75 17.625 33.75Z" fill="black"/>
<path fill-rule="evenodd" clip-rule="evenodd" d="M17.625 3.75C14.886 3.75 12.657 5.991 12.657 8.7465V15.7785C12.657 18.531 14.886 20.7735 17.625 20.7735C20.364 20.7735 22.5915 18.531 22.5915 15.7785V8.7465C22.5915 5.991 20.364 3.75 17.625 3.75ZM17.625 23.0235C13.6455 23.0235 10.407 19.773 10.407 15.7785V8.7465C10.407 4.7505 13.6455 1.5 17.625 1.5C21.6045 1.5 24.8415 4.7505 24.8415 8.7465V15.7785C24.8415 19.773 21.6045 23.0235 17.625 23.0235Z" fill="black"/>
<path fill-rule="evenodd" clip-rule="evenodd" d="M17.625 29.0084C10.3875 29.0084 4.5 23.0954 4.5 15.8264C4.5 15.2054 5.004 14.7014 5.625 14.7014C6.246 14.7014 6.75 15.2054 6.75 15.8264C6.75 21.8534 11.628 26.7584 17.625 26.7584C23.622 26.7584 28.5 21.8534 28.5 15.8264C28.5 15.2054 29.004 14.7014 29.625 14.7014C30.246 14.7014 30.75 15.2054 30.75 15.8264C30.75 23.0954 24.8625 29.0084 17.625 29.0084Z" fill="black"/>
<path fill-rule="evenodd" clip-rule="evenodd" d="M23.7129 10.8839H20.7279C20.1069 10.8839 19.6029 10.3799 19.6029 9.75885C19.6029 9.13785 20.1069 8.63385 20.7279 8.63385H23.7129C24.3339 8.63385 24.8379 9.13785 24.8379 9.75885C24.8379 10.3799 24.3339 10.8839 23.7129 10.8839Z" fill="black"/>
<path fill-rule="evenodd" clip-rule="evenodd" d="M23.7157 15.8907H19.2307C18.6097 15.8907 18.1057 15.3867 18.1057 14.7657C18.1057 14.1447 18.6097 13.6407 19.2307 13.6407H23.7157C24.3367 13.6407 24.8407 14.1447 24.8407 14.7657C24.8407 15.3867 24.3367 15.8907 23.7157 15.8907Z" fill="black"/>
</svg>
