<svg width="36" height="36" viewBox="0 0 36 36" fill="none" xmlns="http://www.w3.org/2000/svg">
<path fill-rule="evenodd" clip-rule="evenodd" d="M17.6243 33.75C17.0033 33.75 16.4993 33.246 16.4993 32.625V27.8835C16.4993 27.2625 17.0033 26.7585 17.6243 26.7585C18.2453 26.7585 18.7493 27.2625 18.7493 27.8835V32.625C18.7493 33.246 18.2453 33.75 17.6243 33.75Z" fill="black"/>
<path fill-rule="evenodd" clip-rule="evenodd" d="M17.6243 3.75C14.8853 3.75 12.6562 5.991 12.6562 8.7465V15.7785C12.6562 18.531 14.8853 20.7735 17.6243 20.7735C20.3633 20.7735 22.5923 18.531 22.5923 15.7785V8.7465C22.5923 5.991 20.3633 3.75 17.6243 3.75ZM17.6242 23.0235C13.6447 23.0235 10.4062 19.773 10.4062 15.7785V8.7465C10.4062 4.7505 13.6447 1.5 17.6242 1.5C21.6038 1.5 24.8422 4.7505 24.8422 8.7465V15.7785C24.8422 19.773 21.6038 23.0235 17.6242 23.0235Z" fill="black"/>
<mask id="mask0_4_3808" style="mask-type:luminance" maskUnits="userSpaceOnUse" x="4" y="14" width="27" height="16">
<path fill-rule="evenodd" clip-rule="evenodd" d="M4.5 14.7014H30.7493V29.0084H4.5V14.7014Z" fill="white"/>
</mask>
<g mask="url(#mask0_4_3808)">
<path fill-rule="evenodd" clip-rule="evenodd" d="M17.6243 29.0084C10.3868 29.0084 4.49927 23.0954 4.49927 15.8264C4.49927 15.2054 5.00327 14.7014 5.62427 14.7014C6.24677 14.7014 6.74927 15.2054 6.74927 15.8264C6.74927 21.8534 11.6273 26.7584 17.6243 26.7584C23.6213 26.7584 28.4993 21.8534 28.4993 15.8264C28.4993 15.2054 29.0033 14.7014 29.6243 14.7014C30.2468 14.7014 30.7493 15.2054 30.7493 15.8264C30.7493 23.0954 24.8618 29.0084 17.6243 29.0084Z" fill="black"/>
</g>
</svg>
