<svg width="36" height="36" viewBox="0 0 36 36" fill="none" xmlns="http://www.w3.org/2000/svg">
<mask id="mask0_4_3755" style="mask-type:luminance" maskUnits="userSpaceOnUse" x="3" y="7" width="19" height="24">
<path fill-rule="evenodd" clip-rule="evenodd" d="M3.00012 7.5003H21.0301V30.7532H3.00012V7.5003Z" fill="white"/>
</mask>
<g mask="url(#mask0_4_3755)">
<path fill-rule="evenodd" clip-rule="evenodd" d="M16.8121 9.75915C15.5101 9.75915 13.8451 11.0806 12.4591 12.1816C11.1256 13.2391 10.0726 14.0761 9.0226 14.1542C8.5576 14.1872 8.1586 14.2021 7.8076 14.2141C6.6871 14.2516 6.4036 14.2771 5.8981 14.6941C5.2351 15.2386 5.2456 17.4632 5.2516 18.7907L5.2531 19.1222V19.1281L5.2516 19.4597C5.2456 20.7887 5.2351 23.0132 5.8981 23.5577C6.4021 23.9747 6.6856 23.9987 7.8031 24.0392C8.1556 24.0497 8.5561 24.0647 9.0226 24.0992C10.0726 24.1757 11.1256 25.0126 12.4591 26.0702C14.1136 27.3827 16.1626 29.0102 17.5216 28.3337C18.6586 27.3482 18.7801 24.7352 18.7801 19.1251C18.7801 13.5151 18.6586 10.9036 17.5216 9.91665C17.3011 9.80715 17.0626 9.75915 16.8121 9.75915ZM16.8271 30.7532C14.7406 30.7532 12.6721 29.1107 11.0611 27.8327C10.3336 27.2551 9.2341 26.3822 8.8546 26.3432C8.4241 26.3102 8.0521 26.2967 7.7236 26.2877C6.5266 26.2442 5.5801 26.2127 4.4671 25.2947C2.9791 24.0692 2.9926 21.5072 3.0016 19.4492L3.0031 19.1252L3.0016 18.8012C2.9926 16.7431 2.9791 14.1827 4.4671 12.9571C5.5816 12.0391 6.5296 12.0061 7.7296 11.9656C8.0566 11.9536 8.4271 11.9416 8.8576 11.9102C9.2341 11.8696 10.3336 10.9966 11.0611 10.4191C13.1596 8.75265 16.0336 6.47715 18.7111 8.00265C18.7576 8.03115 18.8041 8.06115 18.8461 8.09565C20.9371 9.73815 21.0301 12.8356 21.0301 19.1252C21.0301 25.4162 20.9371 28.5137 18.8461 30.1577C18.8041 30.1907 18.7576 30.2222 18.7096 30.2492C18.0886 30.6032 17.4571 30.7532 16.8271 30.7532Z" fill="black"/>
</g>
<mask id="mask1_4_3755" style="mask-type:luminance" maskUnits="userSpaceOnUse" x="28" y="8" width="6" height="22">
<path fill-rule="evenodd" clip-rule="evenodd" d="M28.6257 8.85537H33.7259V29.3939H28.6257V8.85537Z" fill="white"/>
</mask>
<g mask="url(#mask1_4_3755)">
<path fill-rule="evenodd" clip-rule="evenodd" d="M29.7503 29.3939C29.5283 29.3939 29.3048 29.3279 29.1083 29.1914C28.5983 28.8374 28.4723 28.1369 28.8278 27.6254C32.4173 22.4654 32.4173 15.7919 28.8278 10.6229C28.4723 10.1129 28.5983 9.41235 29.1098 9.05685C29.6198 8.70135 30.3188 8.82885 30.6743 9.34035C34.7438 15.1964 34.7438 23.0609 30.6743 28.9124C30.4553 29.2259 30.1058 29.3939 29.7503 29.3939Z" fill="black"/>
</g>
<path fill-rule="evenodd" clip-rule="evenodd" d="M25.9959 25.7802C25.8054 25.7802 25.6134 25.7322 25.4364 25.6302C24.8979 25.3212 24.7119 24.6327 25.0209 24.0957C26.7774 21.0342 26.7774 17.2272 25.0209 14.1567C24.7119 13.6167 24.8994 12.9297 25.4379 12.6207C25.9779 12.3177 26.6634 12.4992 26.9724 13.0377C29.1249 16.7997 29.1249 21.4647 26.9724 25.2147C26.7639 25.5777 26.3859 25.7802 25.9959 25.7802Z" fill="black"/>
</svg>
