<svg width="36" height="35" viewBox="0 0 36 35" fill="none" xmlns="http://www.w3.org/2000/svg">
<mask id="mask0_4_3762" style="mask-type:luminance" maskUnits="userSpaceOnUse" x="4" y="7" width="19" height="23">
<path fill-rule="evenodd" clip-rule="evenodd" d="M4.50012 7.29196H22.5301V29.8989H4.50012V7.29196Z" fill="white"/>
</mask>
<g mask="url(#mask0_4_3762)">
<path fill-rule="evenodd" clip-rule="evenodd" d="M18.3121 9.48807C17.0101 9.48807 15.3451 10.7729 13.9591 11.8433C12.6256 12.8714 11.5726 13.6852 10.5226 13.761C10.0576 13.7931 9.6586 13.8077 9.3076 13.8193C8.1871 13.8558 7.9036 13.8806 7.3981 14.286C6.7351 14.8154 6.7456 16.9781 6.7516 18.2687L6.7531 18.591V18.5968L6.7516 18.9191C6.7456 20.2112 6.7351 22.3739 7.3981 22.9033C7.9021 23.3087 8.1856 23.332 9.3031 23.3714C9.6556 23.3816 10.0561 23.3962 10.5226 23.4297C11.5726 23.5041 12.6256 24.3179 13.9591 25.346C15.6136 26.622 17.6641 28.2043 19.0216 27.5466C20.1586 26.5885 20.2801 24.0481 20.2801 18.5939C20.2801 13.1397 20.1586 10.6008 19.0216 9.6412C18.8011 9.53474 18.5626 9.48807 18.3121 9.48807ZM18.3271 29.8989C16.2406 29.8989 14.1721 28.302 12.5611 27.0595C11.8336 26.4981 10.7341 25.6493 10.3546 25.6114C9.9241 25.5793 9.5521 25.5662 9.2236 25.5574C8.0266 25.5152 7.0801 25.4845 5.9671 24.592C4.4791 23.4006 4.4926 20.9097 4.5016 18.9089L4.5031 18.5939L4.5016 18.2789C4.4926 16.2781 4.4791 13.7887 5.9671 12.5972C7.0816 11.7047 8.0296 11.6727 9.2296 11.6333C9.5566 11.6216 9.9271 11.6099 10.3576 11.5793C10.7341 11.5399 11.8336 10.6912 12.5611 10.1297C14.6581 8.50953 17.5336 6.29724 20.2111 7.78036C20.2576 7.80807 20.3041 7.83724 20.3461 7.87078C22.4371 9.46765 22.5301 12.4791 22.5301 18.5939C22.5301 24.7102 22.4371 27.7216 20.3461 29.3199C20.3041 29.352 20.2576 29.3827 20.2096 29.4089C19.5886 29.7531 18.9571 29.8989 18.3271 29.8989Z" fill="black"/>
</g>
<path fill-rule="evenodd" clip-rule="evenodd" d="M27.4959 25.0641C27.3054 25.0641 27.1134 25.0174 26.9364 24.9183C26.3979 24.6178 26.2119 23.9485 26.5209 23.4264C28.2774 20.4499 28.2774 16.7487 26.5209 13.7635C26.2119 13.2385 26.3994 12.5705 26.9379 12.2701C27.4779 11.9755 28.1634 12.152 28.4724 12.6755C30.6249 16.333 30.6249 20.8685 28.4724 24.5143C28.2639 24.8672 27.8859 25.0641 27.4959 25.0641Z" fill="black"/>
</svg>
