<svg width="36" height="36" viewBox="0 0 36 36" fill="none" xmlns="http://www.w3.org/2000/svg">
<mask id="mask0_4_3754" style="mask-type:luminance" maskUnits="userSpaceOnUse" x="4" y="6" width="19" height="21">
<path fill-rule="evenodd" clip-rule="evenodd" d="M4.5 6.90155H22.5506V26.6809H4.5V6.90155Z" fill="white"/>
</mask>
<g mask="url(#mask0_4_3754)">
<path fill-rule="evenodd" clip-rule="evenodd" d="M18.3458 9.16694C17.0468 9.16694 15.3773 10.5409 13.9883 11.6839C12.6533 12.7819 11.6003 13.6489 10.5428 13.7329C10.0703 13.7689 9.66527 13.7854 9.30827 13.7989C8.19977 13.8394 7.91927 13.8664 7.42127 14.2924C6.74177 14.8729 6.74777 17.1949 6.75077 18.5809L6.75226 18.9499L6.75077 19.3204C6.74777 20.7064 6.74177 23.0284 7.42127 23.6089C7.92977 24.0439 8.21777 24.0709 9.35327 24.1099C9.69677 24.1219 10.0853 24.1354 10.5338 24.1669C10.6628 24.1759 10.7948 24.1969 10.9298 24.2299L20.2868 14.8729C20.1773 11.5354 19.8398 10.0384 19.0448 9.32744C18.8288 9.21644 18.5948 9.16694 18.3458 9.16694ZM11.1953 26.6809C11.0018 26.6809 10.8083 26.6314 10.6328 26.5294C10.4528 26.4259 10.3703 26.4109 10.3703 26.4109C9.95626 26.3824 9.59627 26.3689 9.27527 26.3584C8.05127 26.3164 7.08377 26.2819 5.95877 25.3204C4.48877 24.0634 4.49477 21.4309 4.50077 19.3144L4.50227 18.9499L4.50077 18.5869C4.49477 16.4704 4.48877 13.8364 5.96027 12.5809C7.07027 11.6314 8.02127 11.5954 9.22276 11.5504C9.55427 11.5369 9.92776 11.5234 10.3658 11.4889C10.7423 11.4409 11.8358 10.5409 12.5588 9.94693C14.6678 8.20843 17.5583 5.82943 20.2613 7.43143C20.3108 7.45843 20.3573 7.49143 20.4008 7.52743C22.0868 8.89994 22.4468 11.2219 22.5503 15.2974C22.5578 15.6049 22.4393 15.9019 22.2203 16.1209L11.9918 26.3509C11.7743 26.5684 11.4863 26.6809 11.1953 26.6809Z" fill="black"/>
</g>
<path fill-rule="evenodd" clip-rule="evenodd" d="M18.3493 30.999C16.8343 30.999 15.3958 30.1215 14.3293 29.349C13.8253 28.986 13.7128 28.2825 14.0758 27.78C14.4418 27.276 15.1453 27.1605 15.6478 27.528C17.6173 28.9515 18.5053 28.857 19.0438 28.575C19.9168 27.7965 20.2483 26.0445 20.2993 21.9855C20.3083 21.3645 20.7628 20.8815 21.4393 20.8755C22.0603 20.8845 22.5583 21.3945 22.5493 22.0155C22.4923 26.448 22.1443 28.9575 20.3998 30.375C20.3548 30.4095 20.3098 30.4425 20.2618 30.4695C19.6258 30.846 18.9808 30.999 18.3493 30.999Z" fill="black"/>
<mask id="mask1_4_3754" style="mask-type:luminance" maskUnits="userSpaceOnUse" x="4" y="6" width="27" height="27">
<path fill-rule="evenodd" clip-rule="evenodd" d="M4.50269 6.00037H30.7501V32.25H4.50269V6.00037Z" fill="white"/>
</mask>
<g mask="url(#mask1_4_3754)">
<path fill-rule="evenodd" clip-rule="evenodd" d="M5.62731 32.25C5.33931 32.25 5.05131 32.1405 4.83231 31.92C4.39281 31.4805 4.39281 30.7695 4.83231 30.33L28.8308 6.32999C29.2703 5.89049 29.9813 5.89049 30.4208 6.32999C30.8603 6.76949 30.8603 7.48049 30.4208 7.91999L6.42231 31.92C6.20331 32.1405 5.91531 32.25 5.62731 32.25Z" fill="black"/>
</g>
</svg>
