<svg width="36" height="36" viewBox="0 0 36 36" fill="none" xmlns="http://www.w3.org/2000/svg">
<path fill-rule="evenodd" clip-rule="evenodd" d="M32.833 23.8434H26.761C23.9155 23.8434 21.5995 21.5289 21.598 18.6849C21.598 15.8379 23.914 13.5219 26.761 13.5204H32.833C33.454 13.5204 33.958 14.0244 33.958 14.6454C33.958 15.2664 33.454 15.7704 32.833 15.7704H26.761C25.1545 15.7719 23.848 17.0784 23.848 18.6834C23.848 20.2869 25.156 21.5934 26.761 21.5934H32.833C33.454 21.5934 33.958 22.0974 33.958 22.7184C33.958 23.3394 33.454 23.8434 32.833 23.8434Z" fill="black"/>
<path fill-rule="evenodd" clip-rule="evenodd" d="M27.4475 19.7154H26.9795C26.3585 19.7154 25.8545 19.2114 25.8545 18.5904C25.8545 17.9694 26.3585 17.4654 26.9795 17.4654H27.4475C28.0685 17.4654 28.5725 17.9694 28.5725 18.5904C28.5725 19.2114 28.0685 19.7154 27.4475 19.7154Z" fill="black"/>
<mask id="mask0_4_2871" style="mask-type:luminance" maskUnits="userSpaceOnUse" x="3" y="4" width="31" height="30">
<path fill-rule="evenodd" clip-rule="evenodd" d="M3 4.5H33.9579V33.2593H3V4.5Z" fill="white"/>
</mask>
<g mask="url(#mask0_4_2871)">
<path fill-rule="evenodd" clip-rule="evenodd" d="M11.9964 6.75C8.27639 6.75 5.24939 9.777 5.24939 13.497V24.2625C5.24939 27.9825 8.27639 31.0095 11.9964 31.0095H24.9624C28.6824 31.0095 31.7079 27.9825 31.7079 24.2625V13.497C31.7079 9.777 28.6824 6.75 24.9624 6.75H11.9964ZM24.9624 33.2595H11.9964C7.03589 33.2595 2.99939 29.223 2.99939 24.2625V13.497C2.99939 8.535 7.03589 4.5 11.9964 4.5H24.9624C29.9229 4.5 33.9579 8.535 33.9579 13.497V24.2625C33.9579 29.223 29.9229 33.2595 24.9624 33.2595Z" fill="black"/>
</g>
<path fill-rule="evenodd" clip-rule="evenodd" d="M19.0268 13.5571H10.9283C10.3073 13.5571 9.80334 13.0531 9.80334 12.4321C9.80334 11.8111 10.3073 11.3071 10.9283 11.3071H19.0268C19.6478 11.3071 20.1518 11.8111 20.1518 12.4321C20.1518 13.0531 19.6478 13.5571 19.0268 13.5571Z" fill="black"/>
</svg>
