<svg width="36" height="36" viewBox="0 0 36 36" fill="none" xmlns="http://www.w3.org/2000/svg">
<path fill-rule="evenodd" clip-rule="evenodd" d="M17.9926 26.1401C17.3716 26.1401 16.8676 25.6361 16.8676 25.0151V21.2096C16.8676 20.5886 17.3716 20.0846 17.9926 20.0846C18.6136 20.0846 19.1176 20.5886 19.1176 21.2096V25.0151C19.1176 25.6361 18.6136 26.1401 17.9926 26.1401Z" fill="black"/>
<mask id="mask0_4_2934" style="mask-type:luminance" maskUnits="userSpaceOnUse" x="3" y="6" width="30" height="17">
<path fill-rule="evenodd" clip-rule="evenodd" d="M3.00024 6.87H32.9849V22.3365H3.00024V6.87Z" fill="white"/>
</mask>
<g mask="url(#mask0_4_2934)">
<path fill-rule="evenodd" clip-rule="evenodd" d="M5.25024 17.0895C8.81424 19.026 13.3082 20.0865 17.9852 20.0865C22.6712 20.0865 27.1697 19.026 30.7352 17.0895V12.5865C30.7352 10.674 29.1887 9.12 27.2852 9.12H8.71524C6.80424 9.12 5.25024 10.668 5.25024 12.5715V17.0895ZM17.9852 22.3365C12.6677 22.3365 7.54224 21.0495 3.55674 18.7155C3.21174 18.5145 3.00024 18.1455 3.00024 17.745V12.5715C3.00024 9.4275 5.56374 6.87 8.71524 6.87H27.2852C30.4292 6.87 32.9852 9.4335 32.9852 12.5865V17.745C32.9852 18.1455 32.7722 18.5145 32.4287 18.7155C28.4432 21.0495 23.3132 22.3365 17.9852 22.3365Z" fill="black"/>
</g>
<mask id="mask1_4_2934" style="mask-type:luminance" maskUnits="userSpaceOnUse" x="11" y="3" width="14" height="7">
<path fill-rule="evenodd" clip-rule="evenodd" d="M11.6176 3.00031H24.3676V9.11416H11.6176V3.00031Z" fill="white"/>
</mask>
<g mask="url(#mask1_4_2934)">
<path fill-rule="evenodd" clip-rule="evenodd" d="M23.2426 9.11415C22.6216 9.11415 22.1176 8.61015 22.1176 7.98915V7.44015C22.1176 6.23265 21.1351 5.25015 19.9276 5.25015H16.0576C14.8501 5.25015 13.8676 6.23265 13.8676 7.44015V7.98915C13.8676 8.61015 13.3636 9.11415 12.7426 9.11415C12.1216 9.11415 11.6176 8.61015 11.6176 7.98915V7.44015C11.6176 4.99215 13.6096 3.00015 16.0576 3.00015H19.9276C22.3756 3.00015 24.3676 4.99215 24.3676 7.44015V7.98915C24.3676 8.61015 23.8636 9.11415 23.2426 9.11415Z" fill="black"/>
</g>
<path fill-rule="evenodd" clip-rule="evenodd" d="M26.6924 32.6103H9.29235C6.17985 32.6103 3.55935 30.1788 3.32385 27.0738L3.03885 23.3103C2.99235 22.6908 3.45735 22.1493 4.07685 22.1028C4.69935 22.0803 5.23635 22.5198 5.28435 23.1408L5.56785 26.9028C5.71485 28.8408 7.34985 30.3603 9.29235 30.3603H26.6924C28.6349 30.3603 30.2714 28.8408 30.4169 26.9028L30.7019 23.1408C30.7498 22.5198 31.3004 22.0788 31.9094 22.1028C32.5289 22.1493 32.9924 22.6908 32.9459 23.3103L32.6609 27.0738C32.4254 30.1788 29.8049 32.6103 26.6924 32.6103Z" fill="black"/>
</svg>
